<svg width="476" height="434" viewBox="0 0 476 434" fill="none" xmlns="http://www.w3.org/2000/svg">
<path d="M311.1 65.3401C310.063 66.1733 308.854 66.7674 307.56 67.0801C304.01 67.8701 294.56 67.4701 292.96 71.8101C292.449 73.1124 291.652 74.2839 290.63 75.2389C289.607 76.194 288.384 76.9084 287.05 77.3301C287.05 77.3301 279.56 77.7301 279.16 79.3301C278.76 80.9301 276.01 83.6701 276.01 83.6701H405C405 83.6701 409.34 76.9701 402.24 70.6701C396.03 65.1501 384.68 73.5101 383.24 66.6701" stroke="#263238" stroke-linecap="round" stroke-linejoin="round"/>
<path d="M382.07 56.63C380.63 51.44 377.6 44.44 371.45 41.84C361.19 37.5 352.52 43.42 350.15 49.33C347.78 55.24 346.21 59.19 337.15 54.06C328.09 48.93 320.15 49.33 317.43 56.06C316.645 58.0084 315.664 59.8714 314.5 61.62" stroke="#263238" stroke-linecap="round" stroke-linejoin="round"/>
<path d="M92.0498 134.1H136.84C136.84 134.1 139.46 130.1 135.17 126.23C130.88 122.36 122.52 129.57 123.72 121.46C123.72 121.46 122.72 111.46 116.56 108.82C114.974 108.094 113.227 107.795 111.49 107.953C109.753 108.111 108.088 108.72 106.66 109.72" stroke="#263238" stroke-linecap="round" stroke-linejoin="round"/>
<path d="M103.68 113.35C102.25 116.93 101.29 119.35 95.81 116.21C90.33 113.07 85.55 113.35 83.88 117.41C82.21 121.47 80.06 123.61 77.88 124.08C75.7 124.55 70.01 124.32 69.05 126.95C68.7383 127.737 68.2554 128.446 67.6362 129.023C67.017 129.601 66.2771 130.034 65.47 130.29C65.47 130.29 60.94 130.52 60.7 131.48C60.2229 132.459 59.5763 133.346 58.79 134.1H85" stroke="#263238" stroke-linecap="round" stroke-linejoin="round"/>
<path d="M316.25 134.1H337.4C337.4 134.1 340.02 130.1 335.73 126.23C331.44 122.36 323.09 129.57 324.28 121.46C324.28 121.46 323.33 111.46 317.12 108.82C310.91 106.18 305.68 109.82 304.24 113.35C302.8 116.88 301.86 119.35 296.37 116.21C290.88 113.07 286.11 113.35 284.45 117.41C282.79 121.47 280.63 123.61 278.45 124.08C276.27 124.55 270.58 124.32 269.63 126.95C269.317 127.737 268.834 128.444 268.215 129.022C267.596 129.599 266.857 130.032 266.05 130.29C266.05 130.29 261.52 130.52 261.28 131.48C260.803 132.459 260.156 133.346 259.37 134.1H309.19" stroke="#263238" stroke-linecap="round" stroke-linejoin="round"/>
<g opacity="0.1">
<path opacity="0.1" d="M12.23 200.17C16.17 200.95 24.92 198.84 24.92 198.84C24.92 198.84 21.78 193.49 21.54 193.18C18.73 189.56 11.17 184.18 6.36001 185.98C5.56864 186.295 4.8522 186.772 4.25711 187.381C3.66201 187.991 3.20153 188.718 2.9055 189.516C2.60948 190.315 2.48451 191.167 2.53868 192.017C2.59286 192.867 2.82498 193.696 3.22001 194.45C4.79001 197.71 8.88001 199.5 12.23 200.17Z" fill="black"/>
<path opacity="0.1" d="M20.8202 225C24.6602 224.73 32.0101 220.75 32.6001 220.43C34.8717 224.638 37.4207 228.69 40.2302 232.56C41.8502 234.82 43.5602 237.05 45.3002 239.26C44.3502 238.37 43.5002 237.58 43.3702 237.48C39.7102 234.74 31.0102 231.59 26.8302 234.55C26.1499 235.063 25.5849 235.713 25.1718 236.457C24.7587 237.202 24.5068 238.026 24.4323 238.874C24.3578 239.723 24.4625 240.578 24.7394 241.383C25.0164 242.189 25.4596 242.927 26.0402 243.55C28.4202 246.27 32.8302 246.92 36.2402 246.68C39.6502 246.44 46.0402 243.16 47.7002 242.28C48.3802 243.12 49.0402 243.97 49.7002 244.81C52.9602 248.81 56.2302 252.81 59.3202 256.87C60.4102 258.29 61.4202 259.73 62.4501 261.16C61.6101 260.37 60.9002 259.71 60.7802 259.62C57.1102 256.87 48.4202 253.72 44.2402 256.69C43.5572 257.201 42.9898 257.85 42.5749 258.595C42.16 259.34 41.907 260.164 41.8324 261.013C41.7578 261.863 41.8634 262.719 42.1422 263.524C42.4209 264.33 42.8666 265.068 43.4502 265.69C45.8302 268.42 50.2402 269.06 53.6502 268.82C57.0602 268.58 62.8302 265.62 64.8102 264.58C65.8102 266.08 66.8102 267.58 67.7302 269.08C68.3302 270.08 68.9702 271.08 69.5102 272.15L71.1702 275.28C72.1702 277.28 73.1702 279.4 74.0802 281.4C74.7202 282.79 75.3102 284.12 75.9002 285.47C74.8302 284.04 72.6902 281.29 72.4802 281.08C69.2802 277.82 61.1602 273.39 56.5702 275.68C55.8202 276.083 55.1634 276.639 54.6424 277.312C54.1214 277.986 53.7478 278.761 53.546 279.588C53.3442 280.415 53.3186 281.276 53.471 282.113C53.6233 282.951 53.9501 283.747 54.4302 284.45C56.3702 287.51 60.6302 288.81 64.0402 289.09C67.7902 289.4 75.3701 286.72 76.3102 286.38C77.3102 288.61 78.2102 290.78 79.0502 292.85C79.6835 294.37 80.2735 295.84 80.8202 297.26L83.9402 296.58C83.2735 295.013 82.5768 293.373 81.8502 291.66C80.8502 289.4 79.7802 287 78.6301 284.55C80.7732 283.102 82.8269 281.526 84.7802 279.83C87.9501 282.05 95.2301 283.83 96.1702 284.1C95.7502 286.49 95.3302 288.81 94.8902 291C94.6601 292.16 94.4302 293.25 94.2001 294.34L97.5002 293.62C97.6301 292.94 97.7502 292.27 97.8702 291.56C98.3102 289.13 98.7202 286.56 99.1202 283.85C100.12 283.85 108.12 283.72 111.57 282.13C114.67 280.68 118.21 277.98 118.97 274.44C119.176 273.614 119.206 272.753 119.057 271.914C118.908 271.076 118.585 270.277 118.108 269.572C117.631 268.866 117.01 268.269 116.287 267.819C115.564 267.369 114.754 267.077 113.91 266.96C108.82 266.4 102.74 273.37 100.91 277.55C100.8 277.8 99.9102 280.61 99.3702 282.39C99.5202 281.29 99.6902 280.23 99.8302 279.1C100.14 276.87 100.38 274.64 100.65 272.23C100.74 271.07 100.83 269.89 100.92 268.7C101.01 267.51 101.01 266.27 101.06 265.04C101.06 262.18 101.06 259.29 100.88 256.38C102.88 256.64 109.79 257.48 113.08 256.52C116.37 255.56 120.28 253.42 121.56 250.04C121.891 249.255 122.052 248.409 122.033 247.558C122.015 246.706 121.817 245.868 121.453 245.098C121.089 244.328 120.566 243.643 119.919 243.089C119.273 242.535 118.517 242.123 117.7 241.88C112.7 240.55 105.7 246.52 103.2 250.37C103.05 250.61 101.58 253.57 100.8 255.21C100.7 253.46 100.6 251.72 100.44 249.95C99.9702 244.85 99.3401 239.7 98.7402 234.56C98.5501 232.98 98.3801 231.41 98.2102 229.84C98.9002 229.94 107.15 231.12 110.84 230.04C114.12 229.04 118.03 226.94 119.32 223.56C119.649 222.774 119.808 221.928 119.788 221.076C119.768 220.225 119.57 219.387 119.205 218.617C118.84 217.848 118.317 217.163 117.67 216.609C117.023 216.055 116.267 215.643 115.45 215.4C110.45 214.07 103.45 220.05 100.96 223.89C100.77 224.18 98.6602 228.45 98.1802 229.56C97.8002 226.09 97.4501 222.64 97.2502 219.22C96.9501 214.605 96.9501 209.975 97.2502 205.36C97.5702 205.41 106.17 206.68 109.95 205.57C113.23 204.57 117.15 202.48 118.43 199.09C118.759 198.305 118.919 197.459 118.9 196.608C118.88 195.757 118.682 194.92 118.318 194.15C117.954 193.381 117.432 192.696 116.787 192.141C116.141 191.587 115.386 191.174 114.57 190.93C109.57 189.61 102.57 195.58 100.07 199.43C99.8801 199.73 97.6102 204.31 97.2602 205.18C97.2602 204.91 97.2602 204.63 97.2602 204.36C97.689 199.741 98.529 195.17 99.7701 190.7C100.42 188.22 101.19 185.89 101.98 183.64C103.56 184.04 110.79 185.79 114.3 185.17C117.81 184.55 121.79 182.88 123.44 179.66C123.852 178.915 124.103 178.092 124.176 177.244C124.249 176.396 124.143 175.542 123.865 174.738C123.587 173.934 123.143 173.197 122.561 172.575C121.98 171.954 121.274 171.461 120.49 171.13C115.71 169.26 108.04 174.43 105.15 177.98C105 178.17 103.62 180.31 102.63 181.88C103.01 180.88 103.37 179.82 103.75 178.88C105.16 175.27 106.67 172.05 108.03 169.2C108.82 167.59 109.56 166.2 110.27 164.81C112.02 164.4 119.07 162.64 121.85 160.51C124.63 158.38 127.44 155.03 127.42 151.41C127.444 150.558 127.288 149.711 126.963 148.924C126.638 148.136 126.15 147.426 125.532 146.839C124.914 146.253 124.18 145.803 123.377 145.518C122.574 145.234 121.719 145.122 120.87 145.19C115.77 145.74 111.34 153.85 110.42 158.34C110.34 158.72 109.78 164.93 109.87 164.91H109.97C109.26 166.19 108.52 167.56 107.73 169.08C106.31 171.9 104.73 175.08 103.23 178.69C101.594 182.518 100.181 186.438 99.0002 190.43C97.6439 194.929 96.6935 199.541 96.1602 204.21C96.1553 204.267 96.1553 204.324 96.1602 204.38C95.8602 202.91 94.9002 198.82 94.7902 198.51C93.2502 194.2 87.7402 186.78 82.6102 186.94C81.7617 186.993 80.9338 187.223 80.18 187.616C79.4263 188.009 78.7635 188.557 78.2346 189.222C77.7057 189.888 77.3226 190.657 77.1099 191.48C76.8973 192.303 76.8599 193.162 77.0002 194C77.4802 197.58 80.8001 200.55 83.7802 202.24C87.1402 204.13 95.4701 204.86 96.1301 204.92C95.7029 209.684 95.5927 214.471 95.8002 219.25C95.9102 222.03 96.1002 224.83 96.3302 227.64C96.0402 226.37 95.7602 225.24 95.7102 225.09C94.1702 220.78 88.6502 213.36 83.5302 213.52C82.6803 213.57 81.8504 213.798 81.0947 214.19C80.339 214.583 79.6743 215.129 79.1441 215.796C78.6139 216.462 78.2299 217.232 78.0173 218.056C77.8047 218.881 77.7682 219.741 77.9102 220.58C78.3902 224.17 81.7102 227.14 84.6902 228.82C87.6702 230.5 94.8002 231.3 96.6902 231.48C96.7902 232.55 96.8702 233.63 96.9802 234.7C97.4702 239.86 97.9801 245 98.3401 250.07C98.4701 251.85 98.5201 253.61 98.5901 255.37C98.3202 254.25 98.0902 253.31 98.0402 253.17C96.5002 248.85 91.0402 241.43 85.8602 241.59C85.0098 241.641 84.1798 241.871 83.4241 242.264C82.6683 242.657 82.0038 243.205 81.4737 243.872C80.9436 244.539 80.5598 245.31 80.3473 246.135C80.1348 246.96 80.0983 247.82 80.2402 248.66C80.7202 252.25 84.0501 255.22 87.0201 256.9C89.9902 258.58 96.4401 259.3 98.6702 259.52C98.6702 261.32 98.6702 263.13 98.6702 264.88C98.5901 266.08 98.6002 267.23 98.4602 268.43C98.3202 269.63 98.2302 270.79 98.1202 271.95C97.8102 274.19 97.5202 276.49 97.1202 278.66C96.8902 280.17 96.6402 281.61 96.3902 283.06C96.2902 281.28 96.0102 277.8 95.9602 277.52C95.0337 273.595 93.1159 269.973 90.3902 267C90.3114 266.559 90.1874 266.126 90.0201 265.71C89.7374 264.907 89.2884 264.172 88.7027 263.554C88.1169 262.936 87.4074 262.448 86.6205 262.123C85.8336 261.797 84.987 261.641 84.1357 261.665C83.2845 261.689 82.4478 261.891 81.6802 262.26C77.1202 264.6 75.9002 273.77 76.6802 278.26C76.6802 278.52 77.5302 281.36 78.0602 283.14C77.5901 282.14 77.1402 281.14 76.6402 280.14C75.6402 278.14 74.6402 276.14 73.5302 273.96L71.8102 270.87C71.2501 269.87 70.5402 268.79 69.9002 267.74C68.3702 265.33 66.7002 262.96 64.9702 260.62C66.7502 259.76 72.9702 256.62 75.2302 254C77.4902 251.38 79.5202 247.45 78.7302 243.92C78.5668 243.086 78.2303 242.295 77.7424 241.599C77.2545 240.903 76.626 240.317 75.8976 239.879C75.1692 239.441 74.357 239.16 73.5134 239.055C72.6698 238.95 71.8137 239.024 71.0002 239.27C66.1402 240.9 63.5502 249.78 63.6002 254.35C63.6002 254.64 64.0102 257.92 64.2602 259.72C63.2602 258.32 62.1702 256.91 61.0602 255.52C57.8601 251.52 54.4902 247.58 51.1502 243.63C50.1502 242.42 49.1502 241.2 48.1502 239.99C48.7802 239.69 56.3102 236.12 58.7902 233.18C61.0002 230.57 63.0802 226.63 62.2902 223.1C62.132 222.263 61.7991 221.468 61.3129 220.768C60.8268 220.068 60.1985 219.478 59.469 219.037C58.7395 218.597 57.9252 218.315 57.0793 218.21C56.2335 218.105 55.3751 218.18 54.5602 218.43C49.7001 220.05 47.1102 228.93 47.1602 233.51C47.1602 233.85 47.7602 238.57 47.9602 239.76C45.7402 237.09 43.5402 234.4 41.4902 231.66C38.6981 227.975 36.1462 224.113 33.8501 220.1C34.1402 219.96 42.0102 216.27 44.5502 213.26C46.7602 210.65 48.8502 206.71 48.0502 203.18C47.8918 202.344 47.5591 201.55 47.0736 200.851C46.5881 200.152 45.9608 199.563 45.2325 199.122C44.5041 198.681 43.6912 198.399 42.8465 198.294C42.0018 198.188 41.1444 198.262 40.3302 198.51C35.4602 200.13 32.8701 209.01 32.9201 213.59C32.9201 213.95 33.5702 219.03 33.7502 219.94C33.6202 219.7 33.4501 219.48 33.3202 219.24C31.1364 215.147 29.3161 210.871 27.8802 206.46C27.0602 204.04 26.4102 201.67 25.8802 199.35C27.4202 198.82 34.4102 196.29 37.0002 193.83C39.5902 191.37 42.0002 187.83 41.5802 184.2C41.516 183.351 41.2735 182.524 40.8683 181.775C40.4632 181.025 39.9046 180.369 39.2289 179.85C38.5533 179.331 37.7758 178.961 36.9472 178.763C36.1186 178.564 35.2575 178.543 34.4201 178.7C29.4201 179.78 25.8601 188.32 25.4201 192.88C25.4201 193.13 25.4202 195.67 25.4802 197.53C25.2302 196.48 24.9602 195.4 24.7402 194.39C23.9202 190.6 23.4002 187.08 22.9702 183.96C22.7402 182.18 22.5701 180.57 22.4201 179.06C23.6501 177.75 28.5502 172.39 29.7002 169.06C30.8502 165.73 31.3402 161.4 29.3302 158.4C28.8795 157.677 28.2818 157.056 27.5758 156.578C26.8698 156.101 26.0713 155.777 25.232 155.628C24.3928 155.479 23.5316 155.508 22.7043 155.714C21.8771 155.919 21.1023 156.296 20.4302 156.82C16.4902 160.09 17.2702 169.31 18.9701 173.56C19.1102 173.93 22.0702 179.41 22.1302 179.34L22.2101 179.26C22.3201 180.72 22.4601 182.26 22.6402 183.98C23.0101 187.11 23.4501 190.65 24.1901 194.48C24.9525 198.608 25.9542 202.688 27.1901 206.7C28.5412 211.197 30.2915 215.565 32.4201 219.75C32.4201 219.75 32.4802 219.85 32.5002 219.9C31.5002 218.83 28.3902 215.95 28.1302 215.76C24.4602 213.01 15.7702 209.86 11.5902 212.83C10.9072 213.341 10.3398 213.99 9.92486 214.735C9.50996 215.48 9.25696 216.304 9.18239 217.153C9.10783 218.003 9.21338 218.859 9.49215 219.664C9.77092 220.47 10.2166 221.208 10.8002 221.83C13.0002 224.57 17.4102 225.21 20.8202 225Z" fill="black"/>
<path opacity="0.1" d="M101.58 182.71C101.67 182.71 101.91 176.52 101.88 176.13C101.53 171.56 98.1702 162.95 93.1902 161.75C92.3567 161.575 91.4956 161.576 90.6629 161.756C89.8302 161.935 89.0445 162.287 88.3569 162.79C87.6693 163.293 87.0953 163.934 86.672 164.674C86.2487 165.413 85.9858 166.233 85.9002 167.08C85.4202 170.67 87.8402 174.41 90.2602 176.82C93.1102 179.65 101.58 182.71 101.58 182.71Z" fill="black"/>
</g>
<g opacity="0.1">
<path opacity="0.1" d="M458.06 286.29C454.68 286.41 447.69 283.49 447.69 283.49C447.69 283.49 451.01 279.49 451.26 279.24C454.07 276.61 461.06 273.19 464.83 275.24C465.446 275.607 465.977 276.1 466.391 276.686C466.804 277.272 467.09 277.938 467.229 278.641C467.369 279.344 467.359 280.069 467.201 280.768C467.042 281.467 466.739 282.126 466.31 282.7C464.56 285.24 460.93 286.18 458.06 286.29Z" fill="black"/>
<path opacity="0.1" d="M447.61 305.75C444.45 305.02 438.88 300.75 438.43 300.38C435.971 303.577 433.298 306.604 430.43 309.44C428.78 311.11 427.07 312.73 425.33 314.34C426.23 313.72 427.04 313.18 427.17 313.12C430.58 311.32 438.22 309.87 441.3 312.89C441.797 313.406 442.181 314.021 442.425 314.694C442.67 315.368 442.77 316.086 442.719 316.8C442.668 317.515 442.467 318.211 442.13 318.844C441.792 319.476 441.325 320.03 440.76 320.47C438.42 322.42 434.67 322.36 431.87 321.71C429.07 321.06 424.19 317.48 422.93 316.52C422.25 317.13 421.59 317.75 420.93 318.35C417.69 321.27 414.44 324.16 411.33 327.1C410.24 328.1 409.2 329.19 408.16 330.24C408.96 329.7 409.64 329.24 409.75 329.18C413.16 327.39 420.81 325.94 423.89 328.96C424.387 329.475 424.77 330.089 425.015 330.762C425.259 331.435 425.359 332.152 425.308 332.866C425.257 333.58 425.057 334.275 424.719 334.906C424.382 335.538 423.915 336.091 423.35 336.53C421.01 338.53 417.26 338.43 414.45 337.78C411.64 337.13 407.25 333.89 405.74 332.78C404.74 333.89 403.67 335.01 402.74 336.13C402.1 336.91 401.44 337.62 400.85 338.45L399.05 340.83C397.97 342.38 396.84 343.98 395.82 345.52C395.1 346.59 394.44 347.62 393.76 348.66C394.84 347.61 396.99 345.66 397.19 345.47C400.29 343.18 407.62 340.59 411.13 343.1C411.699 343.536 412.17 344.086 412.513 344.716C412.856 345.345 413.063 346.04 413.121 346.754C413.178 347.469 413.085 348.188 412.847 348.864C412.609 349.54 412.232 350.159 411.74 350.68C409.74 352.96 406 353.48 403.13 353.25C399.98 353.01 394.04 349.77 393.3 349.36C392.19 351.08 391.13 352.76 390.16 354.36C389.44 355.54 388.75 356.69 388.1 357.79L385.6 356.79C386.35 355.57 387.15 354.31 387.99 352.98C389.11 351.23 390.34 349.39 391.62 347.5C390.032 346.012 388.536 344.429 387.14 342.76C384.21 344.18 377.92 344.76 377.14 344.76C377.14 346.76 377.21 348.76 377.29 350.66C377.29 351.66 377.37 352.6 377.41 353.53L374.77 352.53C374.77 351.94 374.77 351.37 374.77 350.76C374.77 348.68 374.77 346.46 374.77 344.19C373.95 344.05 367.27 342.88 364.65 341.1C362.27 339.48 359.65 336.76 359.53 333.72C359.468 333.006 359.557 332.286 359.792 331.609C360.027 330.932 360.401 330.311 360.892 329.788C361.383 329.266 361.978 328.852 362.64 328.575C363.301 328.298 364.013 328.163 364.73 328.18C369.03 328.4 373.15 335 374.15 338.72C374.21 338.94 374.58 341.39 374.79 342.95C374.79 342.01 374.79 341.11 374.84 340.15C374.84 338.26 374.98 336.37 375.07 334.34C375.16 333.34 375.24 332.34 375.32 331.34C375.4 330.34 375.57 329.34 375.7 328.28C376.03 325.9 376.49 323.51 377 321.11C375.34 321.11 369.45 320.84 366.84 319.6C364.23 318.36 361.28 316.07 360.66 313.08C360.493 312.384 360.473 311.66 360.604 310.956C360.734 310.252 361.011 309.583 361.416 308.993C361.822 308.403 362.347 307.904 362.957 307.53C363.568 307.156 364.25 306.914 364.96 306.82C369.25 306.38 374.32 312.28 375.87 315.82C375.97 316.04 376.8 318.7 377.22 320.16C377.54 318.72 377.85 317.28 378.22 315.84C379.29 311.66 380.5 307.47 381.69 303.28C382.06 301.99 382.4 300.71 382.76 299.43C382.17 299.43 375.16 299.3 372.24 297.91C369.64 296.67 366.67 294.37 366.06 291.39C365.889 290.694 365.868 289.969 365.997 289.264C366.126 288.558 366.402 287.888 366.808 287.297C367.214 286.706 367.74 286.208 368.352 285.834C368.965 285.461 369.649 285.221 370.36 285.13C374.65 284.69 379.72 290.59 381.27 294.13C381.38 294.39 382.57 298.22 382.82 299.2C383.6 296.38 384.35 293.55 384.97 290.74C385.836 286.948 386.454 283.103 386.82 279.23C386.54 279.23 379.23 279.13 376.24 277.7C373.64 276.47 370.67 274.17 370.05 271.19C369.881 270.493 369.861 269.769 369.99 269.063C370.12 268.358 370.396 267.688 370.802 267.096C371.207 266.505 371.733 266.006 372.344 265.631C372.956 265.256 373.639 265.014 374.35 264.92C378.65 264.48 383.71 270.39 385.26 273.92C385.39 274.2 386.66 278.32 386.84 279.08C386.84 278.85 386.9 278.62 386.92 278.4C387.179 274.503 387.089 270.591 386.65 266.71C386.44 264.57 386.12 262.53 385.76 260.55C384.4 260.67 378.16 261.16 375.32 260.18C372.48 259.2 369.4 257.28 368.46 254.38C368.216 253.706 368.117 252.988 368.169 252.273C368.221 251.558 368.423 250.862 368.762 250.23C369.1 249.598 369.568 249.044 370.134 248.605C370.701 248.166 371.354 247.851 372.05 247.68C376.26 246.77 381.95 252.08 383.88 255.42C383.98 255.6 384.88 257.56 385.45 259C385.28 258.11 385.11 257.19 384.93 256.34C384.24 253.15 383.41 250.27 382.66 247.73C382.22 246.29 381.79 244.99 381.38 243.73C379.98 243.15 374.38 240.73 372.38 238.61C370.38 236.49 368.46 233.31 368.96 230.31C369.052 229.598 369.293 228.914 369.668 228.302C370.042 227.69 370.542 227.164 371.133 226.758C371.725 226.352 372.396 226.076 373.102 225.947C373.808 225.818 374.533 225.84 375.23 226.01C379.39 227.15 381.99 234.48 382.17 238.33C382.17 238.67 381.82 243.89 381.75 243.86H381.66C382.08 245.02 382.52 246.26 382.97 247.63C383.78 250.16 384.67 253.03 385.43 256.21C386.296 259.635 386.964 263.108 387.43 266.61C387.954 270.53 388.132 274.489 387.96 278.44C387.954 278.487 387.954 278.534 387.96 278.58C388.4 277.39 389.75 274.12 389.88 273.88C391.73 270.51 397.3 265.07 401.54 265.88C402.239 266.036 402.898 266.337 403.473 266.765C404.049 267.192 404.528 267.735 404.88 268.359C405.231 268.983 405.448 269.675 405.515 270.388C405.582 271.102 405.499 271.821 405.27 272.5C404.39 275.42 401.27 277.5 398.54 278.5C395.49 279.63 388.47 279.12 387.92 279.08C387.576 283.089 386.968 287.071 386.1 291C385.64 293.3 385.1 295.6 384.54 297.9C384.95 296.9 385.33 295.99 385.4 295.9C387.26 292.52 392.83 287.09 397.06 287.9C397.76 288.055 398.42 288.355 398.996 288.782C399.572 289.209 400.052 289.752 400.404 290.377C400.756 291.001 400.972 291.693 401.039 292.407C401.105 293.121 401.02 293.841 400.79 294.52C399.91 297.43 396.79 299.46 394.06 300.46C391.33 301.46 385.33 301.17 383.74 301.06C383.52 301.94 383.3 302.83 383.07 303.7C381.97 307.92 380.86 312.13 379.89 316.29C379.55 317.76 379.26 319.21 378.98 320.67C379.35 319.77 379.66 319.02 379.72 318.91C381.58 315.53 387.15 310.1 391.39 310.91C392.089 311.066 392.748 311.367 393.323 311.795C393.899 312.222 394.378 312.765 394.73 313.389C395.081 314.013 395.298 314.705 395.365 315.418C395.432 316.132 395.349 316.851 395.12 317.53C394.24 320.44 391.12 322.47 388.38 323.47C385.64 324.47 380.24 324.2 378.38 324.09C378.13 325.59 377.88 327.09 377.7 328.56C377.61 329.56 377.45 330.56 377.4 331.56L377.22 334.56C377.17 336.46 377.11 338.41 377.11 340.26C377.11 341.55 377.11 342.78 377.11 344.01C377.43 342.55 378.11 339.7 378.21 339.47C379.493 336.334 381.559 333.58 384.21 331.47C384.337 331.122 384.498 330.787 384.69 330.47C385.034 329.842 385.505 329.293 386.075 328.859C386.644 328.425 387.299 328.115 387.995 327.95C388.692 327.785 389.416 327.768 390.119 327.901C390.823 328.034 391.491 328.313 392.08 328.72C395.56 331.28 395.35 339.06 394.08 342.72C394.01 342.93 392.97 345.19 392.29 346.6C392.82 345.83 393.29 345.08 393.87 344.29C394.95 342.74 396.07 341.21 397.28 339.57L399.12 337.23C399.72 336.44 400.45 335.67 401.12 334.88C402.72 333.09 404.42 331.34 406.17 329.62C404.8 328.67 400.02 325.23 398.53 322.76C397.04 320.29 395.83 316.76 396.97 313.91C397.214 313.241 397.595 312.631 398.089 312.118C398.583 311.606 399.179 311.202 399.838 310.934C400.498 310.665 401.206 310.538 401.917 310.56C402.629 310.581 403.328 310.752 403.97 311.06C407.79 313.06 408.76 320.78 408.11 324.58C408.11 324.81 407.29 327.49 406.84 328.94C407.9 327.94 408.95 326.89 410.06 325.89C413.26 322.99 416.58 320.16 419.88 317.33L422.88 314.7C422.39 314.37 416.61 310.4 414.94 307.63C413.45 305.17 412.25 301.63 413.38 298.79C413.624 298.121 414.005 297.511 414.499 296.998C414.993 296.485 415.588 296.081 416.247 295.812C416.906 295.543 417.614 295.414 418.326 295.434C419.038 295.455 419.737 295.624 420.38 295.93C424.2 297.93 425.17 305.65 424.52 309.45C424.52 309.74 423.35 313.58 423.02 314.54C425.23 312.62 427.41 310.67 429.48 308.67C432.343 305.961 435.022 303.065 437.5 300C437.27 299.84 431.23 295.73 429.5 292.89C428.01 290.42 426.8 286.89 427.93 284.04C428.175 283.367 428.56 282.752 429.058 282.237C429.556 281.721 430.157 281.316 430.821 281.047C431.486 280.779 432.199 280.653 432.916 280.677C433.632 280.702 434.335 280.877 434.98 281.19C438.8 283.19 439.77 290.91 439.12 294.71C439.07 295.01 437.86 299.14 437.59 299.87C437.73 299.7 437.89 299.53 438.03 299.35C440.395 296.244 442.48 292.935 444.26 289.46C445.26 287.55 446.12 285.67 446.91 283.83C445.7 283.18 440.23 280.14 438.41 277.76C436.59 275.38 435.07 272.07 435.88 269.14C436.047 268.442 436.359 267.788 436.797 267.219C437.234 266.65 437.786 266.18 438.418 265.839C439.049 265.499 439.745 265.295 440.461 265.242C441.176 265.188 441.895 265.287 442.57 265.53C446.57 267.1 448.4 274.66 448.17 278.53C448.17 278.74 447.79 280.85 447.51 282.38C447.85 281.55 448.22 280.69 448.51 279.88C449.69 276.88 450.59 273.98 451.37 271.44C451.8 270 452.16 268.68 452.48 267.44C451.63 266.18 448.27 261.08 447.76 258.18C447.25 255.28 447.42 251.59 449.49 249.37C449.96 248.829 450.539 248.392 451.188 248.089C451.838 247.786 452.544 247.623 453.261 247.611C453.978 247.599 454.689 247.738 455.349 248.018C456.008 248.299 456.602 248.715 457.09 249.24C459.94 252.49 458.09 260.04 456.09 263.34C455.92 263.63 452.73 267.79 452.69 267.73L452.63 267.65C452.35 268.85 452.02 270.12 451.63 271.51C451 274 450.12 276.92 449 280C447.825 283.331 446.456 286.59 444.9 289.76C443.178 293.319 441.14 296.716 438.81 299.91C438.783 299.949 438.753 299.986 438.72 300.02C439.72 299.28 442.67 297.29 442.91 297.16C446.32 295.37 453.97 293.91 457.05 296.93C457.547 297.446 457.931 298.061 458.175 298.734C458.42 299.408 458.52 300.126 458.469 300.84C458.418 301.555 458.217 302.251 457.88 302.884C457.542 303.516 457.075 304.07 456.51 304.51C454.17 306.46 450.41 306.41 447.61 305.75Z" fill="black"/>
<path opacity="0.1" d="M386.14 259.87C386.06 259.87 386.69 254.68 386.77 254.35C387.67 250.61 391.61 243.9 395.91 243.57C396.625 243.535 397.34 243.651 398.008 243.911C398.676 244.171 399.282 244.568 399.785 245.078C400.289 245.587 400.68 246.197 400.932 246.868C401.185 247.539 401.293 248.255 401.25 248.97C401.18 251.97 398.67 254.8 396.33 256.48C393.58 258.45 386.14 259.86 386.14 259.87Z" fill="black"/>
</g>
<path d="M197.65 1.36011L210.15 120.15" stroke="#263238" stroke-linecap="round" stroke-linejoin="round"/>
<path d="M235.14 26.6001L225.82 28.7401L217.29 45.6101L203.78 41.7501L203.4 45.4301L220.2 52.4001L226.21 44.0601V58.6101L244.25 59.3901L247.94 42.9001L254.53 48.7201V64.0401H258.41L260.74 44.8401L250.46 28.1601L235.14 26.6001Z" fill="white" stroke="#263238" stroke-linecap="round" stroke-linejoin="round"/>
<path d="M226.21 44.0601L226.07 35.8501" stroke="#263238" stroke-linecap="round" stroke-linejoin="round"/>
<path d="M235 32.0001L237.53 36.7501C237.53 36.7501 244.53 38.9701 245.77 39.2801C247.01 39.5901 250.84 38.3301 254 37.7001C257.16 37.0701 267.31 42.1301 267.31 42.1301L276.18 42.4501L271.43 36.7501L254.32 34.2101L245.45 37.0701L239.45 35.4801L240.73 33.0001L237.88 28.5601L235 32.0001Z" fill="black" stroke="#263238" stroke-linecap="round" stroke-linejoin="round"/>
<path d="M235.91 25.2402C235.395 25.1428 234.862 25.2517 234.426 25.5435C233.99 25.8353 233.686 26.2866 233.58 26.8002C233.2 28.7402 232.81 33.5902 232.81 33.5902L237.46 32.2302L242.9 34.5602C242.9 34.5602 244.64 29.5102 243.67 27.7702C242.7 26.0302 238.24 23.6902 235.91 25.2402Z" fill="white" stroke="#263238" stroke-linecap="round" stroke-linejoin="round"/>
<path d="M234.94 22.53C234.94 22.53 235.52 27.96 235.72 29.9C235.92 31.84 237.08 34.75 237.85 34.17C238.62 33.59 241.34 28.17 241.34 28.17L242.7 24.49L234.94 22.53Z" fill="white" stroke="#263238" stroke-linecap="round" stroke-linejoin="round"/>
<path d="M235 14.6001C235 14.6001 233.3 14.4501 233.3 17.2301C233.3 20.0101 234.53 20.1601 234.53 20.1601L235 14.6001Z" fill="white" stroke="#263238" stroke-linecap="round" stroke-linejoin="round"/>
<path d="M246.37 16.9202C246.59 16.932 246.805 16.9919 247 17.0957C247.195 17.1995 247.364 17.3446 247.497 17.521C247.629 17.6973 247.721 17.9005 247.767 18.1163C247.812 18.3322 247.81 18.5553 247.76 18.7702C247.45 20.4702 244.52 22.7702 244.52 22.7702L246.37 16.9202Z" fill="white" stroke="#263238" stroke-linecap="round" stroke-linejoin="round"/>
<path d="M240.76 9.00002C240.76 9.00002 237.66 8.22002 235.91 11.91C234.16 15.6 234.55 20.06 234.91 22.58C235.27 25.1 237.63 26.26 239.96 26.26C242.29 26.26 245.77 21.42 246.55 17.73C247.33 14.04 246.77 9.00002 240.76 9.00002Z" fill="white" stroke="#263238" stroke-linecap="round" stroke-linejoin="round"/>
<path d="M200.03 39.6002L200.8 45.4202L204.29 45.8102L203.71 39.2102L200.03 39.6002Z" fill="white" stroke="#263238" stroke-linecap="round" stroke-linejoin="round"/>
<path d="M203.78 39.5101L205.19 39.3201L205.47 42.4201L204.06 42.6101L203.78 39.5101Z" fill="white" stroke="#263238" stroke-linecap="round" stroke-linejoin="round"/>
<path d="M254.53 64.04L252.41 67.36L252.96 70.69L254.81 70.51L257.96 69.4L258.41 64.04H254.53Z" fill="white" stroke="#263238" stroke-linecap="round" stroke-linejoin="round"/>
<path d="M226.21 58.6101L224.84 64.5901L209.66 84.5701L219.84 113.26L222.43 112.7L220.21 85.3101L232.61 72.1701L234.09 73.1001L234.13 87.7601L248.34 111.78L251.3 111.03L244.64 87.9001L245.01 63.2901L244.25 59.3901L226.21 58.6101Z" fill="#263238" stroke="#263238" stroke-linecap="round" stroke-linejoin="round"/>
<path d="M219.84 113.26L217.62 116.4C217.62 116.4 214.1 118.07 213.55 118.99C213 119.91 216.55 119.73 216.55 119.73L220.62 119.36L224.88 116.59L222.47 112.7L219.84 113.26Z" fill="white" stroke="#263238" stroke-linecap="round" stroke-linejoin="round"/>
<path d="M198.18 5.59009C198.18 5.59009 196.32 9.83009 188.64 12.7401C180.96 15.6501 169.84 17.2401 166.93 23.3301C164.02 29.4201 164.02 28.9001 163.49 32.3301C163.207 34.3351 162.276 36.1927 160.84 37.6201C160.84 37.6201 163.49 37.8901 164.84 36.0401C166.19 34.1901 166.7 28.8901 168.84 28.0901C170.98 27.2901 174.87 26.0001 174.87 26.0001C174.87 26.0001 171.17 29.1801 170.87 30.7701C170.57 32.3601 170.34 36.0701 169.81 38.4501C169.579 39.7513 168.946 40.9474 168 41.8701C168 41.8701 171.44 41.8701 172.5 39.4901C173.56 37.1101 172.5 33.9301 175.94 31.5401C179.38 29.1501 183.09 30.2201 188.94 30.4801C194.79 30.7401 200.33 27.3101 200.33 27.3101L198.18 5.59009Z" fill="black" stroke="#263238" stroke-linecap="round" stroke-linejoin="round"/>
<path d="M248.34 111.78L245.79 120.25L252.12 120L251.3 111.03L248.34 111.78Z" fill="white" stroke="#263238" stroke-linecap="round" stroke-linejoin="round"/>
<path d="M238.64 16.43C238.53 16.93 238.18 17.28 237.84 17.21C237.5 17.14 237.32 16.67 237.43 16.21C237.54 15.75 237.89 15.36 238.23 15.43C238.57 15.5 238.74 15.93 238.64 16.43Z" fill="#263238"/>
<path d="M243.27 17.5101C243.16 18.0101 242.81 18.3601 242.47 18.2901C242.13 18.2201 241.95 17.7501 242.06 17.2901C242.17 16.8301 242.52 16.4401 242.86 16.5101C243.2 16.5801 243.37 17.0001 243.27 17.5101Z" fill="#263238"/>
<path d="M240.19 17.0701L238.96 20.7801H240.97" stroke="#263238" stroke-linecap="round" stroke-linejoin="round"/>
<path d="M237.42 21.8601C237.42 21.8601 238.5 23.7101 241.28 22.6301" stroke="#263238" stroke-linecap="round" stroke-linejoin="round"/>
<path d="M237.26 13.8302C237.662 13.613 238.127 13.5402 238.576 13.6239C239.025 13.7076 239.433 13.9427 239.73 14.2902" stroke="#263238" stroke-linecap="round" stroke-linejoin="round"/>
<path d="M242.05 14.9101C242.32 14.7618 242.619 14.6722 242.926 14.6473C243.234 14.6224 243.543 14.6627 243.834 14.7656C244.125 14.8685 244.39 15.0317 244.614 15.2444C244.837 15.4572 245.013 15.7147 245.13 16.0001" stroke="#263238" stroke-linecap="round" stroke-linejoin="round"/>
<path d="M234.33 13.3701L245.44 12.0001C245.44 12.0001 244.98 13.8502 245.6 14.3102C246.22 14.7702 246.37 16.9401 246.37 16.9401L245.91 19.4101L248.38 15.0901C248.38 15.0901 249.15 11.6902 248.53 10.6102C248.327 10.2842 248.057 10.0051 247.738 9.79132C247.419 9.57755 247.059 9.43399 246.68 9.37015C246.019 8.36969 245.087 7.57798 243.992 7.08749C242.898 6.59701 241.687 6.42798 240.5 6.60015C236.18 7.06015 234.33 9.22015 234.33 10.9201V13.3701Z" fill="#263238" stroke="#263238" stroke-linecap="round" stroke-linejoin="round"/>
<path d="M226.13 433.2L245.73 320.73L171.75 252.84L198.6 161.36L169.86 162L157.72 172.86L132.35 172.24L128.92 184.61L121.96 183.74L119.56 188.08L107.69 211.78L101.52 235.45L78.5198 264.2L75.9998 332.04L38.9198 385.56L27.2598 433.2H226.13Z" fill="#808080" stroke="#39515E" stroke-linecap="round" stroke-linejoin="round"/>
<path d="M393.06 433.2L368.51 379.37L408.51 406.02V363.37L385 335.52L388.48 304.19L352.78 236.3L351 212.8L338.82 201.48L276.3 206L271.84 184.05L231.84 161.42L207.84 219.53L185.73 229.31L201.31 250.67L198.79 267.6L204 293.74L117 312.89C117 312.89 116.13 354.67 116.13 358.15C116.13 361.63 98.7197 381.65 98.7197 381.65L97.9097 433.2H393.06Z" fill="#ABABAB" stroke="#39515E" stroke-linecap="round" stroke-linejoin="round"/>
<path d="M441.51 433.2L431.12 428.65L418.06 400.8L402.39 389.49L395.43 372.95L388.47 359.89L351.27 341.72L357.04 433.2H441.51Z" fill="#CCCCCC" stroke="#39515E" stroke-linecap="round" stroke-linejoin="round"/>
<path d="M52.1497 433.09H98.6597L99.4997 406.02L95.1497 390.36V348.58L84.7097 346.84L75.9997 356.41L62.0797 364.25L31.9097 433.2H52.1497V433.09Z" fill="#CCCCCC" stroke="#39515E" stroke-linecap="round" stroke-linejoin="round"/>
<path d="M68.2397 387.77L69.2598 383.43" stroke="#39515E" stroke-miterlimit="10"/>
<path d="M52.1499 433.2L58.3499 408.71L64.1999 404.99L67.6199 390.41" stroke="#39515E" stroke-miterlimit="10"/>
<path d="M42.1099 433.46L51.9599 405.52" stroke="#39515E" stroke-miterlimit="10"/>
<path d="M84.8496 358.4L83.8896 362.94" stroke="#39515E" stroke-miterlimit="10"/>
<path d="M87.0798 347.78L85.2598 356.45" stroke="#39515E" stroke-miterlimit="10"/>
<path d="M98.6599 433.09L99.4999 406.02L95.1499 390.36V348.58L86.4499 404.28L78.6099 406.89L75.9999 422.56L74.3799 433.09H98.6599Z" fill="white" stroke="#39515E" stroke-linecap="round" stroke-linejoin="round"/>
<path d="M247.61 402.22C252.558 401.55 257.396 400.232 262 398.3C265.676 396.801 268.91 394.392 271.4 391.3C271.69 390.91 271.96 390.5 272.22 390.09L265.35 359.09L251.8 347.27L249.54 337.13L236.54 326.99L232.04 342.77L224.71 352.91L224.15 390.1L231.15 403.48C236.659 403.433 242.158 403.012 247.61 402.22Z" fill="white" stroke="#39515E" stroke-linecap="round" stroke-linejoin="round"/>
<path d="M247.61 402.22L246.23 390.64L250.3 379.67V373.17L249.48 363.01" stroke="#39515E" stroke-miterlimit="10"/>
<path d="M255.86 367.02L258.02 379.26L262.08 380.07L261.27 390.23L262.89 395.52" stroke="#39515E" stroke-miterlimit="10"/>
<path d="M254.36 358.54L255.08 362.62" stroke="#39515E" stroke-miterlimit="10"/>
<path d="M240.95 332.53L244.2 365.85" stroke="#39515E" stroke-miterlimit="10"/>
<path d="M201.25 401.39C210.599 402.811 220.043 403.513 229.5 403.49C231.4 403.49 233.26 403.44 235.09 403.37L234.89 392.91L231.51 388.41V356.29L237.15 350.65L236.58 327L229.82 339.4L220.82 347.28L215.18 363.62L206.18 374.33L203.92 385.6L193.22 394.6L188.95 399.15C192.983 400.01 197.083 400.757 201.25 401.39Z" fill="#CCCCCC" stroke="#39515E" stroke-linecap="round" stroke-linejoin="round"/>
<path d="M364.1 433.2L411.35 433.11L350.17 396.45L335.38 360.76L323.19 359.02L312.75 345.1L307.52 350.32L311 380.78L297.95 402.54V416.47L291.86 432.13L321.3 433.2H364.1Z" fill="white" stroke="#39515E" stroke-linecap="round" stroke-linejoin="round"/>
<path d="M340.4 433.14L338.17 420.69L341.68 413.34L340.72 398.97L343.6 401.85L363.08 433.14H340.4Z" fill="#CCCCCC" stroke="#39515E" stroke-linecap="round" stroke-linejoin="round"/>
<path d="M340.72 398.97L354.46 405.68L359.88 412.38L375.53 420.37L386.39 427.08L393.06 433.2L363.08 433.14L340.72 398.97Z" fill="white" stroke="#39515E" stroke-linecap="round" stroke-linejoin="round"/>
<path d="M297.95 402.54V416.47L291.39 432.92L316.24 433.24L311 403.41L321.45 393.84L307.52 350.32L311 380.78L297.95 402.54Z" fill="#CCCCCC" stroke="#39515E" stroke-linecap="round" stroke-linejoin="round"/>
<path d="M323.19 359.02L332.38 378.45L336.44 378.86L339.69 388.61" stroke="#39515E" stroke-miterlimit="10"/>
<path d="M329.36 417.8L330.76 422.34" stroke="#39515E" stroke-miterlimit="10"/>
<path d="M323.85 382.51L326.69 393.49L331.57 401.61L325.88 406.49L328.34 414.48" stroke="#39515E" stroke-miterlimit="10"/>
<path d="M207.74 159.25L187.34 181.56L186.64 140.66L206.95 116L207.74 159.25Z" fill="#CCCCCC" stroke="#39515E" stroke-linecap="round" stroke-linejoin="round"/>
<path d="M193.58 248.57L214.44 230.16C215.936 228.862 217.601 227.772 219.39 226.92C221.634 225.855 223.979 225.018 226.39 224.42C229.48 223.668 232.622 223.147 235.79 222.86C239.778 222.492 243.785 222.345 247.79 222.42C257.473 222.548 267.133 223.401 276.69 224.97C284.632 226.285 292.485 228.099 300.2 230.4C307.14 232.47 313.2 234.69 318.43 236.74C323.66 238.79 327.98 240.67 331.48 242.05L304.41 259.6C301.1 258.3 296.99 256.53 292.06 254.6C287.13 252.67 281.38 250.6 274.81 248.6C267.512 246.432 260.084 244.732 252.57 243.51C243.522 242.039 234.376 241.251 225.21 241.15C221.411 241.085 217.612 241.231 213.83 241.59C210.833 241.866 207.862 242.364 204.94 243.08C202.641 243.644 200.406 244.442 198.27 245.46C196.573 246.281 194.996 247.327 193.58 248.57Z" fill="#CCCCCC" stroke="#39515E" stroke-linecap="round" stroke-linejoin="round"/>
<path d="M260 399.11L236.46 408.11C238.517 407.346 240.488 406.367 242.34 405.19C243.98 404.144 245.457 402.86 246.72 401.38C247.912 399.978 248.834 398.368 249.44 396.63C250.063 394.779 250.354 392.833 250.3 390.88C250.283 387.474 249.238 384.152 247.3 381.35C244.815 378.055 241.641 375.342 238 373.4C232.755 370.535 227.242 368.19 221.54 366.4C214.74 364.11 206.54 361.85 196.89 359.5C183.747 356.439 170.877 352.306 158.41 347.14C147.151 342.526 136.581 336.381 127 328.88C118.2 322.006 110.952 313.35 105.73 303.48C100.435 292.991 97.6938 281.4 97.73 269.65C97.6799 264.878 98.0144 260.109 98.73 255.39C99.4132 250.854 100.484 246.384 101.93 242.03C103.354 237.764 105.151 233.631 107.3 229.68C109.465 225.726 111.972 221.969 114.79 218.45L131 198.12C125.022 205.557 120.423 214.003 117.42 223.06C115.874 227.663 114.73 232.39 114 237.19C113.259 242.188 112.925 247.238 113 252.29C112.992 264.746 115.921 277.028 121.55 288.14C127.088 298.603 134.768 307.782 144.09 315.08C153.57 322.71 164.84 329.08 177.37 334.41C190.561 339.895 204.18 344.29 218.09 347.55C228.34 350.05 236.97 352.46 244.16 354.89C250.196 356.808 256.027 359.316 261.57 362.38C266.05 364.99 269.26 367.75 271.38 370.79C273.446 373.751 274.566 377.269 274.59 380.88C274.657 382.948 274.352 385.01 273.69 386.97C273.053 388.799 272.083 390.494 270.83 391.97C269.493 393.526 267.933 394.874 266.2 395.97C264.25 397.232 262.171 398.285 260 399.11Z" fill="#CCCCCC" stroke="#39515E" stroke-linecap="round" stroke-linejoin="round"/>
<path d="M144.09 315.08C153.57 322.71 164.84 329.08 177.37 334.41C190.561 339.895 204.18 344.29 218.09 347.55C228.34 350.05 236.97 352.46 244.16 354.89C250.196 356.808 256.027 359.316 261.57 362.38C266.05 364.99 269.26 367.75 271.38 370.79C273.446 373.751 274.566 377.269 274.59 380.88C274.755 384.628 273.617 388.317 271.37 391.32C268.88 394.412 265.646 396.821 261.97 398.32C257.375 400.249 252.547 401.567 247.61 402.24C241.613 403.108 235.56 403.532 229.5 403.51C220.043 403.533 210.599 402.831 201.25 401.41C192.272 400.049 183.386 398.142 174.64 395.7C166.14 393.33 158.05 390.59 150.51 387.7C142.97 384.81 135.97 381.7 129.66 378.7L116.88 433H346.57C353.727 425.028 359.327 415.785 363.08 405.75C367.013 395.058 368.84 383.706 368.46 372.32C368.12 360.15 366.27 349.32 362.64 339.61C359.028 329.903 353.405 321.07 346.14 313.69C338.67 306.03 329.14 299.28 317.28 293.26C305.42 287.24 291.14 281.91 274.28 277.1C263.426 273.94 253.936 270.907 245.81 268C238.871 265.599 232.103 262.732 225.55 259.42C220.15 256.59 216.1 253.78 213.4 250.9C210.7 248.02 209.32 245.09 209.26 242.01C209.184 239.491 209.726 236.991 210.84 234.73C212.228 232.101 214.301 229.897 216.84 228.35C220.487 226.152 224.507 224.643 228.7 223.9C235.018 222.718 241.445 222.218 247.87 222.41C257.553 222.538 267.214 223.391 276.77 224.96C284.713 226.275 292.565 228.089 300.28 230.39C307.22 232.46 313.28 234.68 318.51 236.73C323.74 238.78 328.06 240.66 331.56 242.04L346.44 175.04C341.76 173.04 336.73 171.04 331.22 169.14C325.71 167.24 319.71 165.46 313.12 163.85C306.53 162.24 299.33 160.85 291.41 159.64C283.49 158.43 274.82 157.57 265.32 157.01L264.45 117.39L207 116L207.79 159.25C193.819 161.178 180.187 165.052 167.29 170.76C156.185 175.667 146.049 182.521 137.36 191C129.41 198.85 123.161 208.251 119 218.62C114.803 229.339 112.764 240.781 113 252.29C112.992 264.746 115.921 277.028 121.55 288.14C127.088 298.603 134.768 307.782 144.09 315.08Z" fill="white" stroke="#39515E" stroke-linecap="round" stroke-linejoin="round"/>
<path d="M116.88 433L129.66 378.67L113.29 388.91L102.87 433H116.88Z" fill="#CCCCCC" stroke="#39515E" stroke-linecap="round" stroke-linejoin="round"/>
<path d="M393.15 419.89C392.143 419.7 391.101 419.904 390.24 420.46L394.72 423.15C394.84 422.833 394.893 422.496 394.878 422.158C394.863 421.82 394.78 421.489 394.633 421.184C394.486 420.879 394.279 420.607 394.024 420.385C393.769 420.162 393.472 419.994 393.15 419.89Z" fill="#263238"/>
<path d="M394.41 384.49C394.41 384.49 395.01 381.97 395.03 381.81C395.23 379.92 394.5 376.14 392.55 375.27C392.222 375.135 391.869 375.071 391.515 375.083C391.16 375.094 390.812 375.179 390.493 375.334C390.174 375.489 389.891 375.709 389.663 375.981C389.435 376.252 389.267 376.569 389.17 376.91C388.7 378.34 389.41 380.05 390.22 381.22C391.18 382.6 394.41 384.48 394.41 384.49Z" fill="#263238"/>
<path d="M424.06 399.87C425.28 398.4 426.75 394.87 425.6 393.05C425.402 392.756 425.144 392.507 424.843 392.32C424.541 392.133 424.204 392.012 423.852 391.964C423.501 391.917 423.143 391.945 422.803 392.046C422.463 392.147 422.149 392.319 421.88 392.55C421.339 393.094 420.925 393.751 420.665 394.473C420.406 395.196 420.309 395.966 420.38 396.73C420.38 398.4 422.07 401.73 422.08 401.73C422.09 401.73 424 400 424.06 399.87Z" fill="#263238"/>
<path d="M382.86 413.77C384.273 414.672 385.818 415.347 387.44 415.77C387.31 416.51 387.18 417.25 387.02 417.96C387.02 418.14 386.93 418.32 386.89 418.51L387.83 419.07C387.89 418.78 387.95 418.48 388.02 418.19C388.25 417.02 388.44 415.83 388.59 414.63C390.195 415.222 391.882 415.559 393.59 415.63C394.363 415.61 395.121 415.42 395.812 415.074C396.504 414.729 397.11 414.236 397.59 413.63C397.782 413.33 397.909 412.993 397.962 412.642C398.016 412.29 397.995 411.931 397.9 411.587C397.806 411.244 397.641 410.925 397.415 410.649C397.189 410.374 396.908 410.15 396.59 409.99C394.66 409.08 391.32 410.99 390.01 412.38C389.93 412.47 389.11 413.57 388.67 414.19C388.76 413.46 388.85 412.74 388.92 412C389.11 409.88 389.24 407.72 389.37 405.57C389.37 404.92 389.46 404.26 389.51 403.57C389.79 403.67 393.07 404.77 394.67 404.57C396.08 404.42 397.85 403.84 398.67 402.57C398.862 402.271 398.989 401.935 399.042 401.584C399.095 401.233 399.074 400.874 398.98 400.532C398.886 400.189 398.72 399.871 398.495 399.596C398.269 399.322 397.988 399.099 397.67 398.94C395.74 398.03 392.4 399.94 391.09 401.33C391 401.44 389.81 403.03 389.53 403.44C389.63 402 389.75 400.56 389.92 399.14C390.135 397.231 390.469 395.337 390.92 393.47C391.05 393.47 394.48 394.68 396.11 394.47C397.53 394.32 399.29 393.74 400.11 392.47C400.302 392.171 400.429 391.835 400.482 391.484C400.535 391.133 400.514 390.774 400.42 390.432C400.326 390.089 400.16 389.771 399.935 389.496C399.709 389.222 399.428 388.998 399.11 388.84C397.18 387.92 393.84 389.84 392.54 391.23C392.43 391.34 391.16 393.05 390.95 393.37C390.95 393.26 391 393.15 391.03 393.04C391.554 391.183 392.24 389.376 393.08 387.64C393.53 386.64 394.02 385.77 394.51 384.91C395.13 385.19 397.96 386.45 399.44 386.46C400.92 386.47 402.68 386.09 403.6 384.89C403.825 384.615 403.99 384.297 404.084 383.954C404.177 383.612 404.198 383.254 404.144 382.903C404.091 382.552 403.964 382.216 403.772 381.918C403.58 381.619 403.327 381.364 403.03 381.17C401.22 380.05 397.69 381.59 396.24 382.83C396.16 382.9 395.43 383.67 394.91 384.24C395.14 383.85 395.37 383.45 395.6 383.08C396.45 381.71 397.31 380.51 398.08 379.44C398.52 378.84 398.93 378.31 399.32 377.81C401.046 377.776 402.756 377.476 404.39 376.92C405.65 376.27 407.09 375.09 407.39 373.61C407.457 373.266 407.452 372.912 407.376 372.57C407.299 372.229 407.152 371.907 406.944 371.625C406.736 371.343 406.472 371.107 406.169 370.932C405.865 370.757 405.528 370.648 405.18 370.61C403.05 370.46 400.63 373.45 399.91 375.21C399.85 375.37 399.15 377.86 399.19 377.86H399.24C398.85 378.33 398.44 378.86 398.01 379.4C397.21 380.45 396.32 381.64 395.44 383C394.48 384.457 393.602 385.966 392.81 387.52C391.916 389.261 391.18 391.078 390.61 392.95C390.61 392.95 390.61 393 390.61 393.02C390.61 392.39 390.52 390.65 390.5 390.51C390.19 388.63 388.5 385.18 386.38 384.86C386.028 384.818 385.671 384.85 385.332 384.955C384.994 385.059 384.68 385.233 384.413 385.466C384.145 385.698 383.929 385.984 383.779 386.305C383.629 386.626 383.547 386.975 383.54 387.33C383.47 388.84 384.61 390.33 385.7 391.22C386.94 392.22 390.29 393.22 390.56 393.22C390.029 395.138 389.625 397.089 389.35 399.06C389.18 400.21 389.05 401.37 388.94 402.54C388.94 402 388.88 401.54 388.87 401.45C388.56 399.57 386.87 396.11 384.75 395.8C384.398 395.756 384.041 395.787 383.702 395.891C383.363 395.995 383.05 396.169 382.783 396.402C382.516 396.635 382.301 396.922 382.152 397.244C382.004 397.566 381.925 397.915 381.92 398.27C381.85 399.77 382.99 401.27 384.08 402.15C385.539 403.053 387.127 403.728 388.79 404.15C388.79 404.59 388.7 405.04 388.67 405.49C388.48 407.64 388.31 409.78 388.07 411.88C387.99 412.62 387.88 413.35 387.77 414.07C387.77 413.59 387.77 413.19 387.77 413.13C387.46 411.25 385.77 407.8 383.65 407.48C383.298 407.436 382.941 407.467 382.602 407.571C382.263 407.675 381.95 407.849 381.683 408.082C381.416 408.315 381.201 408.602 381.052 408.924C380.904 409.246 380.825 409.595 380.82 409.95C380.63 411.39 381.77 412.86 382.86 413.77Z" fill="#263238"/>
<path d="M438.71 396.05C437.02 394.74 433.35 395.9 431.78 396.98C431.64 397.07 429.68 398.77 429.72 398.79C429.14 398.96 428.52 399.16 427.84 399.39C426.6 399.83 425.2 400.33 423.72 400.98C422.11 401.656 420.544 402.431 419.03 403.3C417.325 404.258 415.709 405.366 414.2 406.61L414.15 406.66C414.48 406.13 415.38 404.66 415.43 404.51C416.21 402.77 416.7 398.95 415.11 397.51C414.841 397.28 414.526 397.11 414.186 397.01C413.846 396.91 413.489 396.882 413.138 396.929C412.787 396.977 412.45 397.097 412.149 397.283C411.848 397.47 411.589 397.717 411.39 398.01C410.5 399.22 410.64 401.07 411.04 402.44C411.51 403.98 413.79 406.6 413.98 406.81C412.472 408.108 411.058 409.512 409.75 411.01C408.97 411.88 408.22 412.77 407.48 413.68C407.76 413.22 408 412.8 408.03 412.74C408.81 411 409.3 407.18 407.71 405.74C407.441 405.51 407.126 405.34 406.786 405.24C406.446 405.14 406.089 405.112 405.738 405.159C405.387 405.207 405.05 405.327 404.749 405.513C404.448 405.7 404.189 405.947 403.99 406.24C403.1 407.45 403.24 409.31 403.65 410.67C404.369 412.224 405.324 413.657 406.48 414.92L405.64 415.92C404.3 417.62 402.97 419.31 401.64 420.92C401.17 421.49 400.64 422.04 400.19 422.58L400.66 421.76C401.44 420.03 401.93 416.21 400.34 414.76C400.071 414.53 399.756 414.36 399.416 414.26C399.076 414.16 398.719 414.132 398.368 414.179C398.017 414.227 397.68 414.347 397.379 414.533C397.078 414.72 396.819 414.967 396.62 415.26C395.73 416.47 395.87 418.32 396.28 419.69C396.948 421.264 397.867 422.72 399 424L398 425.08L398.88 425.61C399.49 424.98 400.08 424.32 400.67 423.61C401.686 424.976 402.907 426.177 404.29 427.17C404.946 427.571 405.681 427.823 406.445 427.909C407.208 427.996 407.981 427.914 408.71 427.67C409.035 427.53 409.327 427.322 409.566 427.061C409.806 426.8 409.988 426.492 410.1 426.156C410.212 425.82 410.252 425.464 410.218 425.112C410.184 424.759 410.075 424.418 409.9 424.11C408.79 422.28 404.9 422.04 403.1 422.48C402.98 422.48 401.69 422.97 400.98 423.24C401.45 422.68 401.93 422.13 402.39 421.55C403.72 419.89 405.02 418.16 406.32 416.44L407.52 414.88C407.7 415.11 409.84 417.88 411.26 418.58C411.915 418.979 412.648 419.23 413.41 419.316C414.171 419.402 414.943 419.322 415.67 419.08C415.995 418.94 416.287 418.732 416.526 418.471C416.766 418.21 416.948 417.902 417.06 417.566C417.172 417.23 417.213 416.874 417.178 416.522C417.144 416.169 417.035 415.828 416.86 415.52C415.76 413.69 411.92 413.44 410.06 413.88C409.92 413.88 408.06 414.59 407.6 414.78C408.48 413.63 409.37 412.5 410.3 411.41C411.538 409.935 412.874 408.545 414.3 407.25C414.38 407.36 416.59 410.25 418.05 410.98C419.31 411.64 421.1 412.13 422.46 411.48C422.786 411.341 423.079 411.134 423.319 410.873C423.56 410.613 423.743 410.305 423.856 409.969C423.969 409.633 424.01 409.276 423.977 408.923C423.943 408.57 423.835 408.229 423.66 407.92C422.55 406.09 418.71 405.85 416.86 406.28C416.71 406.28 414.71 407.04 414.35 407.2L414.6 406.96C416.061 405.7 417.63 404.573 419.29 403.59C420.2 403.03 421.1 402.59 421.99 402.11C422.35 402.68 423.99 405.29 425.25 406.11C426.51 406.93 428.16 407.58 429.58 407.11C429.918 407.006 430.231 406.831 430.498 406.598C430.765 406.365 430.979 406.078 431.128 405.757C431.277 405.435 431.357 405.086 431.363 404.732C431.368 404.378 431.299 404.026 431.16 403.7C430.26 401.76 426.47 401.1 424.58 401.33C424.47 401.33 423.44 401.59 422.69 401.78C423.1 401.58 423.51 401.37 423.9 401.19C425.37 400.51 426.75 399.98 427.98 399.52L429.92 398.85C431.377 399.768 432.965 400.459 434.63 400.9C435.386 401.037 436.162 401.007 436.905 400.812C437.648 400.617 438.339 400.261 438.93 399.77C439.176 399.52 439.367 399.221 439.491 398.892C439.614 398.563 439.667 398.212 439.647 397.861C439.626 397.511 439.532 397.168 439.37 396.856C439.209 396.544 438.984 396.27 438.71 396.05Z" fill="#263238"/>
<path d="M387.72 433.16L388.87 433.87L389.58 433.35L389.85 433.15L387.72 433.16Z" fill="#263238"/>
<path d="M56.4099 367C56.113 367.193 55.8599 367.446 55.6671 367.743C55.4742 368.04 55.3458 368.374 55.2902 368.724C55.2346 369.074 55.253 369.431 55.3442 369.773C55.4355 370.115 55.5975 370.435 55.8199 370.71C56.5347 371.537 57.534 372.065 58.6199 372.19L60.7699 367.28C59.2599 366.6 57.5199 366.28 56.4099 367Z" fill="#263238"/>
<path d="M66.36 360.55C65.6837 361.056 65.2032 361.78 65 362.6L68.77 360.49C68.3987 360.287 67.9802 360.185 67.5569 360.196C67.1337 360.206 66.7207 360.328 66.36 360.55Z" fill="#263238"/>
<path d="M66.9999 324.81C68.2799 325.89 71.8899 326.87 71.8899 326.87C71.8899 326.87 71.8199 324.29 71.7899 324.13C71.4899 322.25 69.7899 318.79 67.6999 318.46C67.3478 318.413 66.9899 318.442 66.6497 318.544C66.3095 318.646 65.9948 318.819 65.7263 319.051C65.4579 319.284 65.2419 319.57 65.0925 319.893C64.9432 320.215 64.8639 320.565 64.8599 320.92C64.8199 322.42 65.9999 323.89 66.9999 324.81Z" fill="#263238"/>
<path d="M40.67 336.15C40.67 336.15 39.18 334.04 39.07 333.92C37.79 332.52 34.47 330.56 32.53 331.45C32.2125 331.608 31.9318 331.83 31.7062 332.104C31.4806 332.377 31.3152 332.695 31.2209 333.036C31.1265 333.378 31.1052 333.736 31.1585 334.086C31.2118 334.437 31.3384 334.772 31.53 335.07C32.29 336.37 34.04 336.97 35.46 337.14C37.11 337.33 40.67 336.16 40.67 336.15Z" fill="#263238"/>
<path d="M38.79 328.17C38.89 328.77 39 329.41 39.13 330.11C39.39 331.4 39.69 332.85 40.13 334.41C40.5755 336.108 41.1232 337.778 41.77 339.41C42.484 341.23 43.3574 342.984 44.38 344.65V344.71C43.91 344.31 42.54 343.21 42.38 343.14C40.77 342.14 37.05 341.14 35.38 342.48C35.1152 342.716 34.9033 343.006 34.7582 343.33C34.6131 343.654 34.5381 344.005 34.5381 344.36C34.5381 344.715 34.6131 345.066 34.7582 345.39C34.9033 345.714 35.1152 346.004 35.38 346.24C36.46 347.29 38.31 347.41 39.72 347.24C41.31 347 44.22 345.09 44.45 344.94C45.5404 346.608 46.7362 348.204 48.03 349.72C48.78 350.6 49.56 351.47 50.36 352.33L49.5 351.65C47.89 350.65 44.17 349.65 42.5 351C42.2366 351.237 42.0259 351.527 41.8817 351.851C41.7376 352.175 41.6631 352.525 41.6631 352.88C41.6631 353.234 41.7376 353.585 41.8817 353.909C42.0259 354.233 42.2366 354.523 42.5 354.76C43.1106 355.225 43.8154 355.551 44.565 355.715C45.3146 355.879 46.091 355.877 46.84 355.71C48.4796 355.211 50.034 354.466 51.45 353.5C51.76 353.82 52.06 354.15 52.37 354.5C53.86 356.06 55.37 357.61 56.77 359.18C57.27 359.73 57.77 360.29 58.22 360.85L57.47 360.27C55.86 359.27 52.14 358.27 50.47 359.61C50.2066 359.847 49.9959 360.137 49.8517 360.461C49.7076 360.785 49.6331 361.135 49.6331 361.49C49.6331 361.844 49.7076 362.195 49.8517 362.519C49.9959 362.843 50.2066 363.133 50.47 363.37C51.55 364.42 53.41 364.54 54.81 364.37C56.4081 363.892 57.9227 363.171 59.3 362.23C59.77 362.81 60.24 363.4 60.67 364C60.95 364.41 61.25 364.78 61.51 365.21V365.27L61.89 364.41L62.11 364.28L61.46 363.4C60.74 362.45 59.97 361.52 59.17 360.61C60.6523 359.789 62.0011 358.747 63.17 357.52C63.657 356.925 64.0086 356.232 64.2003 355.487C64.392 354.743 64.4192 353.966 64.28 353.21C64.1856 352.869 64.0205 352.551 63.7952 352.278C63.57 352.005 63.2897 351.783 62.9727 351.625C62.6558 351.467 62.3091 351.378 61.9554 351.364C61.6017 351.349 61.2489 351.409 60.92 351.54C58.92 352.38 58.18 356.15 58.36 358.04C58.36 358.16 58.65 359.51 58.82 360.25C58.33 359.7 57.82 359.15 57.35 358.61C55.88 357.06 54.35 355.54 52.83 354.01L51.45 352.61C51.7 352.46 54.7 350.73 55.63 349.42C56.1796 348.836 56.5887 348.134 56.8261 347.368C57.0635 346.602 57.123 345.792 57 345C56.9054 344.659 56.7402 344.341 56.5151 344.068C56.2901 343.795 56.0101 343.571 55.6934 343.413C55.3767 343.255 55.0303 343.165 54.6766 343.149C54.3229 343.133 53.9697 343.191 53.64 343.32C51.64 344.16 50.9 347.93 51.08 349.83C51.08 349.97 51.49 351.91 51.62 352.4C50.62 351.4 49.62 350.32 48.62 349.26C47.3347 347.827 46.1454 346.31 45.06 344.72C45.18 344.65 48.32 342.85 49.27 341.52C49.7568 340.927 50.1083 340.235 50.3 339.493C50.4918 338.75 50.5191 337.974 50.38 337.22C50.2903 336.873 50.1278 336.549 49.9033 336.269C49.6788 335.989 49.3974 335.76 49.0778 335.598C48.7582 335.435 48.4077 335.342 48.0494 335.326C47.6912 335.309 47.3335 335.368 47 335.5C45 336.34 44.26 340.11 44.44 342.01C44.44 342.16 44.89 344.24 44.99 344.61L44.79 344.34C43.7459 342.715 42.8458 341.002 42.1 339.22C41.68 338.22 41.33 337.28 41.01 336.34C42.6158 335.684 44.1102 334.784 45.44 333.67C45.9864 333.134 46.4091 332.484 46.6786 331.767C46.948 331.051 47.0577 330.284 47 329.52C46.9388 329.173 46.8059 328.843 46.6099 328.551C46.4139 328.259 46.159 328.01 45.8616 327.822C45.5642 327.634 45.2308 327.51 44.8827 327.458C44.5346 327.406 44.1795 327.427 43.84 327.52C41.84 328.14 40.62 331.8 40.58 333.71C40.58 333.81 40.68 334.87 40.76 335.64C40.63 335.21 40.48 334.77 40.35 334.36C39.88 332.82 39.55 331.36 39.27 330.09C39.11 329.36 38.98 328.7 38.87 328.09C39.9847 326.774 40.8887 325.293 41.55 323.7C41.793 322.972 41.8732 322.2 41.7851 321.438C41.697 320.676 41.4426 319.943 41.04 319.29C40.8293 319.005 40.5608 318.767 40.252 318.593C39.9433 318.419 39.6012 318.312 39.2482 318.279C38.8953 318.246 38.5393 318.288 38.2036 318.401C37.8679 318.515 37.56 318.699 37.3 318.94C35.77 320.43 36.4 324.22 37.3 325.94C37.36 326 38.77 328.2 38.79 328.17Z" fill="#263238"/>
<path d="M65.1901 335.58C66.6501 336.25 70.1301 336.27 70.4101 336.28C70.3885 338.285 70.5021 340.29 70.7501 342.28C70.8901 343.43 71.0701 344.59 71.2601 345.74C71.0901 345.23 70.9401 344.74 70.9101 344.74C70.1301 343 67.5901 340.11 65.4701 340.35C65.119 340.4 64.7822 340.523 64.4816 340.711C64.1811 340.899 63.9234 341.148 63.7254 341.442C63.5274 341.737 63.3934 342.069 63.3322 342.418C63.271 342.768 63.2839 343.126 63.3701 343.47C63.6901 344.94 65.1701 346.06 66.4701 346.66C68.1106 347.153 69.8174 347.389 71.5301 347.36C71.6101 347.8 71.6801 348.24 71.7601 348.68C72.1401 350.81 72.5301 352.92 72.8501 355.01C72.9601 355.75 73.0401 356.48 73.1301 357.21L72.8301 356.31C72.0401 354.57 69.5001 351.68 67.3801 351.92C67.0335 351.97 66.7012 352.092 66.4043 352.278C66.1074 352.464 65.8525 352.709 65.6558 352.999C65.4592 353.289 65.3251 353.616 65.2621 353.961C65.1991 354.306 65.2087 354.659 65.2901 355C65.6101 356.47 67.0901 357.59 68.3801 358.19C69.4804 358.577 70.6343 358.789 71.8001 358.82L74.1301 357.51L75.9701 356.51L81.0001 351C80.8863 350.958 80.7693 350.924 80.6501 350.9C78.5501 350.52 75.8201 353.23 74.9201 354.9C74.9201 355.01 74.3601 356.29 74.0901 356.99C73.9901 356.27 73.8901 355.55 73.7601 354.82C73.4001 352.72 72.9601 350.61 72.5401 348.49C72.4001 347.85 72.2801 347.2 72.1601 346.55C72.4501 346.55 75.9101 346.78 77.4001 346.21C78.7301 345.7 80.2901 344.68 80.7001 343.21C80.8034 342.873 80.8347 342.518 80.7922 342.168C80.7497 341.818 80.6342 341.481 80.4533 341.178C80.2723 340.876 80.0299 340.615 79.7417 340.412C79.4535 340.209 79.1259 340.069 78.7801 340C76.6801 339.62 73.9601 342.33 73.0601 344C72.9901 344.13 72.2601 346 72.0601 346.45C71.7901 345.02 71.5301 343.6 71.3301 342.19C71.0473 340.286 70.8903 338.365 70.8601 336.44C71.0001 336.44 74.6101 336.68 76.1401 336.1C76.8754 335.87 77.5517 335.483 78.1217 334.965C78.6917 334.447 79.1417 333.81 79.4401 333.1C79.5502 332.763 79.5881 332.407 79.5513 332.055C79.5144 331.702 79.4037 331.362 79.2263 331.055C79.0489 330.748 78.8088 330.482 78.5217 330.275C78.2346 330.067 77.9069 329.922 77.5601 329.85C75.4601 329.46 72.7301 332.18 71.8301 333.85C71.7601 333.98 70.9801 335.96 70.8301 336.33C70.8301 336.22 70.8301 336.1 70.8301 335.99C70.8599 334.06 71.054 332.137 71.4101 330.24C71.6001 329.19 71.8401 328.24 72.0901 327.24C72.7601 327.35 75.8201 327.83 77.2501 327.45C78.6801 327.07 80.2501 326.25 80.8601 324.86C81.0055 324.537 81.0815 324.187 81.0832 323.833C81.0849 323.479 81.0122 323.129 80.8699 322.804C80.7275 322.48 80.5187 322.189 80.2569 321.951C79.9951 321.712 79.6862 321.532 79.3501 321.42C77.3501 320.81 74.3501 323.21 73.2201 324.78C73.1601 324.86 72.6601 325.78 72.3001 326.48C72.4201 326.05 72.5401 325.6 72.6601 325.19C73.1301 323.65 73.6601 322.26 74.1101 321.03C74.3901 320.34 74.6501 319.72 74.8901 319.14C75.6101 318.9 78.4701 317.94 79.5501 316.96C80.6301 315.98 81.6901 314.49 81.5501 312.96C81.5308 312.606 81.4372 312.26 81.2754 311.944C81.1136 311.628 80.8872 311.35 80.6109 311.127C80.3346 310.905 80.0146 310.743 79.6716 310.652C79.3286 310.561 78.9704 310.543 78.6201 310.6C76.5201 311 74.9601 314.52 74.7201 316.41C74.7201 316.58 74.7201 319.17 74.7201 319.16C74.4701 319.72 74.2101 320.31 73.9301 320.97C73.4401 322.19 72.9301 323.57 72.3901 325.11C71.8378 326.766 71.3804 328.452 71.0201 330.16C70.6426 332.085 70.4352 334.039 70.4001 336V336.07C70.2301 335.47 69.6901 333.8 69.6401 333.68C68.8501 331.94 66.3101 329.05 64.1901 329.29C63.8392 329.339 63.5026 329.462 63.2024 329.651C62.9022 329.839 62.6451 330.089 62.4478 330.383C62.2506 330.677 62.1177 331.01 62.0578 331.359C61.9978 331.709 62.0123 332.067 62.1001 332.41C62.4201 333.86 63.9001 335 65.1901 335.58Z" fill="#263238"/>
<path d="M210.22 357.76C209.869 357.81 209.532 357.932 209.232 358.121C208.932 358.309 208.675 358.559 208.478 358.853C208.28 359.147 208.147 359.48 208.088 359.83C208.028 360.179 208.042 360.537 208.13 360.88C208.38 361.606 208.786 362.267 209.32 362.819C209.854 363.37 210.503 363.797 211.22 364.07C212.204 364.424 213.235 364.626 214.28 364.67L215.17 363.61L215.67 362.16C214.88 360.41 212.34 357.52 210.22 357.76Z" fill="#263238"/>
<path d="M199.25 372.87C198.953 373.063 198.7 373.316 198.507 373.613C198.315 373.91 198.186 374.244 198.131 374.594C198.075 374.944 198.093 375.301 198.185 375.643C198.276 375.985 198.438 376.304 198.66 376.58C199.56 377.79 201.38 378.18 202.8 378.18C203.73 378.112 204.644 377.903 205.51 377.56L206.09 374.64L206.03 374.58C204.59 373.33 201.07 371.77 199.25 372.87Z" fill="#263238"/>
<path d="M209.2 366.47C207.57 367.47 207.25 370.69 207.54 372.67L212.33 366.98C211.952 366.54 211.431 366.247 210.858 366.153C210.285 366.06 209.698 366.172 209.2 366.47Z" fill="#263238"/>
<path d="M194.43 359.32C194.74 359.64 195.04 359.97 195.35 360.32C196.84 361.88 198.35 363.43 199.75 365C200.25 365.55 200.75 366.11 201.2 366.67L200.45 366.09C198.84 365.09 195.12 364.09 193.45 365.43C193.187 365.667 192.976 365.957 192.832 366.281C192.688 366.605 192.613 366.956 192.613 367.31C192.613 367.665 192.688 368.015 192.832 368.339C192.976 368.663 193.187 368.953 193.45 369.19C194.53 370.24 196.39 370.36 197.79 370.19C199.388 369.713 200.903 368.991 202.28 368.05C202.75 368.64 203.22 369.22 203.65 369.82C203.93 370.23 204.23 370.6 204.49 371.03L205.28 372.27C205.64 372.89 206.01 373.51 206.36 374.12L207.13 373.21C206.83 372.71 206.52 372.21 206.19 371.68L205.37 370.45C205.11 370.04 204.78 369.63 204.48 369.22C203.76 368.22 202.99 367.34 202.19 366.43C203.672 365.609 205.021 364.567 206.19 363.34C206.677 362.746 207.029 362.052 207.221 361.308C207.412 360.563 207.439 359.786 207.3 359.03C207.211 358.691 207.053 358.374 206.834 358.099C206.616 357.825 206.343 357.599 206.032 357.436C205.722 357.273 205.381 357.177 205.031 357.154C204.681 357.13 204.33 357.18 204 357.3C202 358.14 201.26 361.91 201.44 363.8C201.44 363.92 201.73 365.27 201.9 366.01C201.41 365.46 200.9 364.91 200.43 364.38C198.96 362.83 197.43 361.3 195.91 359.77L194.53 358.37C194.78 358.22 197.78 356.49 198.71 355.18C199.198 354.588 199.549 353.896 199.741 353.153C199.933 352.41 199.96 351.634 199.82 350.88C199.726 350.539 199.56 350.221 199.335 349.948C199.11 349.675 198.83 349.452 198.514 349.293C198.197 349.135 197.851 349.045 197.497 349.029C197.143 349.013 196.79 349.071 196.46 349.2C194.46 350.04 193.72 353.81 193.9 355.71C193.9 355.85 194.31 357.79 194.44 358.28C193.44 357.28 192.44 356.2 191.44 355.14C190.155 353.707 188.966 352.19 187.88 350.6C188 350.53 191.14 348.73 192.09 347.4C192.577 346.807 192.929 346.115 193.12 345.373C193.312 344.63 193.339 343.854 193.2 343.1C193.106 342.759 192.94 342.441 192.715 342.168C192.49 341.895 192.21 341.672 191.894 341.513C191.577 341.355 191.231 341.265 190.877 341.249C190.523 341.233 190.17 341.291 189.84 341.42C187.84 342.26 187.1 346.03 187.28 347.93C187.28 348.08 187.73 350.16 187.83 350.53L187.63 350.26C186.586 348.635 185.686 346.922 184.94 345.14C184.52 344.14 184.17 343.2 183.85 342.26C185.454 341.604 186.948 340.707 188.28 339.6C189.23 338.53 190.14 336.92 189.85 335.44C189.789 335.094 189.656 334.764 189.46 334.471C189.264 334.179 189.009 333.931 188.712 333.742C188.414 333.554 188.081 333.43 187.733 333.378C187.385 333.326 187.03 333.347 186.69 333.44C184.69 334.06 183.47 337.73 183.43 339.63C183.43 339.73 183.53 340.79 183.61 341.56C183.48 341.13 183.33 340.69 183.2 340.28C182.73 338.74 182.4 337.28 182.12 336.01C181.96 335.28 181.83 334.62 181.72 334.01C182.835 332.694 183.739 331.213 184.4 329.62C184.643 328.893 184.723 328.12 184.635 327.358C184.547 326.596 184.293 325.863 183.89 325.21C183.679 324.925 183.411 324.688 183.102 324.513C182.793 324.339 182.451 324.232 182.098 324.199C181.745 324.166 181.389 324.208 181.054 324.322C180.718 324.436 180.41 324.619 180.15 324.86C178.62 326.35 179.25 330.15 180.15 331.86C180.23 332.01 181.64 334.18 181.66 334.15C181.76 334.75 181.87 335.39 182 336.09C182.26 337.38 182.56 338.83 183 340.39C183.446 342.088 183.993 343.758 184.64 345.39C185.356 347.213 186.229 348.969 187.25 350.64C187.254 350.657 187.254 350.674 187.25 350.69C186.78 350.29 185.41 349.19 185.3 349.12C183.69 348.12 179.97 347.12 178.3 348.47C178.037 348.706 177.827 348.996 177.682 349.319C177.538 349.642 177.464 349.991 177.464 350.345C177.464 350.699 177.538 351.049 177.682 351.372C177.827 351.695 178.037 351.984 178.3 352.22C179.38 353.28 181.23 353.39 182.64 353.22C184.23 352.98 187.14 351.07 187.37 350.92C188.461 352.588 189.656 354.185 190.95 355.7C191.7 356.58 192.48 357.45 193.28 358.31L192.42 357.63C190.81 356.63 187.09 355.63 185.42 356.98C185.155 357.217 184.943 357.506 184.798 357.83C184.653 358.154 184.578 358.505 184.578 358.86C184.578 359.215 184.653 359.566 184.798 359.89C184.943 360.214 185.155 360.504 185.42 360.74C186.49 361.79 188.35 361.91 189.75 361.69C191.424 361.148 193.003 360.348 194.43 359.32Z" fill="#263238"/>
<path d="M209.88 330.73C211.16 331.81 214.77 332.79 214.77 332.79C214.77 332.79 214.7 330.21 214.67 330.05C214.37 328.17 212.67 324.71 210.58 324.38C210.228 324.335 209.871 324.365 209.531 324.467C209.192 324.57 208.878 324.743 208.61 324.975C208.342 325.207 208.126 325.493 207.976 325.815C207.826 326.136 207.745 326.485 207.74 326.84C207.66 328.34 208.79 329.81 209.88 330.73Z" fill="#263238"/>
<path d="M183.51 342.08C183.51 342.08 182.02 339.96 181.91 339.84C180.63 338.44 177.31 336.48 175.37 337.37C175.052 337.528 174.772 337.75 174.546 338.024C174.32 338.297 174.155 338.615 174.061 338.957C173.966 339.298 173.945 339.656 173.998 340.006C174.052 340.357 174.178 340.692 174.37 340.99C175.13 342.29 176.88 342.89 178.3 343.06C180 343.25 183.51 342.08 183.51 342.08Z" fill="#263238"/>
<path d="M208 341.5C209.46 342.17 212.94 342.2 213.22 342.2C213.201 344.189 213.314 346.176 213.56 348.15C213.7 349.3 213.88 350.46 214.07 351.62C213.9 351.1 213.75 350.62 213.72 350.62C212.94 348.88 210.4 345.99 208.28 346.23C207.929 346.28 207.592 346.402 207.292 346.591C206.991 346.779 206.733 347.028 206.535 347.322C206.337 347.617 206.203 347.949 206.142 348.298C206.081 348.648 206.094 349.006 206.18 349.35C206.5 350.82 207.98 351.94 209.28 352.54C210.921 353.033 212.627 353.269 214.34 353.24C214.42 353.68 214.49 354.12 214.57 354.56C214.95 356.69 215.34 358.81 215.66 360.89C215.66 361.2 215.73 361.51 215.77 361.82L216.4 360.02C216.06 358.16 215.68 356.29 215.31 354.42C215.18 353.78 215.05 353.13 214.93 352.49C216.294 352.572 217.662 352.542 219.02 352.4L220.78 347.31L222.17 346.1C221.987 346.01 221.791 345.946 221.59 345.91C219.49 345.53 216.77 348.24 215.87 349.91C215.8 350.04 215.07 351.91 214.87 352.36C214.6 350.93 214.34 349.51 214.14 348.1C213.857 346.196 213.7 344.275 213.67 342.35C213.81 342.35 217.42 342.59 218.95 342.01C219.685 341.78 220.362 341.393 220.932 340.875C221.502 340.357 221.952 339.72 222.25 339.01C222.36 338.673 222.398 338.317 222.361 337.965C222.324 337.612 222.214 337.272 222.036 336.965C221.859 336.658 221.619 336.392 221.332 336.185C221.045 335.977 220.717 335.832 220.37 335.76C218.27 335.37 215.54 338.09 214.64 339.76C214.57 339.89 213.79 341.87 213.64 342.24C213.64 342.13 213.64 342.02 213.64 341.9C213.67 339.97 213.864 338.047 214.22 336.15C214.41 335.15 214.65 334.15 214.9 333.15C215.57 333.26 218.63 333.74 220.06 333.36C221.49 332.98 223.06 332.16 223.67 330.77C223.815 330.447 223.891 330.097 223.893 329.743C223.895 329.389 223.822 329.039 223.68 328.714C223.538 328.39 223.329 328.099 223.067 327.861C222.805 327.622 222.496 327.441 222.16 327.33C220.16 326.72 217.16 329.12 216.03 330.69C215.97 330.77 215.47 331.69 215.11 332.39C215.23 331.96 215.35 331.51 215.47 331.1C215.94 329.56 216.47 328.17 216.92 326.94C217.2 326.25 217.46 325.63 217.7 325.05C218.42 324.81 221.28 323.85 222.36 322.87C223.44 321.89 224.5 320.4 224.36 318.87C224.341 318.516 224.247 318.169 224.085 317.854C223.924 317.538 223.697 317.26 223.421 317.037C223.145 316.815 222.825 316.653 222.482 316.562C222.139 316.471 221.78 316.453 221.43 316.51C219.33 316.91 217.77 320.43 217.54 322.32C217.54 322.49 217.49 325.08 217.54 325.07C217.29 325.63 217.03 326.22 216.76 326.88C216.26 328.1 215.71 329.48 215.21 331.02C214.658 332.676 214.2 334.362 213.84 336.07C213.434 337.985 213.196 339.933 213.13 341.89V342C212.96 341.4 212.42 339.73 212.37 339.61C211.58 337.87 209.04 334.98 206.92 335.22C206.569 335.269 206.233 335.392 205.932 335.581C205.632 335.769 205.375 336.018 205.178 336.313C204.981 336.607 204.848 336.94 204.788 337.289C204.728 337.639 204.742 337.997 204.83 338.34C205.26 339.78 206.74 340.9 208 341.5Z" fill="#263238"/>
<path d="M359.64 254.16L355.65 249.21L359.24 246.38L361.65 249.39L360.83 251.3L361.51 252.82L360.1 253.83" fill="white"/>
<path d="M359.64 254.16L355.65 249.21L359.24 246.38L361.65 249.39L360.83 251.3L361.51 252.82L360.1 253.83" stroke="#263238" stroke-linecap="round" stroke-linejoin="round"/>
<path d="M392 262.75C392 262.75 389.27 260.31 388.25 260.47C387.23 260.63 373.85 262.87 373.85 262.87L361.54 252.82L359.66 254.16L371.44 268.94L384.24 268.14L381.49 282.14L369.84 291L388.84 302.35L392.67 290.27L407.8 275.37L401.92 268L392 262.75Z" fill="black" stroke="#263238" stroke-linecap="round" stroke-linejoin="round"/>
<path d="M395.9 259.52L393.75 264.04L392.96 263.32L391.45 274.31L401.93 267.96L400.88 266.3L401.12 262.87L395.9 259.52Z" fill="white" stroke="#263238" stroke-linecap="round" stroke-linejoin="round"/>
<path d="M391.45 274.31L397.58 270.59L392.46 266.99L391.45 274.31Z" fill="white" stroke="#263238" stroke-linecap="round" stroke-linejoin="round"/>
<path d="M408 248.75C408 248.75 412.63 243.33 417.34 246.75C422.05 250.17 420.75 253.51 424.11 251.68C427.47 249.85 433.78 245.2 437.58 251.12C441.38 257.04 438.45 263.24 436.06 264.66C433.67 266.08 434.3 263.37 434.35 262.06C434.4 260.75 430.48 259.06 429.61 261.76C428.74 264.46 424.17 268.62 418.37 268.23C412.57 267.84 411.45 260.71 411.58 256.52C411.572 255.262 411.236 254.029 410.607 252.94C409.978 251.851 409.076 250.945 407.99 250.31L408 248.75Z" fill="#263238" stroke="#263238" stroke-linecap="round" stroke-linejoin="round"/>
<path d="M396.9 247.63C396.9 247.63 394 254.09 394.6 257.9C395.2 261.71 394.88 264.64 396.82 265.38C398.76 266.12 405.19 262.23 406.61 259.66C408.03 257.09 410.06 253.38 409.5 249.82C408.94 246.26 402.12 241.08 396.9 247.63Z" fill="white" stroke="#263238" stroke-linecap="round" stroke-linejoin="round"/>
<path d="M398 254.41C397.85 254.91 397.53 255.25 397.28 255.17C397.03 255.09 396.95 254.63 397.1 254.17C397.25 253.71 397.57 253.33 397.82 253.41C398.07 253.49 398.11 253.91 398 254.41Z" fill="#263238"/>
<path d="M402.62 256.33C402.47 256.83 402.14 257.18 401.89 257.1C401.64 257.02 401.56 256.56 401.71 256.1C401.86 255.64 402.19 255.26 402.44 255.33C402.69 255.4 402.77 255.83 402.62 256.33Z" fill="#263238"/>
<path d="M399.17 255.24C399.17 255.24 399.47 255.46 399.05 256.24C398.63 257.02 397.62 256.74 397.73 257.41C397.84 258.08 399.11 258.41 399.11 258.41" stroke="#263238" stroke-linecap="round" stroke-linejoin="round"/>
<path d="M396.84 259.57C396.84 259.57 398.45 261.09 399.89 260.72" stroke="#263238" stroke-linecap="round" stroke-linejoin="round"/>
<path d="M404.14 254.73L401.15 253.97" stroke="#263238" stroke-linecap="round" stroke-linejoin="round"/>
<path d="M398.79 252.84L397.36 251.56" stroke="#263238" stroke-linecap="round" stroke-linejoin="round"/>
<path d="M396.9 247.63C396.9 247.63 396.47 248.63 395.97 250C397.66 249.12 400.57 248.13 403.23 249.77C405.89 251.41 407.23 255.18 407.77 257.49C408.9 255.2 409.91 252.49 409.5 249.82C408.94 246.26 402.12 241.08 396.9 247.63Z" fill="#263238" stroke="#263238" stroke-linecap="round" stroke-linejoin="round"/>
<path d="M407.08 257.39C407.08 257.39 409.16 255.48 409.08 257.22C409 258.96 406.61 259.99 406.08 260.07C405.55 260.15 405.59 259.48 405.59 259.48" fill="white"/>
<path d="M407.08 257.39C407.08 257.39 409.16 255.48 409.08 257.22C409 258.96 406.61 259.99 406.08 260.07C405.55 260.15 405.59 259.48 405.59 259.48" stroke="#263238" stroke-linecap="round" stroke-linejoin="round"/>
<path d="M407.79 275.38L404.59 298.19C404.52 298.676 404.281 299.121 403.915 299.448C403.55 299.776 403.08 299.964 402.59 299.98H401.9C401.368 300 400.848 299.815 400.448 299.464C400.048 299.112 399.798 298.62 399.75 298.09L398.5 284.37L407.79 275.38Z" fill="black" stroke="#263238" stroke-linecap="round" stroke-linejoin="round"/>
<path d="M402 295.06L391.73 286L389.43 287.93L399.29 299.34C399.506 299.573 399.772 299.754 400.069 299.869C400.365 299.983 400.684 300.028 401 300H401.81C402.121 299.987 402.424 299.905 402.699 299.76C402.974 299.615 403.213 299.411 403.399 299.162C403.585 298.913 403.713 298.625 403.773 298.32C403.834 298.016 403.826 297.701 403.75 297.4" fill="black"/>
<path d="M402 295.06L391.73 286L389.43 287.93L399.29 299.34C399.506 299.573 399.772 299.754 400.069 299.869C400.365 299.983 400.684 300.028 401 300H401.81C402.121 299.987 402.424 299.905 402.699 299.76C402.974 299.615 403.213 299.411 403.399 299.162C403.585 298.913 403.713 298.625 403.773 298.32C403.834 298.016 403.826 297.701 403.75 297.4V297.4" stroke="#263238" stroke-linecap="round" stroke-linejoin="round"/>
<path d="M391.73 285.99L389.32 282.14L383.9 281.54L383.93 284.77L386.53 286.94L388.18 287.17L389.43 287.92L391.73 285.99Z" fill="white" stroke="#263238" stroke-linecap="round" stroke-linejoin="round"/>
<path d="M362.71 298C362.71 298 351.39 312.73 352.01 315.17C352.63 317.61 369.17 343.44 369.17 343.44L371.47 341.92L362.38 313.54L380.65 306.27L362.71 298Z" fill="white" stroke="#263238" stroke-linecap="round" stroke-linejoin="round"/>
<path d="M371.83 303.46L373.17 309.35L379.22 307.03L371.83 303.46Z" fill="#263238" stroke="#263238" stroke-miterlimit="10"/>
<path d="M369.17 343.39L366.17 348.39C366.17 348.39 363.78 351.97 364.48 352.19C366.01 352.68 369.97 350.08 371.1 349.28C372.23 348.48 373.44 347.95 374.19 347.42C374.94 346.89 376.44 346.58 374.39 344.68C373.7 344.05 371.51 341.87 371.51 341.87L369.17 343.39Z" fill="white" stroke="#263238" stroke-linecap="round" stroke-linejoin="round"/>
<path d="M387.86 293.3C382.764 291.268 377.552 289.541 372.25 288.13C363.08 285.64 356.3 283.71 356.43 286C356.56 288.29 373.24 325.18 373.24 325.18L376.1 324.27L371.74 303.93C371.74 303.93 378.74 308.83 383.91 306.4C389.08 303.97 391.05 297.4 390.69 295.16" fill="#263238"/>
<path d="M387.86 293.3C382.764 291.268 377.552 289.541 372.25 288.13C363.08 285.64 356.3 283.71 356.43 286C356.56 288.29 373.24 325.18 373.24 325.18L376.1 324.27L371.74 303.93C371.74 303.93 378.74 308.83 383.91 306.4C389.08 303.97 391.05 297.4 390.69 295.16" stroke="#263238" stroke-linecap="round" stroke-linejoin="round"/>
<path d="M370.3 287.6C362.14 285.39 356.3 283.87 356.43 286C356.56 288.29 373.24 325.18 373.24 325.18L376.1 324.27L371.74 303.93C373.23 300.3 371.65 292.67 370.3 287.6Z" fill="white" stroke="#263238" stroke-linecap="round" stroke-linejoin="round"/>
<path d="M371.74 303.93L364.55 293.5" stroke="#263238" stroke-linecap="round" stroke-linejoin="round"/>
<path d="M373.24 325.18L370.56 330.23C370.56 330.23 365.15 335.47 366.35 335.74C367.55 336.01 377.72 331.64 378.48 330.6C379.24 329.56 376.1 324.27 376.1 324.27L373.24 325.18Z" fill="white" stroke="#263238" stroke-linecap="round" stroke-linejoin="round"/>
<path d="M360.8 251.72L386.02 281.75" stroke="#263238" stroke-miterlimit="10"/>
<path d="M283.2 158.72L357.21 247.28" stroke="#263238" stroke-miterlimit="10"/>
<path d="M388.18 287.16V433.16" stroke="#263238" stroke-miterlimit="10"/>
<path d="M147.33 246.59C147.33 246.59 152.65 277.72 146.87 287.59C141.09 297.46 126.59 290.36 126.59 290.36V432.16" stroke="#263238" stroke-miterlimit="10"/>
<path d="M115.39 258.24C115.39 258.24 120.1 257.7 120.46 258.79C120.658 259.683 120.658 260.607 120.46 261.5C120.46 261.5 123.17 264.4 123.17 266.39C123.17 268.38 120.28 269.29 120.28 269.29L119.74 273.99L112.5 274.35L111.59 268.74C111.59 268.74 108.87 258.06 115.39 258.24Z" fill="white" stroke="#263238" stroke-linecap="round" stroke-linejoin="round"/>
<path d="M116.84 266L114.84 263.1C115.511 262.009 115.884 260.761 115.92 259.48C115.92 257.48 115.74 253.87 111.58 253.87C107.42 253.87 104.7 257.13 103.8 264.19C102.9 271.25 107.05 274.69 113.03 273.42C119.01 272.15 116.84 266 116.84 266Z" fill="#263238" stroke="#263238" stroke-linecap="round" stroke-linejoin="round"/>
<path d="M116.66 264.76C116.66 264.76 113.58 264.4 113.76 266.76C113.808 267.267 114.008 267.748 114.334 268.139C114.661 268.53 115.098 268.813 115.589 268.951C116.079 269.089 116.6 269.074 117.082 268.91C117.565 268.745 117.986 268.439 118.29 268.03" fill="white"/>
<path d="M116.66 264.76C116.66 264.76 113.58 264.4 113.76 266.76C113.808 267.267 114.008 267.748 114.334 268.139C114.661 268.53 115.098 268.813 115.589 268.951C116.079 269.089 116.6 269.074 117.082 268.91C117.565 268.745 117.986 268.439 118.29 268.03" stroke="#263238" stroke-linecap="round" stroke-linejoin="round"/>
<path d="M112.37 276.12L105.7 278C105.7 278 105.18 279.3 104.4 281C103.35 283.31 100.46 288 100.46 288L87.1101 291.81L82.8201 305.64L81.8701 311.36L89.4901 307.54L89.9701 294.2L101.97 292.35L107.12 279.35L112.37 276.12Z" fill="#263238" stroke="#263238" stroke-linecap="round" stroke-linejoin="round"/>
<path d="M123 274.17C123 274.17 117.75 271.82 113.77 272.36C109.79 272.9 110.15 274.9 110.15 274.9L110.33 277.61C110.33 277.61 117 275.62 123 274.17Z" fill="black" stroke="#263238" stroke-linecap="round" stroke-linejoin="round"/>
<path d="M105.07 287.39L108.82 304.73C108.849 304.938 108.927 305.136 109.047 305.308C109.168 305.48 109.327 305.621 109.513 305.719C109.699 305.816 109.905 305.868 110.115 305.87C110.325 305.872 110.533 305.824 110.72 305.73L119.19 301.5L105.07 287.39Z" fill="black" stroke="#263238" stroke-linecap="round" stroke-linejoin="round"/>
<path d="M114.49 296.62L112.5 300.6" stroke="#263238" stroke-linecap="round" stroke-linejoin="round"/>
<path d="M132.04 314.18L142.97 332.26L141.52 356.71L146.77 356.53L152.02 327.37L144.35 306.94L132.04 314.18Z" fill="#263238" stroke="#263238" stroke-linecap="round" stroke-linejoin="round"/>
<path d="M110.32 277.61C110.32 277.61 105.07 286.66 105.07 287.39C105.07 288.12 125.53 307.84 125.53 307.84L141.1 297.52L131.32 280.52L145.4 266.7L146.48 248.05L143.95 247.87L139.42 261.45L124.42 273.27L110.32 277.61Z" fill="black" stroke="#263238" stroke-linecap="round" stroke-linejoin="round"/>
<path d="M143.95 247.87L144.13 243.71L148.65 240.27L149.02 241.17V243.89L149.2 246.06L146.48 248.05L143.95 247.87Z" fill="white" stroke="#263238" stroke-linecap="round" stroke-linejoin="round"/>
<path d="M125.53 307.84C125.53 307.84 128.97 313.63 131.53 315.44C134.09 317.25 142 311.64 144 310C146 308.36 153.6 298.6 153.6 298.6L160.66 328.68L165.01 326.87C165.01 326.87 162.46 286.87 161.2 285.75C159.94 284.63 140.38 297.33 140.38 297.33L125.53 307.84Z" fill="#263238" stroke="#263238" stroke-linecap="round" stroke-linejoin="round"/>
<path d="M165 326.88H171.15C172.24 326.88 174.95 325.25 175.15 326.52C175.35 327.79 169.9 331.22 167.72 332.31C165.627 333.123 163.44 333.67 161.21 333.94L160.66 328.69L165 326.88Z" fill="white" stroke="#263238" stroke-linecap="round" stroke-linejoin="round"/>
<path d="M146.77 356.53L149.85 362.14C149.85 362.14 153.65 363.77 153.65 364.5C153.65 365.23 147.5 364.86 146.95 364.86C146.4 364.86 140.26 358.86 140.26 358.86L141.52 356.68L146.77 356.53Z" fill="white" stroke="#263238" stroke-linecap="round" stroke-linejoin="round"/>
<path d="M148.65 240.27L207.74 159.25" stroke="#263238" stroke-miterlimit="10"/>
<path d="M1 433.2H475" stroke="#263238" stroke-linecap="round" stroke-linejoin="round"/>
</svg>
