<svg width="282" height="224" viewBox="0 0 282 224" fill="none" xmlns="http://www.w3.org/2000/svg">
<path d="M257.591 141.48C257.591 141.48 251.512 138.106 251.061 145.748C250.611 153.39 249.483 203.102 249.483 203.102" stroke="#263238" stroke-width="2" stroke-linecap="round" stroke-linejoin="round"/>
<path d="M247.886 146.425C247.886 146.425 252.832 157.446 250.592 202.425" stroke="#263238" stroke-width="2" stroke-linecap="round" stroke-linejoin="round"/>
<path d="M252.778 143.016C252.778 143.016 250.448 144.498 249.127 142.804C247.806 141.11 250.022 137.978 248.069 136.644C246.115 135.31 242.736 137.345 242.736 137.345C242.736 137.345 245.333 138.106 245.249 139.524C245.165 140.942 243.913 141.5 243.765 140.858C243.617 140.215 242.355 137.118 240.243 138.417C239.635 138.777 239.107 139.255 238.69 139.824C238.272 140.393 237.974 141.04 237.814 141.727C237.814 141.727 242.726 141.203 243.023 143.051C243.32 144.899 241.01 142.73 238.982 142.611C236.953 142.493 235.103 142.789 235.237 144.014C235.282 145.098 235.217 146.184 235.044 147.255C236.153 146.332 237.558 145.837 239.001 145.862C241.232 145.99 241.148 147.408 239.12 147.29C237.092 147.171 235.351 149.098 235.351 149.098C235.351 149.098 237.201 152.254 239.55 153.815C241.9 155.376 242.746 154.803 243.013 153.613C243.28 152.422 242.657 149.325 244.077 149.409C245.496 149.493 241.727 154.759 243.537 155.07C245.348 155.381 246.807 154.853 247.282 153.662L247.777 152.472C247.777 152.472 247.143 149.389 247.421 148.184C247.698 146.978 248.029 148.218 248.35 149.666C248.672 151.113 248.875 154.576 249.493 154.408C250.111 154.24 252.095 151.716 252.56 150.728C253.025 149.74 249.948 146.712 249.983 146.104C250.018 145.496 252.392 146.652 252.763 147.285C253.032 147.765 253.274 148.26 253.49 148.767C253.49 148.767 254.974 147.838 254.934 144.992C254.895 142.147 252.778 143.016 252.778 143.016Z" fill="white"/>
<path opacity="0.3" d="M252.778 143.016C252.778 143.016 250.448 144.498 249.127 142.804C247.806 141.11 250.022 137.978 248.069 136.644C246.115 135.31 242.736 137.345 242.736 137.345C242.736 137.345 245.333 138.106 245.249 139.524C245.165 140.942 243.913 141.5 243.765 140.858C243.617 140.215 242.355 137.118 240.243 138.417C239.635 138.777 239.107 139.255 238.69 139.824C238.272 140.393 237.974 141.04 237.814 141.727C237.814 141.727 242.726 141.203 243.023 143.051C243.32 144.899 241.01 142.73 238.982 142.611C236.953 142.493 235.103 142.789 235.237 144.014C235.282 145.098 235.217 146.184 235.044 147.255C236.153 146.332 237.558 145.837 239.001 145.862C241.232 145.99 241.148 147.408 239.12 147.29C237.092 147.171 235.351 149.098 235.351 149.098C235.351 149.098 237.201 152.254 239.55 153.815C241.9 155.376 242.746 154.803 243.013 153.613C243.28 152.422 242.657 149.325 244.077 149.409C245.496 149.493 241.727 154.759 243.537 155.07C245.348 155.381 246.807 154.853 247.282 153.662L247.777 152.472C247.777 152.472 247.143 149.389 247.421 148.184C247.698 146.978 248.029 148.218 248.35 149.666C248.672 151.113 248.875 154.576 249.493 154.408C250.111 154.24 252.095 151.716 252.56 150.728C253.025 149.74 249.948 146.712 249.983 146.104C250.018 145.496 252.392 146.652 252.763 147.285C253.032 147.765 253.274 148.26 253.49 148.767C253.49 148.767 254.974 147.838 254.934 144.992C254.895 142.147 252.778 143.016 252.778 143.016Z" fill="#263238"/>
<path d="M240.985 149.69C242.503 147.818 244.734 145.284 246.609 144.074" stroke="#263238" stroke-linecap="round" stroke-linejoin="round"/>
<path d="M239.224 151.973C239.224 151.973 239.615 151.429 240.248 150.619" stroke="#263238" stroke-linecap="round" stroke-linejoin="round"/>
<path d="M247.599 144.538C247.599 144.538 249.854 147.719 250.27 150.995" stroke="#263238" stroke-linecap="round" stroke-linejoin="round"/>
<path d="M245.046 146.42C245.046 146.42 245.68 146.055 245.442 150.1" stroke="#263238" stroke-linecap="round" stroke-linejoin="round"/>
<path d="M246.693 142.646C246.693 142.646 247.979 141.5 247.302 139.228" stroke="#263238" stroke-linecap="round" stroke-linejoin="round"/>
<path d="M244.952 144.587L244.032 142.908" stroke="#263238" stroke-linecap="round" stroke-linejoin="round"/>
<path d="M243.018 146.302C243.018 146.302 240.1 144.098 238.274 143.99" stroke="#263238" stroke-linecap="round" stroke-linejoin="round"/>
<path d="M261.068 137.014C261.068 137.014 260.974 140.354 258.363 140.517C255.751 140.68 254.138 136.338 251.467 137.38C248.796 138.422 248.539 143.189 248.539 143.189C248.539 143.189 251.071 141.11 252.436 142.162C253.802 143.214 253.485 144.829 252.748 144.573C252.011 144.316 248.039 143.431 247.905 146.425C247.85 147.278 247.968 148.133 248.253 148.939C248.538 149.744 248.983 150.484 249.562 151.113C249.562 151.113 252.387 145.847 254.445 146.805C256.503 147.764 252.748 148.599 251.244 150.545C249.741 152.491 248.771 154.541 250.102 155.248C251.219 155.942 252.263 156.746 253.218 157.649C253.218 157.649 252.862 154.892 254.514 152.753C256.166 150.614 257.527 151.661 256.028 153.608C254.529 155.554 255.271 158.607 255.271 158.607C255.271 158.607 259.693 158.913 262.859 157.619C266.025 156.325 266.045 155.105 265.026 154.008C264.007 152.911 260.485 151.444 261.533 150.081C262.582 148.717 265.293 156.078 266.841 154.477C268.39 152.877 268.85 151.064 267.984 149.774L267.113 148.485C267.113 148.485 263.591 147.003 262.572 145.921C261.553 144.839 263.022 145.333 264.689 145.995C266.356 146.657 269.963 148.816 270.22 148.085C270.477 147.354 269.295 143.639 268.622 142.513C267.949 141.386 262.815 142.384 262.231 141.935C261.647 141.485 264.422 139.899 265.308 139.959C266.193 140.018 267.286 140.23 267.286 140.23C267.286 140.23 267.366 138.121 264.487 136.214C261.608 134.307 261.068 137.014 261.068 137.014Z" fill="white"/>
<path opacity="0.2" d="M261.068 137.014C261.068 137.014 260.974 140.354 258.363 140.517C255.751 140.68 254.138 136.338 251.467 137.38C248.796 138.422 248.539 143.189 248.539 143.189C248.539 143.189 251.071 141.11 252.436 142.162C253.802 143.214 253.485 144.829 252.748 144.573C252.011 144.316 248.039 143.431 247.905 146.425C247.85 147.278 247.968 148.133 248.253 148.939C248.538 149.744 248.983 150.484 249.562 151.113C249.562 151.113 252.387 145.847 254.445 146.805C256.503 147.764 252.748 148.599 251.244 150.545C249.741 152.491 248.771 154.541 250.102 155.248C251.219 155.942 252.263 156.746 253.218 157.649C253.218 157.649 252.862 154.892 254.514 152.753C256.166 150.614 257.527 151.661 256.028 153.608C254.529 155.554 255.271 158.607 255.271 158.607C255.271 158.607 259.693 158.913 262.859 157.619C266.025 156.325 266.045 155.105 265.026 154.008C264.007 152.911 260.485 151.444 261.533 150.081C262.582 148.717 265.293 156.078 266.841 154.477C268.39 152.877 268.85 151.064 267.984 149.774L267.113 148.485C267.113 148.485 263.591 147.003 262.572 145.921C261.553 144.839 263.022 145.333 264.689 145.995C266.356 146.657 269.963 148.816 270.22 148.085C270.477 147.354 269.295 143.639 268.622 142.513C267.949 141.386 262.815 142.384 262.231 141.935C261.647 141.485 264.422 139.899 265.308 139.959C266.193 140.018 267.286 140.23 267.286 140.23C267.286 140.23 267.366 138.121 264.487 136.214C261.608 134.307 261.068 137.014 261.068 137.014Z" fill="#263238"/>
<path d="M259.718 153.356C258.877 150.56 257.858 146.598 257.927 143.901" stroke="#263238" stroke-linecap="round" stroke-linejoin="round"/>
<path d="M260.806 156.666C260.806 156.666 260.529 155.91 260.148 154.724" stroke="#263238" stroke-linecap="round" stroke-linejoin="round"/>
<path d="M259.065 143.229C259.065 143.229 263.789 143.145 267.356 144.958" stroke="#263238" stroke-linecap="round" stroke-linejoin="round"/>
<path d="M259.213 147.062C259.213 147.062 259.273 146.183 263.171 149.182" stroke="#263238" stroke-linecap="round" stroke-linejoin="round"/>
<path d="M256.562 142.853C256.562 142.853 256.295 140.784 253.55 139.914" stroke="#263238" stroke-linecap="round" stroke-linejoin="round"/>
<path d="M257.309 145.911L254.999 145.684" stroke="#263238" stroke-linecap="round" stroke-linejoin="round"/>
<path d="M257.71 149.009C257.71 149.009 253.51 150.431 252.16 152.18" stroke="#263238" stroke-linecap="round" stroke-linejoin="round"/>
<path d="M233.045 159.244C233.045 159.244 246.332 168.018 246.105 201.975" stroke="#263238" stroke-width="2" stroke-linecap="round" stroke-linejoin="round"/>
<path d="M249.429 156.928C249.429 156.928 249.003 160.771 245.966 160.717C242.929 160.662 241.484 155.49 238.309 156.443C235.133 157.397 234.376 162.865 234.376 162.865C234.376 162.865 237.497 160.707 238.977 162.045C240.456 163.384 239.931 165.222 239.105 164.856C238.279 164.491 233.783 163.098 233.342 166.541C233.199 167.521 233.257 168.52 233.512 169.477C233.767 170.434 234.214 171.329 234.826 172.108C234.826 172.108 238.586 166.294 240.866 167.593C243.147 168.892 238.739 169.505 236.82 171.609C234.9 173.714 233.599 175.991 235.054 176.93C236.28 177.833 237.41 178.859 238.427 179.992C238.427 179.992 238.274 176.776 240.406 174.465C242.538 172.153 243.987 173.477 242.073 175.591C240.159 177.705 240.728 181.292 240.728 181.292C240.728 181.292 245.808 182.062 249.582 180.877C253.356 179.691 253.49 178.278 252.417 176.925C251.343 175.571 247.42 173.536 248.761 172.064C250.102 170.592 252.53 179.335 254.469 177.636C256.409 175.937 257.111 173.887 256.23 172.316L255.305 170.745C255.305 170.745 251.383 168.714 250.309 167.356C249.236 165.997 250.883 166.724 252.743 167.642C254.603 168.561 258.565 171.397 258.926 170.572C259.288 169.747 258.273 165.37 257.625 163.992C256.977 162.614 250.938 163.3 250.304 162.727C249.671 162.154 253.03 160.583 254.044 160.751C254.799 160.877 255.547 161.042 256.285 161.245C256.285 161.245 256.572 158.815 253.431 156.345C250.29 153.875 249.429 156.928 249.429 156.928Z" fill="white"/>
<path opacity="0.3" d="M249.429 156.928C249.429 156.928 249.003 160.771 245.966 160.717C242.929 160.662 241.484 155.49 238.309 156.443C235.133 157.397 234.376 162.865 234.376 162.865C234.376 162.865 237.497 160.707 238.977 162.045C240.456 163.384 239.931 165.222 239.105 164.856C238.279 164.491 233.783 163.098 233.342 166.541C233.199 167.521 233.257 168.52 233.512 169.477C233.767 170.434 234.214 171.329 234.826 172.108C234.826 172.108 238.586 166.294 240.866 167.593C243.147 168.892 238.739 169.505 236.82 171.609C234.9 173.714 233.599 175.991 235.054 176.93C236.28 177.833 237.41 178.859 238.427 179.992C238.427 179.992 238.274 176.776 240.406 174.465C242.538 172.153 243.987 173.477 242.073 175.591C240.159 177.705 240.728 181.292 240.728 181.292C240.728 181.292 245.808 182.062 249.582 180.877C253.356 179.691 253.49 178.278 252.417 176.925C251.343 175.571 247.42 173.536 248.761 172.064C250.102 170.592 252.53 179.335 254.469 177.636C256.409 175.937 257.111 173.887 256.23 172.316L255.305 170.745C255.305 170.745 251.383 168.714 250.309 167.356C249.236 165.997 250.883 166.724 252.743 167.642C254.603 168.561 258.565 171.397 258.926 170.572C259.288 169.747 258.273 165.37 257.625 163.992C256.977 162.614 250.938 163.3 250.304 162.727C249.671 162.154 253.03 160.583 254.044 160.751C254.799 160.877 255.547 161.042 256.285 161.245C256.285 161.245 256.572 158.815 253.431 156.345C250.29 153.875 249.429 156.928 249.429 156.928Z" fill="#263238"/>
<path d="M246.332 175.655C245.62 172.355 244.824 167.687 245.15 164.58" stroke="#263238" stroke-linecap="round" stroke-linejoin="round"/>
<path d="M247.272 179.577C247.272 179.577 247.025 178.678 246.693 177.275" stroke="#263238" stroke-linecap="round" stroke-linejoin="round"/>
<path d="M246.53 163.888C246.53 163.888 251.972 164.239 255.929 166.669" stroke="#263238" stroke-linecap="round" stroke-linejoin="round"/>
<path d="M246.337 168.334C246.337 168.334 246.491 167.346 250.705 171.15" stroke="#263238" stroke-linecap="round" stroke-linejoin="round"/>
<path d="M243.676 163.241C243.676 163.241 243.562 160.83 240.48 159.565" stroke="#263238" stroke-linecap="round" stroke-linejoin="round"/>
<path d="M244.25 166.837L241.608 166.358" stroke="#263238" stroke-linecap="round" stroke-linejoin="round"/>
<path d="M244.423 170.453C244.423 170.453 239.442 171.693 237.715 173.585" stroke="#263238" stroke-linecap="round" stroke-linejoin="round"/>
<path d="M238.225 186.009C238.225 186.009 246.782 192.53 247.683 202.203L245.907 169.816" stroke="#263238" stroke-width="2" stroke-linecap="round" stroke-linejoin="round"/>
<path d="M258.941 181.287C247.683 179.261 247.683 202.203 247.683 202.203" stroke="#263238" stroke-width="2" stroke-linecap="round" stroke-linejoin="round"/>
<path d="M249.033 201.975C249.033 201.975 242.504 154.522 261.4 154.522" stroke="#263238" stroke-width="2" stroke-linecap="round" stroke-linejoin="round"/>
<path d="M254.653 179.918C253.114 178.194 249.844 178.194 247.925 182.611C246.006 187.027 247.732 186.256 247.732 186.256C247.732 186.256 251.383 185.105 253.668 184.335C255.954 183.564 259.05 181.647 259.243 182.803C259.436 183.959 257.705 185.105 255.588 185.491C253.47 185.876 247.9 187.407 248.474 188.563C249.048 189.719 250.398 193.167 250.398 193.167C252.042 191.776 253.775 190.493 255.588 189.329C258.091 187.793 259.629 188.371 258.283 190.095C256.938 191.819 253.089 193.745 253.861 196.047C254.633 198.349 259.263 201.234 259.263 201.234C259.263 201.234 259.837 196.433 261.187 194.896C262.538 193.36 262.533 195.089 262.147 197.776C261.954 198.921 261.825 200.075 261.761 201.234L267.143 203.151C268.023 201.813 268.986 200.531 270.027 199.313L271.016 198.354C271.016 198.354 266.787 194.704 266.594 192.426C266.401 190.149 269.478 192.426 270.437 192.812C271.397 193.197 272.935 195.879 272.935 195.879C272.935 195.879 273.9 191.468 274.093 189.951L274.286 188.415C274.286 188.415 270.244 186.879 268.706 186.879C267.168 186.879 266.401 188.03 266.401 186.493C266.401 184.957 267.939 183.999 269.671 184.191C271.238 184.45 272.781 184.835 274.286 185.342C274.286 185.342 275.438 184.379 275.053 181.499C274.667 178.619 273.707 178.619 271.402 179.39C269.097 180.16 267.553 181.86 265.822 181.86C264.091 181.86 265.055 179.75 266.208 179.172C267.361 178.594 270.244 177.443 270.823 177.251C271.402 177.058 267.746 174.371 265.822 173.99C263.898 173.61 261.41 174.978 261.593 176.87C261.959 180.882 256.191 181.672 254.653 179.918Z" fill="white"/>
<path d="M267.029 199.688C267.089 200.266 267.129 200.849 267.148 201.427" stroke="#263238" stroke-linecap="round" stroke-linejoin="round"/>
<path d="M263.166 185.906C264.856 189.71 266.072 193.706 266.787 197.806" stroke="#263238" stroke-linecap="round" stroke-linejoin="round"/>
<path d="M262.473 184.364C261.523 182.319 260.806 181.074 260.806 181.074C261.846 180.574 262.708 179.769 263.279 178.767C263.73 177.859 264.389 177.07 265.204 176.465" stroke="#263238" stroke-linecap="round" stroke-linejoin="round"/>
<path d="M254.074 187.6C254.074 187.6 260.999 184.72 260.999 185.298" stroke="#263238" stroke-linecap="round" stroke-linejoin="round"/>
<path d="M264.843 183.954C264.843 183.954 267.92 182.418 270.611 182.418" stroke="#263238" stroke-linecap="round" stroke-linejoin="round"/>
<path d="M263.715 188.588C262.381 189.682 261.157 190.903 260.059 192.234C258.937 193.556 258.029 195.047 257.368 196.65" stroke="#263238" stroke-linecap="round" stroke-linejoin="round"/>
<path d="M265.802 189.329C265.802 189.329 269.844 188.178 271.956 190.095" stroke="#263238" stroke-linecap="round" stroke-linejoin="round"/>
<path d="M273.114 163.394C271.021 162.159 268.706 162.129 267.568 160.825C266.431 159.521 268.662 158.849 269.854 159.343C271.046 159.837 273.811 161.255 274.33 161.566C274.85 161.877 274.494 157.357 273.524 155.638C272.555 153.919 269.898 152.946 268.578 154.334C265.783 157.268 261.42 153.42 261.717 151.128C262.013 148.836 259.871 146.371 255.286 147.818C250.7 149.266 252.402 150.061 252.402 150.061C252.402 150.061 255.667 152.062 257.764 153.302C259.861 154.541 263.324 155.599 262.577 156.498C261.83 157.397 259.827 156.848 258.15 155.51C256.473 154.171 251.66 150.97 251.165 152.16C250.671 153.351 248.939 156.606 248.939 156.606C251.07 156.933 253.177 157.4 255.246 158.004C258.046 158.879 258.62 160.415 256.433 160.534C254.247 160.652 250.27 159.012 249.014 161.102C247.757 163.191 248.623 168.561 248.623 168.561C248.623 168.561 252.629 165.849 254.672 165.859C256.715 165.869 255.41 167 253.124 168.472C252.134 169.078 251.178 169.738 250.26 170.448L252.338 175.769C253.927 175.554 255.528 175.44 257.131 175.428L258.486 175.522C258.486 175.522 258.486 169.939 260.089 168.285C261.692 166.63 261.979 170.458 262.32 171.436C262.661 172.414 261.637 175.334 261.637 175.334C261.637 175.334 265.595 173.165 266.891 172.306L268.182 171.441C268.182 171.441 266.698 167.39 265.708 166.23C264.719 165.069 263.329 165.242 264.487 164.254C265.644 163.266 267.385 163.76 268.375 165.207C269.203 166.559 269.923 167.975 270.526 169.441C270.526 169.441 272.01 169.683 273.935 167.504C275.859 165.325 275.211 164.624 273.114 163.394ZM254.92 169.539C253.381 168.774 257.032 167.237 257.032 167.237C258.382 167.035 256.458 170.31 254.925 169.529L254.92 169.539ZM257.507 162.371C256.854 162.045 258.818 161.383 258.818 161.383C261.667 161.912 258.17 162.692 257.512 162.361L257.507 162.371Z" fill="white"/>
<path d="M254.88 173.442C254.481 173.867 254.071 174.277 253.648 174.672" stroke="#263238" stroke-linecap="round" stroke-linejoin="round"/>
<path d="M262.77 161.492C261.003 165.261 258.779 168.798 256.146 172.024" stroke="#263238" stroke-linecap="round" stroke-linejoin="round"/>
<path d="M263.482 159.961C264.407 157.901 264.877 156.542 264.877 156.542C265.94 157.011 267.121 157.142 268.261 156.918C269.243 156.662 270.272 156.641 271.264 156.858" stroke="#263238" stroke-linecap="round" stroke-linejoin="round"/>
<path d="M261.811 159.442C262.246 159.067 255.533 155.732 255.533 155.732" stroke="#263238" stroke-linecap="round" stroke-linejoin="round"/>
<path d="M265.347 161.477C265.347 161.477 268.528 162.791 270.294 164.822" stroke="#263238" stroke-linecap="round" stroke-linejoin="round"/>
<path d="M261.108 163.626C259.405 163.341 257.679 163.22 255.953 163.266C254.219 163.285 252.498 163.577 250.854 164.13" stroke="#263238" stroke-linecap="round" stroke-linejoin="round"/>
<path d="M261.915 165.726C261.915 165.726 265.432 168.018 265.377 170.868" stroke="#263238" stroke-linecap="round" stroke-linejoin="round"/>
<path d="M243.241 189.991C241.559 189.003 239.694 188.973 238.789 187.921C237.884 186.869 239.665 186.34 240.624 186.74C241.584 187.141 243.805 188.277 244.23 188.524C244.656 188.771 244.359 185.14 243.577 183.772C242.796 182.403 240.659 181.603 239.62 182.724C237.369 185.081 233.857 181.988 234.1 180.141C234.342 178.293 232.616 176.312 228.91 177.478C225.205 178.644 226.59 179.286 226.59 179.286C226.59 179.286 229.217 180.896 230.904 181.889C232.591 182.882 235.356 183.737 234.777 184.463C234.198 185.189 232.566 184.745 231.216 183.663C229.865 182.581 225.992 180.007 225.591 180.966C225.191 181.924 223.806 184.567 223.806 184.567C225.52 184.828 227.216 185.203 228.881 185.688C231.132 186.395 231.592 187.635 229.831 187.728C228.07 187.822 224.884 186.503 223.895 188.183C222.905 189.863 223.583 194.185 223.583 194.185C223.583 194.185 226.808 192.007 228.45 192.011C230.093 192.016 229.044 192.93 227.209 194.116C226.41 194.602 225.639 195.131 224.899 195.702L226.571 199.985C227.85 199.811 229.138 199.718 230.429 199.708L231.522 199.787C231.522 199.787 231.522 195.292 232.813 193.963C234.104 192.634 234.332 195.712 234.604 196.497C234.876 197.282 234.055 199.634 234.055 199.634C234.055 199.634 237.251 197.89 238.284 197.194L239.323 196.502C239.323 196.502 238.126 193.242 237.315 192.308C236.504 191.374 235.396 191.513 236.326 190.702C237.255 189.892 238.655 190.322 239.452 191.473C240.12 192.562 240.7 193.701 241.188 194.882C241.188 194.882 242.38 195.074 243.929 193.321C245.477 191.567 244.918 190.984 243.241 189.991ZM228.599 194.931C227.362 194.314 230.3 193.079 230.3 193.079C231.384 192.925 229.835 195.553 228.594 194.936L228.599 194.931ZM230.686 189.161C230.157 188.899 231.74 188.371 231.74 188.371C234.035 188.815 231.211 189.433 230.686 189.166V189.161Z" fill="white"/>
<path d="M228.594 198.083C228.272 198.423 227.941 198.754 227.604 199.071" stroke="#263238" stroke-linecap="round" stroke-linejoin="round"/>
<path d="M234.916 188.469C233.491 191.5 231.7 194.346 229.583 196.942" stroke="#263238" stroke-linecap="round" stroke-linejoin="round"/>
<path d="M235.489 187.234C236.231 185.579 236.612 184.483 236.612 184.483C237.467 184.859 238.416 184.965 239.333 184.784C240.122 184.579 240.949 184.562 241.747 184.735" stroke="#263238" stroke-linecap="round" stroke-linejoin="round"/>
<path d="M229.088 183.846C229.088 183.846 234.495 186.528 234.144 186.81" stroke="#263238" stroke-linecap="round" stroke-linejoin="round"/>
<path d="M237.003 188.455C237.003 188.455 239.56 189.512 240.96 191.142" stroke="#263238" stroke-linecap="round" stroke-linejoin="round"/>
<path d="M233.575 190.184C232.206 189.952 230.817 189.854 229.429 189.892C228.033 189.909 226.647 190.144 225.324 190.589" stroke="#263238" stroke-linecap="round" stroke-linejoin="round"/>
<path d="M234.223 191.873C234.223 191.873 237.058 193.716 237.003 196.013" stroke="#263238" stroke-linecap="round" stroke-linejoin="round"/>
<path d="M236.375 158.286C236.375 158.286 234.258 159.822 232.912 158.286C231.567 156.75 233.491 153.677 231.562 152.526C229.632 151.375 226.565 153.484 226.565 153.484C226.565 153.484 229.064 154.062 229.064 155.406C229.064 156.75 227.911 157.323 227.718 156.75C227.525 156.177 226.18 153.292 224.255 154.635C223.7 155.009 223.227 155.491 222.864 156.052C222.501 156.613 222.256 157.242 222.143 157.901C222.143 157.901 226.753 157.13 227.139 158.859C227.525 160.588 225.215 158.666 223.296 158.666C221.376 158.666 219.64 159.052 219.833 160.203C219.938 161.224 219.938 162.254 219.833 163.275C220.829 162.344 222.126 161.799 223.489 161.739C225.601 161.739 225.601 163.083 223.682 163.083C221.762 163.083 220.219 165.004 220.219 165.004C220.219 165.004 222.143 167.884 224.448 169.228C226.753 170.572 227.525 169.999 227.718 168.843C227.911 167.687 227.139 164.812 228.485 164.812C229.83 164.812 226.565 169.999 228.292 170.187C230.018 170.374 231.369 169.806 231.755 168.65L232.14 167.499C232.14 167.499 231.369 164.619 231.562 163.468C231.755 162.317 232.14 163.468 232.521 164.812C232.902 166.155 233.293 169.421 233.867 169.228C234.441 169.035 236.177 166.541 236.563 165.582C236.949 164.624 233.867 161.932 233.867 161.359C233.867 160.786 236.177 161.739 236.563 162.317C236.841 162.752 237.097 163.2 237.329 163.661C237.329 163.661 238.675 162.702 238.482 160.01C238.289 157.318 236.375 158.286 236.375 158.286Z" fill="white"/>
<path d="M225.625 165.246C226.956 163.394 228.925 160.875 230.632 159.63" stroke="#263238" stroke-linecap="round" stroke-linejoin="round"/>
<path d="M224.067 167.499C224.067 167.499 224.409 166.966 224.958 166.165" stroke="#263238" stroke-linecap="round" stroke-linejoin="round"/>
<path d="M231.562 160.01C231.562 160.01 233.867 162.89 234.445 165.963" stroke="#263238" stroke-linecap="round" stroke-linejoin="round"/>
<path d="M229.261 161.912C229.261 161.912 229.835 161.527 229.835 165.37" stroke="#263238" stroke-linecap="round" stroke-linejoin="round"/>
<path d="M230.607 158.286C230.607 158.286 231.759 157.13 230.988 155.021" stroke="#263238" stroke-linecap="round" stroke-linejoin="round"/>
<path d="M229.069 160.203L228.104 158.666" stroke="#263238" stroke-linecap="round" stroke-linejoin="round"/>
<path d="M227.337 161.912C227.337 161.912 224.453 159.99 222.722 159.99" stroke="#263238" stroke-linecap="round" stroke-linejoin="round"/>
<path d="M255.791 201.299H240.926V222.664H255.791V201.299Z" fill="#263238" stroke="#263238" stroke-width="2" stroke-linecap="round" stroke-linejoin="round"/>
<path d="M121.904 37.1177C121.904 37.1177 122.083 30.8044 121.859 25.3753C121.636 19.9463 122.088 8.30762 122.088 8.30762" stroke="#263238" stroke-miterlimit="10"/>
<path d="M121.983 15.1544L119.514 13.213" stroke="#263238" stroke-miterlimit="10"/>
<path d="M121.953 16.4882L122.834 15.0704" stroke="#263238" stroke-miterlimit="10"/>
<path d="M121.755 22.1051L123.946 20.2921" stroke="#263238" stroke-miterlimit="10"/>
<path d="M122.087 10.6937L120.929 9.64148" stroke="#263238" stroke-miterlimit="10"/>
<path d="M121.736 23.0881L120.286 21.537" stroke="#263238" stroke-miterlimit="10"/>
<path d="M121.859 29.184L118.847 26.4374" stroke="#263238" stroke-miterlimit="10"/>
<path d="M121.938 32.568C122.706 32.2707 123.453 31.9225 124.174 31.5256" stroke="#263238" stroke-miterlimit="10"/>
<path d="M120.261 16.1277C119.049 15.194 114.983 15.3571 114.202 17.2985C113.42 19.2399 115.908 22.4064 118.283 22.1841C119.218 22.0952 119.623 22.031 119.989 21.5074L116.65 18.247L120.266 21.1517C120.368 20.9626 120.451 20.7641 120.514 20.5589C120.553 20.4156 120.593 20.2575 120.622 20.0945C120.875 18.9336 121.404 17.0021 120.261 16.1277Z" fill="white"/>
<path d="M128.131 13.875V13.9442C127.805 15.3916 126.153 16.2116 124.753 16.0881C124.559 16.0717 124.367 16.0369 124.179 15.9844C123.852 16.5016 123.649 17.0876 123.588 17.6962C123.526 18.3049 123.606 18.9195 123.823 19.4918C123.881 19.6554 123.959 19.8113 124.055 19.9561C124.466 19.6202 128.859 15.8757 128.859 15.8757L124.298 20.2624C125.673 21.7444 128.898 21.532 130.021 18.8101C131.144 16.0881 129.714 14.2653 128.131 13.875Z" fill="white"/>
<path d="M125.896 8.81152C123.531 8.31752 121.414 9.3648 121.444 11.8299C121.457 12.3733 121.581 12.9083 121.809 13.4019C122.037 13.8955 122.364 14.3373 122.769 14.7L125.208 11.3803L123.16 15.0013C123.619 15.3139 124.15 15.5043 124.704 15.5546C126.098 15.6732 127.756 14.8531 128.082 13.4057C128.423 11.7903 128.26 9.33022 125.896 8.81152Z" fill="white"/>
<path d="M123.136 0.240601C123.136 0.240601 122.893 0.314701 121.379 1.05076C120.493 1.53874 119.837 2.35727 119.553 3.3274C119.269 4.29752 119.382 5.34034 119.866 6.22788C120.285 7.0571 121.01 7.69122 121.889 7.9964L122.497 2.12274L122.24 8.07544C122.355 8.08727 122.471 8.08727 122.586 8.07544C123.576 7.97664 125.124 6.80092 125.272 4.39514C125.421 1.98936 123.136 0.240601 123.136 0.240601Z" fill="white"/>
<path d="M116.225 5.58077L120.791 9.22649C120.836 9.06595 120.851 8.89849 120.835 8.73249C120.622 6.64781 118.54 5.43751 117.165 5.00279C115.789 4.56807 114.835 5.34365 115.72 7.33941C116.606 9.33517 118.926 10.3034 119.96 10.0021C120.205 9.94163 120.426 9.80709 120.593 9.61675L116.225 5.58077Z" fill="white"/>
<path d="M119.366 10.2539C118.666 10.2035 117.987 9.99504 117.379 9.64418C116.772 9.29333 116.252 8.80928 115.859 8.22855C115.374 8.1826 114.89 8.32794 114.511 8.63351C114.132 8.93908 113.888 9.38061 113.831 9.86369C113.366 12.0373 114.939 14.3097 117.209 14.033C117.922 13.9959 118.599 13.707 119.119 13.2179L115.062 9.51789L119.406 12.8227C119.491 12.6702 119.545 12.5023 119.564 12.3287C119.704 11.6328 119.635 10.911 119.366 10.2539Z" fill="white"/>
<path d="M119.341 22.3422C118.972 22.4999 118.579 22.5935 118.179 22.6188C116.695 22.7571 115.181 21.5962 114.429 20.2328C113.988 20.2626 113.569 20.4394 113.24 20.7349C112.911 21.0305 112.69 21.4276 112.614 21.863C112.164 24.4071 114.523 27.7613 116.907 27.2278C117.527 27.1073 118.101 26.8165 118.565 26.388L113.361 21.3887L118.866 26.062C119.181 25.6588 119.384 25.1801 119.455 24.6738C119.716 23.9105 119.675 23.0766 119.341 22.3422Z" fill="white"/>
<path d="M129.813 27.544C128.062 25.5186 125.98 27.3315 125.98 27.3315C125.98 27.3315 124.703 27.7514 124.219 29.5595C124.07 30.108 124.093 30.6887 124.283 31.2243L129.546 28.1615L124.411 31.5108C124.906 32.4197 125.935 32.9928 127.379 32.5729C129.685 31.9406 131.559 29.5842 129.813 27.544Z" fill="white"/>
<path d="M125.451 35.2108H118.164V45.985H125.451V35.2108Z" fill="#263238"/>
<path d="M205.873 45.896H109.77V223.356H205.873V45.896Z" fill="white" stroke="#263238" stroke-miterlimit="10"/>
<path d="M192.32 48.1438H111.768V220.654H192.32V48.1438Z" fill="#263238" stroke="#263238" stroke-linecap="round" stroke-linejoin="round"/>
<path d="M192.32 74.8988H111.768V77.4429H192.32V74.8988Z" fill="white" stroke="#263238" stroke-miterlimit="10"/>
<path d="M192.32 104.312H111.768V106.856H192.32V104.312Z" fill="white" stroke="#263238" stroke-miterlimit="10"/>
<path d="M166.359 48.1733H164.648V74.8938H166.359V48.1733Z" fill="white" stroke="#263238" stroke-miterlimit="10"/>
<path d="M138.975 48.1733H137.263V74.8938H138.975V48.1733Z" fill="white" stroke="#263238" stroke-miterlimit="10"/>
<path d="M166.359 106.885H164.648V133.606H166.359V106.885Z" fill="white" stroke="#263238" stroke-miterlimit="10"/>
<path d="M138.975 106.885H137.263V133.606H138.975V106.885Z" fill="white" stroke="#263238" stroke-miterlimit="10"/>
<path d="M152.533 77.5862H150.822V104.307H152.533V77.5862Z" fill="white" stroke="#263238" stroke-miterlimit="10"/>
<path d="M192.32 133.611H111.768V136.155H192.32V133.611Z" fill="white" stroke="#263238" stroke-miterlimit="10"/>
<path d="M192.32 162.925H111.768V221.553H192.32V162.925Z" fill="white" stroke="#263238" stroke-miterlimit="10"/>
<path d="M152.533 136.199H150.822V162.92H152.533V136.199Z" fill="white" stroke="#263238" stroke-miterlimit="10"/>
<path d="M194.293 45.8812V223.316L205.879 223.356V45.8812H194.293Z" fill="#263238" stroke="#263238" stroke-linecap="round" stroke-linejoin="round"/>
<path d="M171.682 50.2482H167.546V74.8345H171.682V50.2482Z" fill="white" stroke="#263238" stroke-miterlimit="10"/>
<path d="M171.682 69.5537H167.546V71.5692H171.682V69.5537Z" fill="white" stroke="#263238" stroke-miterlimit="10"/>
<path d="M171.682 52.7429H167.546V54.7584H171.682V52.7429Z" fill="white" stroke="#263238" stroke-miterlimit="10"/>
<path d="M175.911 50.2482H171.776V74.8345H175.911V50.2482Z" fill="white" stroke="#263238" stroke-miterlimit="10"/>
<path d="M175.911 69.5537H171.776V71.5692H175.911V69.5537Z" fill="white" stroke="#263238" stroke-miterlimit="10"/>
<path d="M175.911 52.7429H171.776V54.7584H175.911V52.7429Z" fill="white" stroke="#263238" stroke-miterlimit="10"/>
<path d="M180.146 50.2482H176.01V74.8345H180.146V50.2482Z" fill="white" stroke="#263238" stroke-miterlimit="10"/>
<path d="M180.146 69.5537H176.01V71.5692H180.146V69.5537Z" fill="white" stroke="#263238" stroke-miterlimit="10"/>
<path d="M180.146 52.7429H176.01V54.7584H180.146V52.7429Z" fill="white" stroke="#263238" stroke-miterlimit="10"/>
<path d="M184.375 50.2482H180.24V74.8345H184.375V50.2482Z" fill="white" stroke="#263238" stroke-miterlimit="10"/>
<path d="M191.266 50.2482H184.34V74.8345H191.266V50.2482Z" fill="white" stroke="#263238" stroke-miterlimit="10"/>
<path d="M184.375 69.5537H180.24V71.5692H184.375V69.5537Z" fill="white" stroke="#263238" stroke-miterlimit="10"/>
<path d="M184.375 52.7429H180.24V54.7584H184.375V52.7429Z" fill="white" stroke="#263238" stroke-miterlimit="10"/>
<path d="M144.015 50.2482H139.88V74.8345H144.015V50.2482Z" fill="white" stroke="#263238" stroke-miterlimit="10"/>
<path d="M144.015 69.5537H139.88V71.5692H144.015V69.5537Z" fill="white" stroke="#263238" stroke-miterlimit="10"/>
<path d="M144.015 52.7429H139.88V54.7584H144.015V52.7429Z" fill="white" stroke="#263238" stroke-miterlimit="10"/>
<path d="M148.245 50.2482H144.109V74.8345H148.245V50.2482Z" fill="white" stroke="#263238" stroke-miterlimit="10"/>
<path d="M148.245 69.5537H144.109V71.5692H148.245V69.5537Z" fill="white" stroke="#263238" stroke-miterlimit="10"/>
<path d="M148.245 52.7429H144.109V54.7584H148.245V52.7429Z" fill="white" stroke="#263238" stroke-miterlimit="10"/>
<path d="M152.479 50.2482H148.344V74.8345H152.479V50.2482Z" fill="white" stroke="#263238" stroke-miterlimit="10"/>
<path d="M152.479 69.5537H148.344V71.5692H152.479V69.5537Z" fill="white" stroke="#263238" stroke-miterlimit="10"/>
<path d="M152.479 52.7429H148.344V54.7584H152.479V52.7429Z" fill="white" stroke="#263238" stroke-miterlimit="10"/>
<path d="M156.709 50.2482H152.573V74.8345H156.709V50.2482Z" fill="white" stroke="#263238" stroke-miterlimit="10"/>
<path d="M163.599 50.2482H156.674V74.8345H163.599V50.2482Z" fill="white" stroke="#263238" stroke-miterlimit="10"/>
<path d="M156.709 69.5537H152.573V71.5692H156.709V69.5537Z" fill="white" stroke="#263238" stroke-miterlimit="10"/>
<path d="M156.709 52.7429H152.573V54.7584H156.709V52.7429Z" fill="white" stroke="#263238" stroke-miterlimit="10"/>
<path d="M144.015 109.049H139.88V133.635H144.015V109.049Z" fill="white" stroke="#263238" stroke-miterlimit="10"/>
<path d="M144.015 128.354H139.88V130.37H144.015V128.354Z" fill="white" stroke="#263238" stroke-miterlimit="10"/>
<path d="M144.015 111.549H139.88V113.564H144.015V111.549Z" fill="white" stroke="#263238" stroke-miterlimit="10"/>
<path d="M148.245 109.049H144.109V133.635H148.245V109.049Z" fill="white" stroke="#263238" stroke-miterlimit="10"/>
<path d="M148.245 128.354H144.109V130.37H148.245V128.354Z" fill="white" stroke="#263238" stroke-miterlimit="10"/>
<path d="M148.245 111.549H144.109V113.564H148.245V111.549Z" fill="white" stroke="#263238" stroke-miterlimit="10"/>
<path d="M152.479 109.049H148.344V133.635H152.479V109.049Z" fill="white" stroke="#263238" stroke-miterlimit="10"/>
<path d="M152.479 128.354H148.344V130.37H152.479V128.354Z" fill="white" stroke="#263238" stroke-miterlimit="10"/>
<path d="M152.479 111.549H148.344V113.564H152.479V111.549Z" fill="white" stroke="#263238" stroke-miterlimit="10"/>
<path d="M156.709 109.049H152.573V133.635H156.709V109.049Z" fill="white" stroke="#263238" stroke-miterlimit="10"/>
<path d="M163.599 109.049H156.674V133.635H163.599V109.049Z" fill="white" stroke="#263238" stroke-miterlimit="10"/>
<path d="M156.709 128.354H152.573V130.37H156.709V128.354Z" fill="white" stroke="#263238" stroke-miterlimit="10"/>
<path d="M156.709 111.549H152.573V113.564H156.709V111.549Z" fill="white" stroke="#263238" stroke-miterlimit="10"/>
<path d="M171.326 109.049H167.19V133.635H171.326V109.049Z" fill="white" stroke="#263238" stroke-miterlimit="10"/>
<path d="M171.326 128.354H167.19V130.37H171.326V128.354Z" fill="white" stroke="#263238" stroke-miterlimit="10"/>
<path d="M171.326 111.549H167.19V113.564H171.326V111.549Z" fill="white" stroke="#263238" stroke-miterlimit="10"/>
<path d="M175.56 109.049H171.425V133.635H175.56V109.049Z" fill="white" stroke="#263238" stroke-miterlimit="10"/>
<path d="M175.56 128.354H171.425V130.37H175.56V128.354Z" fill="white" stroke="#263238" stroke-miterlimit="10"/>
<path d="M175.56 111.549H171.425V113.564H175.56V111.549Z" fill="white" stroke="#263238" stroke-miterlimit="10"/>
<path d="M179.79 109.049H175.654V133.635H179.79V109.049Z" fill="white" stroke="#263238" stroke-miterlimit="10"/>
<path d="M179.79 128.354H175.654V130.37H179.79V128.354Z" fill="white" stroke="#263238" stroke-miterlimit="10"/>
<path d="M179.79 111.549H175.654V113.564H179.79V111.549Z" fill="white" stroke="#263238" stroke-miterlimit="10"/>
<path d="M184.024 109.049H179.889V133.635H184.024V109.049Z" fill="white" stroke="#263238" stroke-miterlimit="10"/>
<path d="M190.91 109.049H183.984V133.635H190.91V109.049Z" fill="white" stroke="#263238" stroke-miterlimit="10"/>
<path d="M184.024 128.354H179.889V130.37H184.024V128.354Z" fill="white" stroke="#263238" stroke-miterlimit="10"/>
<path d="M184.024 111.549H179.889V113.564H184.024V111.549Z" fill="white" stroke="#263238" stroke-miterlimit="10"/>
<path d="M116.878 109.049H112.743V133.635H116.878V109.049Z" fill="white" stroke="#263238" stroke-miterlimit="10"/>
<path d="M116.878 128.354H112.743V130.37H116.878V128.354Z" fill="white" stroke="#263238" stroke-miterlimit="10"/>
<path d="M116.878 111.549H112.743V113.564H116.878V111.549Z" fill="white" stroke="#263238" stroke-miterlimit="10"/>
<path d="M121.112 109.049H116.977V133.635H121.112V109.049Z" fill="white" stroke="#263238" stroke-miterlimit="10"/>
<path d="M121.112 128.354H116.977V130.37H121.112V128.354Z" fill="white" stroke="#263238" stroke-miterlimit="10"/>
<path d="M121.112 111.549H116.977V113.564H121.112V111.549Z" fill="white" stroke="#263238" stroke-miterlimit="10"/>
<path d="M125.341 109.049H121.206V133.635H125.341V109.049Z" fill="white" stroke="#263238" stroke-miterlimit="10"/>
<path d="M125.341 128.354H121.206V130.37H125.341V128.354Z" fill="white" stroke="#263238" stroke-miterlimit="10"/>
<path d="M125.341 111.549H121.206V113.564H125.341V111.549Z" fill="white" stroke="#263238" stroke-miterlimit="10"/>
<path d="M129.576 109.049H125.44V133.635H129.576V109.049Z" fill="white" stroke="#263238" stroke-miterlimit="10"/>
<path d="M136.462 109.049H129.537V133.635H136.462V109.049Z" fill="white" stroke="#263238" stroke-miterlimit="10"/>
<path d="M129.576 128.354H125.44V130.37H129.576V128.354Z" fill="white" stroke="#263238" stroke-miterlimit="10"/>
<path d="M129.576 111.549H125.44V113.564H129.576V111.549Z" fill="white" stroke="#263238" stroke-miterlimit="10"/>
<path d="M116.349 50.2482H112.213V74.8345H116.349V50.2482Z" fill="white" stroke="#263238" stroke-miterlimit="10"/>
<path d="M116.349 69.5537H112.213V71.5692H116.349V69.5537Z" fill="white" stroke="#263238" stroke-miterlimit="10"/>
<path d="M116.349 52.7429H112.213V54.7584H116.349V52.7429Z" fill="white" stroke="#263238" stroke-miterlimit="10"/>
<path d="M120.578 50.2482H116.442V74.8345H120.578V50.2482Z" fill="white" stroke="#263238" stroke-miterlimit="10"/>
<path d="M120.578 69.5537H116.442V71.5692H120.578V69.5537Z" fill="white" stroke="#263238" stroke-miterlimit="10"/>
<path d="M120.578 52.7429H116.442V54.7584H120.578V52.7429Z" fill="white" stroke="#263238" stroke-miterlimit="10"/>
<path d="M124.812 50.2482H120.677V74.8345H124.812V50.2482Z" fill="white" stroke="#263238" stroke-miterlimit="10"/>
<path d="M124.812 69.5537H120.677V71.5692H124.812V69.5537Z" fill="white" stroke="#263238" stroke-miterlimit="10"/>
<path d="M124.812 52.7429H120.677V54.7584H124.812V52.7429Z" fill="white" stroke="#263238" stroke-miterlimit="10"/>
<path d="M129.042 50.2482H124.906V74.8345H129.042V50.2482Z" fill="white" stroke="#263238" stroke-miterlimit="10"/>
<path d="M135.933 50.2482H129.007V74.8345H135.933V50.2482Z" fill="white" stroke="#263238" stroke-miterlimit="10"/>
<path d="M129.042 69.5537H124.906V71.5692H129.042V69.5537Z" fill="white" stroke="#263238" stroke-miterlimit="10"/>
<path d="M129.042 52.7429H124.906V54.7584H129.042V52.7429Z" fill="white" stroke="#263238" stroke-miterlimit="10"/>
<path d="M128.587 79.5474H124.451V104.134H128.587V79.5474Z" fill="white" stroke="#263238" stroke-miterlimit="10"/>
<path d="M128.587 98.8529H124.451V100.868H128.587V98.8529Z" fill="white" stroke="#263238" stroke-miterlimit="10"/>
<path d="M128.587 82.047H124.451V84.0625H128.587V82.047Z" fill="white" stroke="#263238" stroke-miterlimit="10"/>
<path d="M124.506 79.5474H120.37V104.134H124.506V79.5474Z" fill="white" stroke="#263238" stroke-miterlimit="10"/>
<path d="M124.506 98.8529H120.37V100.868H124.506V98.8529Z" fill="white" stroke="#263238" stroke-miterlimit="10"/>
<path d="M124.506 82.047H120.37V84.0625H124.506V82.047Z" fill="white" stroke="#263238" stroke-miterlimit="10"/>
<path d="M120.424 79.5474H116.289V104.134H120.424V79.5474Z" fill="white" stroke="#263238" stroke-miterlimit="10"/>
<path d="M120.424 98.8529H116.289V100.868H120.424V98.8529Z" fill="white" stroke="#263238" stroke-miterlimit="10"/>
<path d="M120.424 82.047H116.289V84.0625H120.424V82.047Z" fill="white" stroke="#263238" stroke-miterlimit="10"/>
<path d="M116.349 79.5474H112.213V104.134H116.349V79.5474Z" fill="white" stroke="#263238" stroke-miterlimit="10"/>
<path d="M116.349 98.8529H112.213V100.868H116.349V98.8529Z" fill="white" stroke="#263238" stroke-miterlimit="10"/>
<path d="M116.349 82.047H112.213V84.0625H116.349V82.047Z" fill="white" stroke="#263238" stroke-miterlimit="10"/>
<path d="M132.816 79.5474H128.681V104.134H132.816V79.5474Z" fill="white" stroke="#263238" stroke-miterlimit="10"/>
<path d="M132.816 98.8529H128.681V100.868H132.816V98.8529Z" fill="white" stroke="#263238" stroke-miterlimit="10"/>
<path d="M132.816 82.047H128.681V84.0625H132.816V82.047Z" fill="white" stroke="#263238" stroke-miterlimit="10"/>
<path d="M137.046 79.5474H132.91V104.134H137.046V79.5474Z" fill="white" stroke="#263238" stroke-miterlimit="10"/>
<path d="M137.046 98.8529H132.91V100.868H137.046V98.8529Z" fill="white" stroke="#263238" stroke-miterlimit="10"/>
<path d="M137.046 82.047H132.91V84.0625H137.046V82.047Z" fill="white" stroke="#263238" stroke-miterlimit="10"/>
<path d="M141.28 79.5474H137.145V104.134H141.28V79.5474Z" fill="white" stroke="#263238" stroke-miterlimit="10"/>
<path d="M148.17 79.5474H141.245V104.134H148.17V79.5474Z" fill="white" stroke="#263238" stroke-miterlimit="10"/>
<path d="M141.28 98.8529H137.145V100.868H141.28V98.8529Z" fill="white" stroke="#263238" stroke-miterlimit="10"/>
<path d="M141.28 82.047H137.145V84.0625H141.28V82.047Z" fill="white" stroke="#263238" stroke-miterlimit="10"/>
<path d="M157.989 79.5474H153.854V104.134H157.989V79.5474Z" fill="white" stroke="#263238" stroke-miterlimit="10"/>
<path d="M157.989 98.8529H153.854V100.868H157.989V98.8529Z" fill="white" stroke="#263238" stroke-miterlimit="10"/>
<path d="M157.989 82.047H153.854V84.0625H157.989V82.047Z" fill="white" stroke="#263238" stroke-miterlimit="10"/>
<path d="M162.224 79.5474H158.088V104.134H162.224V79.5474Z" fill="white" stroke="#263238" stroke-miterlimit="10"/>
<path d="M162.224 98.8529H158.088V100.868H162.224V98.8529Z" fill="white" stroke="#263238" stroke-miterlimit="10"/>
<path d="M162.224 82.047H158.088V84.0625H162.224V82.047Z" fill="white" stroke="#263238" stroke-miterlimit="10"/>
<path d="M170.691 79.5413L166.835 81.1669L176.531 104.099L180.386 102.474L170.691 79.5413Z" fill="white" stroke="#263238" stroke-miterlimit="10"/>
<path d="M178.305 97.5461L174.449 99.1716L175.244 101.051L179.099 99.4256L178.305 97.5461Z" fill="white" stroke="#263238" stroke-miterlimit="10"/>
<path d="M171.678 81.8719L167.822 83.4974L168.617 85.377L172.472 83.7514L171.678 81.8719Z" fill="white" stroke="#263238" stroke-miterlimit="10"/>
<path d="M176.535 104.089H185.167L189.05 102.474L180.388 102.464L176.535 104.089Z" fill="white" stroke="#263238" stroke-miterlimit="10"/>
<path d="M170.693 79.5325H178.8L189.05 102.474L180.388 102.464L170.693 79.5325Z" fill="white" stroke="#263238" stroke-miterlimit="10"/>
<path d="M166.305 79.5474H162.169V104.134H166.305V79.5474Z" fill="white" stroke="#263238" stroke-miterlimit="10"/>
<path d="M166.305 98.8529H162.169V100.868H166.305V98.8529Z" fill="white" stroke="#263238" stroke-miterlimit="10"/>
<path d="M166.305 82.047H162.169V84.0625H166.305V82.047Z" fill="white" stroke="#263238" stroke-miterlimit="10"/>
<path d="M166.305 79.5474H170.693L166.834 81.1578L176.535 104.089H166.305V79.5474Z" fill="white" stroke="#263238" stroke-miterlimit="10"/>
<path d="M128.587 138.244H124.451V162.831H128.587V138.244Z" fill="white" stroke="#263238" stroke-miterlimit="10"/>
<path d="M128.587 157.55H124.451V159.565H128.587V157.55Z" fill="white" stroke="#263238" stroke-miterlimit="10"/>
<path d="M128.587 140.739H124.451V142.755H128.587V140.739Z" fill="white" stroke="#263238" stroke-miterlimit="10"/>
<path d="M124.506 138.244H120.37V162.831H124.506V138.244Z" fill="white" stroke="#263238" stroke-miterlimit="10"/>
<path d="M124.506 157.55H120.37V159.565H124.506V157.55Z" fill="white" stroke="#263238" stroke-miterlimit="10"/>
<path d="M124.506 140.739H120.37V142.755H124.506V140.739Z" fill="white" stroke="#263238" stroke-miterlimit="10"/>
<path d="M120.424 138.244H116.289V162.831H120.424V138.244Z" fill="white" stroke="#263238" stroke-miterlimit="10"/>
<path d="M120.424 157.55H116.289V159.565H120.424V157.55Z" fill="white" stroke="#263238" stroke-miterlimit="10"/>
<path d="M120.424 140.739H116.289V142.755H120.424V140.739Z" fill="white" stroke="#263238" stroke-miterlimit="10"/>
<path d="M116.349 138.244H112.213V162.831H116.349V138.244Z" fill="white" stroke="#263238" stroke-miterlimit="10"/>
<path d="M116.349 157.55H112.213V159.565H116.349V157.55Z" fill="white" stroke="#263238" stroke-miterlimit="10"/>
<path d="M116.349 140.739H112.213V142.755H116.349V140.739Z" fill="white" stroke="#263238" stroke-miterlimit="10"/>
<path d="M132.816 138.244H128.681V162.831H132.816V138.244Z" fill="white" stroke="#263238" stroke-miterlimit="10"/>
<path d="M132.816 157.55H128.681V159.565H132.816V157.55Z" fill="white" stroke="#263238" stroke-miterlimit="10"/>
<path d="M132.816 140.739H128.681V142.755H132.816V140.739Z" fill="white" stroke="#263238" stroke-miterlimit="10"/>
<path d="M137.046 138.244H132.91V162.831H137.046V138.244Z" fill="white" stroke="#263238" stroke-miterlimit="10"/>
<path d="M137.046 157.55H132.91V159.565H137.046V157.55Z" fill="white" stroke="#263238" stroke-miterlimit="10"/>
<path d="M137.046 140.739H132.91V142.755H137.046V140.739Z" fill="white" stroke="#263238" stroke-miterlimit="10"/>
<path d="M141.28 138.244H137.145V162.831H141.28V138.244Z" fill="white" stroke="#263238" stroke-miterlimit="10"/>
<path d="M148.17 138.244H141.245V162.831H148.17V138.244Z" fill="white" stroke="#263238" stroke-miterlimit="10"/>
<path d="M141.28 157.55H137.145V159.565H141.28V157.55Z" fill="white" stroke="#263238" stroke-miterlimit="10"/>
<path d="M141.28 140.739H137.145V142.755H141.28V140.739Z" fill="white" stroke="#263238" stroke-miterlimit="10"/>
<path d="M157.989 138.244H153.854V162.831H157.989V138.244Z" fill="white" stroke="#263238" stroke-miterlimit="10"/>
<path d="M157.989 157.55H153.854V159.565H157.989V157.55Z" fill="white" stroke="#263238" stroke-miterlimit="10"/>
<path d="M157.989 140.739H153.854V142.755H157.989V140.739Z" fill="white" stroke="#263238" stroke-miterlimit="10"/>
<path d="M162.224 138.244H158.088V162.831H162.224V138.244Z" fill="white" stroke="#263238" stroke-miterlimit="10"/>
<path d="M162.224 157.55H158.088V159.565H162.224V157.55Z" fill="white" stroke="#263238" stroke-miterlimit="10"/>
<path d="M162.224 140.739H158.088V142.755H162.224V140.739Z" fill="white" stroke="#263238" stroke-miterlimit="10"/>
<path d="M170.687 138.235L166.832 139.861L176.527 162.793L180.383 161.168L170.687 138.235Z" fill="white" stroke="#263238" stroke-miterlimit="10"/>
<path d="M178.204 155.803L174.354 157.433L175.15 159.31L179 157.68L178.204 155.803Z" fill="white" stroke="#263238" stroke-width="0.99925" stroke-miterlimit="10"/>
<path d="M171.674 140.566L167.819 142.192L168.613 144.071L172.469 142.446L171.674 140.566Z" fill="white" stroke="#263238" stroke-miterlimit="10"/>
<path d="M176.535 162.786H185.167L189.05 161.171L180.388 161.156L176.535 162.786Z" fill="white" stroke="#263238" stroke-miterlimit="10"/>
<path d="M170.693 138.225H178.8L189.05 161.171L180.388 161.156L170.693 138.225Z" fill="white" stroke="#263238" stroke-miterlimit="10"/>
<path d="M166.305 138.244H162.169V162.831H166.305V138.244Z" fill="white" stroke="#263238" stroke-miterlimit="10"/>
<path d="M166.305 157.55H162.169V159.565H166.305V157.55Z" fill="white" stroke="#263238" stroke-miterlimit="10"/>
<path d="M166.305 140.739H162.169V142.755H166.305V140.739Z" fill="white" stroke="#263238" stroke-miterlimit="10"/>
<path d="M166.305 138.244H170.693L166.834 139.85L176.535 162.786H166.305V138.244Z" fill="white" stroke="#263238" stroke-miterlimit="10"/>
<path d="M150.822 162.92V220.569" stroke="#263238" stroke-miterlimit="10"/>
<path d="M112.421 170.058H192.3" stroke="#263238" stroke-miterlimit="10"/>
<path d="M128.814 174.934V185.387" stroke="#263238" stroke-width="2" stroke-miterlimit="10"/>
<path d="M132.302 174.934V185.387" stroke="#263238" stroke-width="2" stroke-miterlimit="10"/>
<path d="M168.932 174.934V185.387" stroke="#263238" stroke-width="2" stroke-miterlimit="10"/>
<path d="M172.419 174.934V185.387" stroke="#263238" stroke-width="2" stroke-miterlimit="10"/>
<path d="M214.564 46.8149V29.0902H240.376" stroke="#263238" stroke-miterlimit="10"/>
<path d="M242.276 29.0902H253.148V73.0562H214.564V49.5023" stroke="#263238" stroke-miterlimit="10"/>
<path d="M239.11 67.1282H219.763V35.0182H247.944V67.1282H241.326" stroke="#263238" stroke-miterlimit="10"/>
<path d="M239.273 44.8982H228.435V57.2482H239.273V44.8982Z" stroke="#263238" stroke-miterlimit="10"/>
<path d="M256.577 67.3061V56.2504H272.678" stroke="#263238" stroke-miterlimit="10"/>
<path d="M273.86 56.2504H280.642V83.6723H256.577V68.9807" stroke="#263238" stroke-miterlimit="10"/>
<path d="M271.886 79.9771H259.821V59.9454H277.397V79.9771H273.266" stroke="#263238" stroke-miterlimit="10"/>
<path d="M271.99 66.1106H265.228V73.8121H271.99V66.1106Z" stroke="#263238" stroke-miterlimit="10"/>
<path d="M1.44238 223.356H280.434" stroke="#263238" stroke-linecap="round" stroke-linejoin="round"/>
<path d="M21.2291 154.196C21.2291 154.196 18.2611 114.676 19.7451 110.23C21.2291 105.784 30.3804 106.031 32.1118 106.031C33.8431 106.031 69.9538 106.031 75.1478 108.501C80.3418 110.971 81.0838 171.733 81.0838 171.733H23.7024L21.2291 154.196Z" fill="#263238" stroke="#263238" stroke-miterlimit="10"/>
<path d="M83.0575 150.985C83.0575 150.985 77.1215 150.985 75.9343 156.913C74.7471 162.841 79.4217 187.294 79.768 194.21C80.1143 201.126 81.3311 210.759 81.3311 210.759H102.354L107.054 150.985H83.0575Z" fill="#263238" stroke="#263238" stroke-miterlimit="10"/>
<path d="M107.054 150.985C107.054 150.985 101.118 150.985 99.6339 156.913C98.1499 162.841 101.613 187.294 101.613 194.21C101.613 201.126 102.355 210.759 102.355 210.759H109.775C109.775 210.759 110.517 192.975 110.517 190.505C110.517 188.035 113.485 162.347 112.001 157.16C110.517 151.973 109.28 151.479 107.054 150.985Z" fill="#636363" stroke="#263238" stroke-miterlimit="10"/>
<path d="M44.3549 108.624C44.3549 108.624 24.6919 116.652 24.6919 117.516C24.6919 118.381 31.3699 141.599 33.8432 145.18C36.3166 148.762 38.0479 152.714 38.7899 154.196C39.5319 155.678 42.7472 159.383 45.3442 159.383C47.9412 159.383 51.0329 156.295 59.3186 155.06C67.6042 153.825 75.0242 153.949 76.5082 152.837C77.9922 151.726 76.1372 148.762 75.8899 148.144C75.6425 147.527 74.6532 145.304 74.6532 145.304C74.6532 145.304 82.6915 151.973 85.9069 152.22C89.1222 152.467 91.4719 150.861 91.9665 148.762C92.4612 146.662 90.6062 141.599 89.3695 138.882C88.1329 136.165 82.3205 131.842 79.7235 128.508C77.1265 125.173 73.7875 121.221 71.4379 118.504C69.3903 116.112 66.8624 114.177 64.0179 112.823C61.7919 111.835 56.1032 109.365 52.5169 108.995C48.9306 108.624 44.3549 108.624 44.3549 108.624Z" fill="white" stroke="#263238" stroke-miterlimit="10"/>
<path d="M82.8942 137.563C82.8942 137.563 80.0944 145.304 81.0837 147.28C82.0731 149.256 84.7096 149.913 84.7096 149.913" stroke="#263238" stroke-miterlimit="10"/>
<path d="M41.3867 111.218L57.7107 127.026L60.1841 115.17" stroke="#263238" stroke-miterlimit="10"/>
<path d="M83.6809 138.511C83.6809 138.511 87.6382 141.352 88.9986 140.364C90.3589 139.376 89.9879 137.523 89.1222 135.547C88.2566 133.571 85.4123 132.46 84.2993 133.324C83.1863 134.189 82.8153 137.647 83.6809 138.511Z" fill="white" stroke="#263238" stroke-miterlimit="10"/>
<path d="M43.1182 103.437L43.7365 110.847L56.8452 123.691L58.8238 114.552L59.6895 110.724C59.6895 110.724 51.1565 109.242 48.4358 107.389C45.7152 105.537 43.1182 103.437 43.1182 103.437Z" fill="white" stroke="#263238" stroke-miterlimit="10"/>
<path d="M59.6895 110.724C59.6895 110.724 51.1565 109.242 48.4358 107.389C45.7152 105.537 43.1182 103.437 43.1182 103.437L43.7365 110.847L47.0508 114.093C49.628 114.819 52.1953 115.17 53.9415 114.498C55.8791 113.794 57.7309 112.875 59.4619 111.756L59.6895 110.724Z" fill="#263238" stroke="#263238" stroke-miterlimit="10"/>
<path d="M39.2002 97.7167C39.2002 97.7167 36.8901 87.1747 36.8901 85.3667C36.8901 83.5587 43.1576 74.3308 51.7301 75.8128C60.3027 77.2948 65.0861 82.2348 65.4176 83.7168C65.749 85.1987 64.4282 88.1627 64.4282 88.1627C64.6892 89.0214 64.8551 89.906 64.9229 90.8007C64.9229 91.7887 63.4389 96.0667 63.4389 96.0667L62.9442 91.6207C62.9442 91.6207 58.8237 92.7767 56.5136 92.7767C54.2035 92.7767 50.2461 91.2947 50.2461 91.2947C50.2461 91.2947 51.0722 93.9277 50.2461 95.2467C49.42 96.5657 46.9517 97.7167 46.9517 97.7167C46.9517 97.7167 46.6202 100.35 45.6309 100.35C44.4104 100.288 43.1974 100.123 42.005 99.8557C41.3421 99.6927 39.2002 97.7167 39.2002 97.7167Z" fill="#263238" stroke="#263238" stroke-miterlimit="10"/>
<path d="M42.9944 98.8677C42.9944 98.8677 42.663 94.9157 39.3636 95.9037C36.0642 96.8917 38.211 100.513 40.0264 102.326C41.8419 104.139 42.3316 102.82 42.3316 102.82C42.3316 102.82 42.8263 106.609 45.2996 108.748C47.7729 110.887 51.567 114.839 55.5243 114.345C59.4817 113.851 62.2864 108.911 62.7811 105.29C63.2758 101.669 63.6022 93.1027 63.6022 92.1147C63.4831 91.0004 63.2629 89.8992 62.9443 88.8247C62.9443 88.8247 59.4817 91.2947 56.3504 90.6327C53.2192 89.9708 49.9198 88.6567 48.4358 88.6567C46.9518 88.6567 47.2783 90.8007 47.7729 91.4577C48.2676 92.1147 49.5883 93.4337 48.1043 94.2587C46.6203 95.0837 44.6417 95.9037 44.6417 95.9037V99.3617L42.9944 98.8677Z" fill="white" stroke="#263238" stroke-miterlimit="10"/>
<path d="M58.7694 97.0696L57.9582 105.996L53.897 104.82" stroke="#263238" stroke-miterlimit="10"/>
<path d="M55.3416 105.542C55.3416 105.542 53.363 105.542 52.2747 105.635C51.621 105.743 50.9568 105.773 50.296 105.724C49.8459 105.635 49.3067 105.275 50.207 106.174C51.1073 107.073 53.8181 108.15 55.2625 108.338C56.7069 108.525 57.7012 108.066 58.7796 107.35C59.8579 106.633 60.7582 105.907 60.224 105.729C59.4796 105.597 58.7243 105.536 57.9683 105.547V106.001L55.3416 105.542Z" fill="#263238" stroke="#263238" stroke-miterlimit="10"/>
<path d="M52.4969 100.132C52.822 100.132 53.0855 99.5883 53.0855 98.9171C53.0855 98.246 52.822 97.7019 52.4969 97.7019C52.1717 97.7019 51.9082 98.246 51.9082 98.9171C51.9082 99.5883 52.1717 100.132 52.4969 100.132Z" fill="#263238"/>
<path d="M61.2974 98.7393C61.2974 99.4112 61.0352 99.9546 60.7137 99.9546C60.3921 99.9546 60.125 99.4112 60.125 98.7393C60.125 98.0675 60.3872 97.5192 60.7137 97.5192C61.0401 97.5192 61.2974 98.0675 61.2974 98.7393Z" fill="#263238"/>
<path d="M50.2861 97.0695C50.2861 97.0695 52.7248 95.3553 54.7085 96.0815" stroke="#263238" stroke-miterlimit="10"/>
<path d="M59.2246 96.1705C59.2246 96.1705 61.7523 94.9948 62.8357 96.0767" stroke="#263238" stroke-miterlimit="10"/>
<path d="M54.0801 101.15C54.0801 101.15 53.536 101.782 51.7305 102.321" stroke="#263238" stroke-miterlimit="10"/>
<path d="M59.0415 100.765C59.5757 101.133 60.1519 101.436 60.758 101.669" stroke="#263238" stroke-miterlimit="10"/>
<path d="M66.7388 124.185L67.6044 121.962C67.6044 121.962 68.7174 123.074 71.6854 123.074C74.6534 123.074 79.4764 125.173 79.4764 125.173L79.8474 125.791C79.8474 125.791 80.7131 123.197 82.3208 122.703C83.9284 122.209 86.5254 120.48 86.8964 119.986L87.2674 119.492L88.9988 120.974L81.3314 131.101L66.9861 125.544L66.7388 124.185Z" fill="white" stroke="#263238" stroke-miterlimit="10"/>
<path d="M66.8623 123.321L63.1523 142.957L76.0137 145.921L80.713 126.902L66.8623 123.321Z" fill="white" stroke="#263238" stroke-miterlimit="10"/>
<path d="M80.713 126.902L88.9986 120.974L84.052 139.993L76.0137 145.921L80.713 126.902Z" fill="white" stroke="#263238" stroke-miterlimit="10"/>
<path d="M50.9092 139.376L56.5138 137.069C56.5138 137.069 61.4604 131.803 61.9551 131.309C62.4498 130.815 67.3964 130.321 67.3964 130.321L72.8378 133.942C72.8378 133.942 73.8271 134.767 72.8378 135.093C71.8484 135.419 69.7065 134.436 69.7065 134.436L67.5597 133.117L66.2438 133.779L69.0437 136.081C69.0437 136.081 69.8698 138.225 69.8698 139.376C69.8546 140.115 69.6861 140.843 69.3751 141.515L67.7278 143.822L62.7812 141.352C62.7812 141.352 59.8132 143.491 59.1503 143.822C58.4875 144.153 52.225 143.659 52.225 143.659L50.9092 139.376Z" fill="white" stroke="#263238" stroke-miterlimit="10"/>
<path d="M62.7368 133.606L64.4879 133.275L65.9917 133.69" stroke="#263238" stroke-miterlimit="10"/>
<path d="M61.0698 136.856C61.0698 136.856 64.9876 135.77 65.2399 135.77C65.4921 135.77 68.4107 138.768 68.4107 138.768L68.7421 142.019" stroke="#263238" stroke-miterlimit="10"/>
<path d="M61.2378 138.936L64.4037 139.02L67.3222 140.937C67.6183 141.869 67.7554 142.844 67.7278 143.822" stroke="#263238" stroke-miterlimit="10"/>
<path d="M28.1545 115.17C28.1545 115.17 24.5236 115.664 24.029 118.791C23.5343 121.918 20.2398 148.268 21.2291 151.232C22.2185 154.196 40.5211 149.093 41.179 148.762C41.837 148.431 52.225 145.304 52.3931 144.647C52.5613 143.99 52.8878 138.551 51.4038 138.225C49.9198 137.899 35.7377 138.388 35.7377 138.388L33.759 121.261" fill="white"/>
<path d="M28.1545 115.17C28.1545 115.17 24.5236 115.664 24.029 118.791C23.5343 121.918 20.2398 148.268 21.2291 151.232C22.2185 154.196 40.5211 149.093 41.179 148.762C41.837 148.431 52.225 145.304 52.3931 144.647C52.5613 143.99 52.8878 138.551 51.4038 138.225C49.9198 137.899 35.7377 138.388 35.7377 138.388L33.759 121.261" stroke="#263238" stroke-miterlimit="10"/>
<path d="M35.7378 138.388L26.9971 139.87" stroke="#263238" stroke-miterlimit="10"/>
<path d="M25.3496 137.894L32.9328 138.882" stroke="#263238" stroke-miterlimit="10"/>
<path d="M86.7724 129.125C86.7724 129.125 83.4334 132.583 83.5571 133.448C83.6807 134.312 85.4121 132.954 85.7831 132.583C86.1541 132.213 87.8854 131.225 87.8854 130.237C87.8854 129.249 87.5144 128.137 86.7724 129.125Z" fill="white" stroke="#263238" stroke-miterlimit="10"/>
<path d="M87.1437 131.225C87.1437 131.225 88.133 132.213 88.133 133.077C88.133 133.942 86.0307 136.782 85.0414 136.782C84.052 136.782 84.794 134.806 85.2887 133.942C85.7834 133.077 87.1437 131.225 87.1437 131.225Z" fill="white" stroke="#263238" stroke-miterlimit="10"/>
<path d="M88.1329 133.077C88.1329 133.077 89.3695 133.448 89.3695 134.559C89.3695 135.671 87.0199 137.523 86.4016 137.647C85.7832 137.77 85.9069 136.659 86.4016 135.794C86.8962 134.93 88.1329 133.077 88.1329 133.077Z" fill="white" stroke="#263238" stroke-miterlimit="10"/>
<path d="M89.3694 134.559C89.6226 135.185 89.7079 135.866 89.6167 136.535C89.493 137.77 87.638 138.511 87.0197 138.511C86.4014 138.511 86.4014 137.647 86.4014 137.647C87.4479 136.674 88.4388 135.643 89.3694 134.559Z" fill="white" stroke="#263238" stroke-miterlimit="10"/>
<path d="M50.4737 223.356H48.124L46.9517 207.795H51.651L50.4737 223.356Z" fill="white" stroke="#263238" stroke-miterlimit="10"/>
<path d="M28.9561 223.356H26.6064L25.4341 207.795H30.1334L28.9561 223.356Z" fill="white" stroke="#263238" stroke-miterlimit="10"/>
<path d="M106.619 223.356H104.269L103.097 207.795H107.796L106.619 223.356Z" fill="white" stroke="#263238" stroke-miterlimit="10"/>
<path d="M85.1006 223.356H82.751L81.5786 207.795H86.2779L85.1006 223.356Z" fill="white" stroke="#263238" stroke-miterlimit="10"/>
<path d="M103.344 178.021H47.1992V210.625H103.344V178.021Z" fill="#263238" stroke="#263238" stroke-miterlimit="10"/>
<path d="M144.07 172.805C144.07 172.805 150.006 170.335 151.326 169.347C152.647 168.359 154.458 170.498 153.632 172.805C152.805 175.112 150.664 179.227 147.369 181.203C144.075 183.179 141.433 184.824 140.77 185.481C140.107 186.138 140.276 188.613 137.476 189.601C134.676 190.589 131.208 188.613 129.23 185.481C127.251 182.349 125.93 180.215 125.93 180.215C125.93 180.215 126.098 177.908 129.393 176.757C132.687 175.606 138.297 175.107 138.297 175.107L144.07 172.805Z" fill="white" stroke="#263238" stroke-miterlimit="10"/>
<path d="M76.5081 152.837C76.5081 152.837 80.421 151.889 81.4103 152.383C82.3996 152.877 85.699 156.009 85.699 156.009C85.699 156.009 105.649 156.335 107.133 156.997C108.617 157.659 123.952 169.347 127.251 170.992C130.55 172.637 133.35 174.119 133.35 174.119L130.877 184.987V185.975L131.045 187.625C131.045 187.625 122.468 184.987 120.326 184.493C118.184 183.999 109.28 179.39 108.454 179.39C107.628 179.39 100.87 177.414 100.87 177.414C100.87 177.414 99.8811 176.757 89.1617 175.769C78.4423 174.781 66.407 173.625 62.1183 173.462C57.8295 173.299 52.225 172.968 50.083 172.143C47.9411 171.318 44.147 165.558 43.4891 162.1C42.8312 158.642 49.7516 155.678 52.7196 154.359C55.6876 153.04 66.7385 151.395 68.7171 151.395C70.6958 151.395 76.5081 152.837 76.5081 152.837Z" fill="white" stroke="#263238" stroke-miterlimit="10"/>
<path d="M80.2579 157.654L76.9585 162.431L81.4105 159.467" fill="white"/>
<path d="M80.2579 157.654L76.9585 162.431L81.4105 159.467" stroke="#263238" stroke-miterlimit="10"/>
<path d="M130.877 171.98C130.877 171.98 135.661 168.191 136.65 167.04C137.639 165.889 140.939 159.63 141.597 157.654C142.255 155.678 143.907 154.69 145.059 156.172C146.212 157.654 147.038 160.618 147.696 161.937C148.354 163.256 147.369 169.673 145.391 171.817C143.412 173.961 140.677 179.153 140.113 180.215C138.629 183.011 136.319 183.342 134.835 183.505C133.351 183.668 129.725 179.721 129.725 179.721L130.877 171.98Z" fill="white" stroke="#263238" stroke-miterlimit="10"/>
<path d="M57.5031 160.949C57.5031 160.949 62.4498 159.961 66.9018 160.455C71.3538 160.949 80.421 163.745 84.2151 164.733C88.0092 165.721 94.7663 166.215 97.9025 167.371C101.039 168.527 109.28 170.004 115.542 170.004C121.805 170.004 131.372 170.829 131.372 170.829C131.372 170.829 130.056 180.378 130.382 182.191C130.708 183.65 131.149 185.08 131.703 186.469C131.703 186.469 119.005 187.457 115.379 187.951C111.753 188.445 97.0764 186.143 94.6031 185.481C92.1297 184.819 88.5038 183.836 86.1938 183.836C83.8837 183.836 79.4317 184.824 73.001 185.481C66.5703 186.138 57.5031 183.342 56.3505 183.179C55.1979 183.016 51.0724 181.529 50.0831 180.872C49.0938 180.215 43.321 170.004 45.2997 165.721C47.2783 161.438 49.7517 160.781 49.7517 160.781" fill="white"/>
<path d="M57.5031 160.949C57.5031 160.949 62.4498 159.961 66.9018 160.455C71.3538 160.949 80.421 163.745 84.2151 164.733C88.0092 165.721 94.7663 166.215 97.9025 167.371C101.039 168.527 109.28 170.004 115.542 170.004C121.805 170.004 131.372 170.829 131.372 170.829C131.372 170.829 130.056 180.378 130.382 182.191C130.708 183.65 131.149 185.08 131.703 186.469C131.703 186.469 119.005 187.457 115.379 187.951C111.753 188.445 97.0764 186.143 94.6031 185.481C92.1298 184.819 88.5038 183.836 86.1938 183.836C83.8837 183.836 79.4317 184.824 73.001 185.481C66.5703 186.138 57.5031 183.342 56.3505 183.179C55.1979 183.016 51.0724 181.529 50.0831 180.872C49.0938 180.215 43.321 170.004 45.2997 165.721C47.2783 161.438 49.7517 160.781 49.7517 160.781" stroke="#263238" stroke-miterlimit="10"/>
<path d="M87.8359 177.562C91.0166 178.194 94.3853 180.121 98.9412 181.904C105.021 184.28 117.189 184.063 118.758 184.28C120.326 184.498 124.308 184.28 124.308 184.28" fill="white"/>
<path d="M87.8359 177.562C91.0166 178.194 94.3853 180.121 98.9412 181.904C105.021 184.28 117.189 184.063 118.758 184.28C120.326 184.498 124.308 184.28 124.308 184.28" stroke="#263238" stroke-miterlimit="10"/>
<path d="M63.3105 179.795L65.126 180.057C70.409 180.847 80.4606 177.947 84.6752 177.419" fill="white"/>
<path d="M63.3105 179.795L65.126 180.057C70.409 180.847 80.4606 177.947 84.6752 177.419" stroke="#263238" stroke-miterlimit="10"/>
<path d="M57.9927 179.266C57.9927 179.266 58.9424 179.266 61.4207 179.558L57.9927 179.266Z" fill="white"/>
<path d="M57.9927 179.266C57.9927 179.266 58.9424 179.266 61.4207 179.558" stroke="#263238" stroke-miterlimit="10"/>
<path d="M25.9236 150.985C25.9236 150.985 19.9876 150.985 18.8004 156.913C17.6132 162.841 22.2631 187.294 22.6341 194.21C23.0051 201.126 24.1972 210.759 24.1972 210.759H45.2205L49.9199 150.985H25.9236Z" fill="#263238" stroke="#263238" stroke-miterlimit="10"/>
<path d="M49.9201 150.985C49.9201 150.985 43.9841 150.985 42.5001 156.913C41.0161 162.841 44.4788 187.294 44.4788 194.21C44.4788 201.126 45.2208 210.759 45.2208 210.759H52.6408C52.6408 210.759 53.3828 192.975 53.3828 190.505C53.3828 188.035 56.3508 162.347 54.8668 157.16C53.3828 151.973 52.1461 151.479 49.9201 150.985Z" fill="#636363" stroke="#263238" stroke-miterlimit="10"/>
<path d="M98.209 223.356H95.8594L94.687 207.795H99.3863L98.209 223.356Z" fill="white" stroke="#263238" stroke-miterlimit="10"/>
<path d="M118.243 223.356H115.894L114.721 207.795H119.421L118.243 223.356Z" fill="white" stroke="#263238" stroke-miterlimit="10"/>
<path d="M127.642 223.356H125.292L124.12 207.795H128.819L127.642 223.356Z" fill="white" stroke="#263238" stroke-miterlimit="10"/>
<path d="M147.429 223.356H145.079L143.907 207.795H148.606L147.429 223.356Z" fill="white" stroke="#263238" stroke-miterlimit="10"/>
<path d="M95.3054 187.541H146.973C147.924 187.541 148.837 187.918 149.509 188.59C150.182 189.261 150.56 190.172 150.56 191.122V216.44H91.6943V191.122C91.6943 190.65 91.7879 190.182 91.9697 189.746C92.1514 189.31 92.4178 188.914 92.7535 188.581C93.0891 188.248 93.4874 187.985 93.9254 187.806C94.3634 187.628 94.8324 187.537 95.3054 187.541Z" fill="#263238" stroke="#263238" stroke-miterlimit="10"/>
<path d="M146.998 187.541H128.201C127.25 187.541 126.338 187.918 125.665 188.59C124.993 189.261 124.615 190.172 124.615 191.122V216.44H150.585V191.122C150.583 190.173 150.205 189.263 149.533 188.591C148.861 187.92 147.949 187.542 146.998 187.541Z" fill="#636363" stroke="#263238" stroke-miterlimit="10"/>
</svg>
