<svg width="346" height="313" viewBox="0 0 346 313" fill="none" xmlns="http://www.w3.org/2000/svg">
<path d="M319.897 87.533H250.228V245.577H319.897V87.533Z" stroke="#263238" stroke-width="0.75" stroke-linecap="round" stroke-linejoin="round"/>
<path d="M313.782 93.6482H256.343V239.461H313.782V93.6482Z" stroke="#263238" stroke-width="0.75" stroke-linecap="round" stroke-linejoin="round"/>
<path d="M262.872 158.029L261.304 160.751" stroke="#263238" stroke-width="0.75" stroke-linecap="round" stroke-linejoin="round"/>
<path d="M279.361 129.481L264.681 154.909" stroke="#263238" stroke-width="0.75" stroke-linecap="round" stroke-linejoin="round"/>
<path d="M292.831 106.144L281.708 125.41" stroke="#263238" stroke-width="0.75" stroke-linecap="round" stroke-linejoin="round"/>
<path d="M295.187 102.072L294.001 104.116" stroke="#263238" stroke-width="0.75" stroke-linecap="round" stroke-linejoin="round"/>
<path d="M267.544 227.332L266.21 229.641" stroke="#263238" stroke-width="0.75" stroke-linecap="round" stroke-linejoin="round"/>
<path d="M270.633 221.982L269.221 224.439" stroke="#263238" stroke-width="0.75" stroke-linecap="round" stroke-linejoin="round"/>
<path d="M289.47 189.354L273.659 216.748" stroke="#263238" stroke-width="0.75" stroke-linecap="round" stroke-linejoin="round"/>
<path d="M303.47 165.104L291.092 186.554" stroke="#263238" stroke-width="0.75" stroke-linecap="round" stroke-linejoin="round"/>
<path d="M306.536 159.8L305.312 161.922" stroke="#263238" stroke-width="0.75" stroke-linecap="round" stroke-linejoin="round"/>
<path d="M285.063 209.884L273.659 229.641" stroke="#263238" stroke-width="0.75" stroke-linecap="round" stroke-linejoin="round"/>
<path d="M299.649 184.62L286.724 207.006" stroke="#263238" stroke-width="0.75" stroke-linecap="round" stroke-linejoin="round"/>
<path d="M302.683 179.37L301.154 182.014" stroke="#263238" stroke-width="0.75" stroke-linecap="round" stroke-linejoin="round"/>
<path d="M261.304 178.481L259.572 181.484" stroke="#263238" stroke-width="0.75" stroke-linecap="round" stroke-linejoin="round"/>
<path d="M276.459 152.234L262.692 176.079" stroke="#263238" stroke-width="0.75" stroke-linecap="round" stroke-linejoin="round"/>
<path d="M295.374 119.474L278.082 149.418" stroke="#263238" stroke-width="0.75" stroke-linecap="round" stroke-linejoin="round"/>
<path d="M306.739 99.7867L296.708 117.165" stroke="#263238" stroke-width="0.75" stroke-linecap="round" stroke-linejoin="round"/>
<path d="M95.7721 87.533H26.1025V245.577H95.7721V87.533Z" stroke="#263238" stroke-width="0.75" stroke-linecap="round" stroke-linejoin="round"/>
<path d="M89.657 93.6482H32.2178V239.461H89.657V93.6482Z" stroke="#263238" stroke-width="0.75" stroke-linecap="round" stroke-linejoin="round"/>
<path d="M38.7465 158.029L37.1787 160.751" stroke="#263238" stroke-width="0.75" stroke-linecap="round" stroke-linejoin="round"/>
<path d="M55.2279 129.481L40.5483 154.909" stroke="#263238" stroke-width="0.75" stroke-linecap="round" stroke-linejoin="round"/>
<path d="M68.7063 106.144L57.5835 125.41" stroke="#263238" stroke-width="0.75" stroke-linecap="round" stroke-linejoin="round"/>
<path d="M71.0538 102.072L69.876 104.116" stroke="#263238" stroke-width="0.75" stroke-linecap="round" stroke-linejoin="round"/>
<path d="M43.4188 227.332L42.085 229.641" stroke="#263238" stroke-width="0.75" stroke-linecap="round" stroke-linejoin="round"/>
<path d="M46.5075 221.982L45.0879 224.439" stroke="#263238" stroke-width="0.75" stroke-linecap="round" stroke-linejoin="round"/>
<path d="M65.3443 189.354L49.5259 216.748" stroke="#263238" stroke-width="0.75" stroke-linecap="round" stroke-linejoin="round"/>
<path d="M79.3454 165.104L66.959 186.554" stroke="#263238" stroke-width="0.75" stroke-linecap="round" stroke-linejoin="round"/>
<path d="M82.4106 159.8L81.1782 161.922" stroke="#263238" stroke-width="0.75" stroke-linecap="round" stroke-linejoin="round"/>
<path d="M60.9373 209.884L49.5259 229.641" stroke="#263238" stroke-width="0.75" stroke-linecap="round" stroke-linejoin="round"/>
<path d="M75.5232 184.62L62.5986 207.006" stroke="#263238" stroke-width="0.75" stroke-linecap="round" stroke-linejoin="round"/>
<path d="M78.5498 179.37L77.0288 182.014" stroke="#263238" stroke-width="0.75" stroke-linecap="round" stroke-linejoin="round"/>
<path d="M37.1784 178.481L35.439 181.484" stroke="#263238" stroke-width="0.75" stroke-linecap="round" stroke-linejoin="round"/>
<path d="M52.3261 152.234L38.5591 176.079" stroke="#263238" stroke-width="0.75" stroke-linecap="round" stroke-linejoin="round"/>
<path d="M71.2413 119.474L53.9565 149.418" stroke="#263238" stroke-width="0.75" stroke-linecap="round" stroke-linejoin="round"/>
<path d="M82.6055 99.7867L72.5747 117.165" stroke="#263238" stroke-width="0.75" stroke-linecap="round" stroke-linejoin="round"/>
<path d="M1.00977 311.455H344.99" stroke="#263238" stroke-linecap="round" stroke-linejoin="round"/>
<path d="M120.498 249.664H114.531V269.952H120.498V249.664Z" fill="white"/>
<path opacity="0.2" d="M120.498 249.664H114.531V269.952H120.498V249.664Z" fill="black"/>
<path d="M126.473 251.895H120.506V269.952H126.473V251.895Z" fill="white"/>
<path d="M133.922 251.895H129.71V269.952H133.922V251.895Z" fill="white"/>
<path opacity="0.9" d="M133.922 251.895H129.71V269.952H133.922V251.895Z" fill="white"/>
<path d="M129.718 249.991H125.896V269.959H129.718V249.991Z" fill="white"/>
<path opacity="0.1" d="M129.718 249.991H125.896V269.959H129.718V249.991Z" fill="black"/>
<path d="M139.897 249.664H133.93V269.952H139.897V249.664Z" fill="white"/>
<path d="M145.863 251.895H139.896V269.952H145.863V251.895Z" fill="white"/>
<path opacity="0.2" d="M145.863 251.895H139.896V269.952H145.863V251.895Z" fill="#263238"/>
<path d="M153.32 251.895H149.108V269.952H153.32V251.895Z" fill="white"/>
<path opacity="0.8" d="M153.32 251.895H149.108V269.952H153.32V251.895Z" fill="white"/>
<path d="M149.109 249.991H145.287V269.959H149.109V249.991Z" fill="white"/>
<path opacity="0.1" d="M149.109 249.991H145.287V269.959H149.109V249.991Z" fill="black"/>
<path d="M181.79 269.959H187.757V249.672H181.79V269.959Z" fill="white"/>
<path opacity="0.2" d="M181.79 269.959H187.757V249.672H181.79V269.959Z" fill="black"/>
<path d="M175.816 269.959H181.783V251.902H175.816V269.959Z" fill="white"/>
<path d="M168.367 269.959H172.579V251.902H168.367V269.959Z" fill="white"/>
<path opacity="0.9" d="M168.367 269.959H172.579V251.902H168.367V269.959Z" fill="white"/>
<path d="M172.571 269.952H176.393V249.984H172.571V269.952Z" fill="white"/>
<path opacity="0.1" d="M172.571 269.952H176.393V249.984H172.571V269.952Z" fill="black"/>
<path d="M162.392 269.959H168.359V249.672H162.392V269.959Z" fill="white"/>
<path d="M156.425 269.959H162.392V251.902H156.425V269.959Z" fill="white"/>
<path opacity="0.2" d="M156.425 269.959H162.392V251.902H156.425V269.959Z" fill="#263238"/>
<path d="M153.18 269.952H157.002V249.984H153.18V269.952Z" fill="white"/>
<path opacity="0.1" d="M153.18 269.952H157.002V249.984H153.18V269.952Z" fill="black"/>
<path d="M216.188 269.959H222.155V249.672H216.188V269.959Z" fill="white"/>
<path opacity="0.2" d="M216.188 269.959H222.155V249.672H216.188V269.959Z" fill="black"/>
<path d="M210.214 269.959H216.181V251.902H210.214V269.959Z" fill="white"/>
<path d="M202.765 269.959H206.977V251.902H202.765V269.959Z" fill="white"/>
<path opacity="0.9" d="M202.765 269.959H206.977V251.902H202.765V269.959Z" fill="white"/>
<path d="M206.969 269.952H210.791V249.984H206.969V269.952Z" fill="white"/>
<path opacity="0.1" d="M206.969 269.952H210.791V249.984H206.969V269.952Z" fill="black"/>
<path d="M196.79 269.959H202.757V249.672H196.79V269.959Z" fill="white"/>
<path d="M226.04 269.243L229.959 268.192L224.684 248.513L220.765 249.563L226.04 269.243Z" fill="white"/>
<path d="M190.823 269.959H196.79V251.902H190.823V269.959Z" fill="white"/>
<path opacity="0.2" d="M190.823 269.959H196.79V251.902H190.823V269.959Z" fill="#263238"/>
<path d="M187.578 269.952H191.4V249.984H187.578V269.952Z" fill="white"/>
<path opacity="0.1" d="M187.578 269.952H191.4V249.984H187.578V269.952Z" fill="black"/>
<path d="M228.038 296.313L232.046 295.239L226.795 275.642L222.787 276.716L228.038 296.313Z" fill="white"/>
<path opacity="0.2" d="M228.038 296.313L232.046 295.239L226.795 275.642L222.787 276.716L228.038 296.313Z" fill="black"/>
<path d="M217.741 296.113H223.708V278.056H217.741V296.113Z" fill="white"/>
<path d="M210.276 296.113H214.488V278.056H210.276V296.113Z" fill="white"/>
<path opacity="0.9" d="M210.276 296.113H214.488V278.056H210.276V296.113Z" fill="white"/>
<path d="M214.488 296.121H218.31V276.153H214.488V296.121Z" fill="white"/>
<path opacity="0.1" d="M214.488 296.121H218.31V276.153H214.488V296.121Z" fill="black"/>
<path d="M204.317 296.121H210.284V275.833H204.317V296.121Z" fill="white"/>
<path d="M198.342 296.113H204.309V278.056H198.342V296.113Z" fill="white"/>
<path opacity="0.2" d="M198.342 296.113H204.309V278.056H198.342V296.113Z" fill="#263238"/>
<path d="M190.893 296.113H195.105V278.056H190.893V296.113Z" fill="white"/>
<path opacity="0.8" d="M190.893 296.113H195.105V278.056H190.893V296.113Z" fill="white"/>
<path d="M195.097 296.121H198.919V276.153H195.097V296.121Z" fill="white"/>
<path opacity="0.1" d="M195.097 296.121H198.919V276.153H195.097V296.121Z" fill="black"/>
<path d="M162.423 275.833H156.456V296.121H162.423V275.833Z" fill="white"/>
<path opacity="0.2" d="M162.423 275.833H156.456V296.121H162.423V275.833Z" fill="black"/>
<path d="M168.39 278.063H162.423V296.12H168.39V278.063Z" fill="white"/>
<path d="M175.847 278.063H171.635V296.12H175.847V278.063Z" fill="white"/>
<path opacity="0.9" d="M175.847 278.063H171.635V296.12H175.847V278.063Z" fill="white"/>
<path d="M171.635 276.153H167.813V296.121H171.635V276.153Z" fill="white"/>
<path opacity="0.1" d="M171.635 276.153H167.813V296.121H171.635V276.153Z" fill="black"/>
<path d="M181.814 275.833H175.847V296.121H181.814V275.833Z" fill="white"/>
<path d="M187.781 278.063H181.814V296.12H187.781V278.063Z" fill="white"/>
<path opacity="0.2" d="M187.781 278.063H181.814V296.12H187.781V278.063Z" fill="#263238"/>
<path d="M191.026 276.153H187.204V296.121H191.026V276.153Z" fill="white"/>
<path opacity="0.1" d="M191.026 276.153H187.204V296.121H191.026V276.153Z" fill="black"/>
<path d="M128.025 275.833H122.058V296.121H128.025V275.833Z" fill="white"/>
<path opacity="0.2" d="M128.025 275.833H122.058V296.121H128.025V275.833Z" fill="black"/>
<path d="M133.992 278.063H128.025V296.12H133.992V278.063Z" fill="white"/>
<path d="M141.449 278.063H137.237V296.12H141.449V278.063Z" fill="white"/>
<path opacity="0.9" d="M141.449 278.063H137.237V296.12H141.449V278.063Z" fill="white"/>
<path d="M137.237 276.153H133.415V296.121H137.237V276.153Z" fill="white"/>
<path opacity="0.1" d="M137.237 276.153H133.415V296.121H137.237V276.153Z" fill="black"/>
<path d="M147.416 275.833H141.449V296.121H147.416V275.833Z" fill="white"/>
<path d="M122.046 276.7L118.143 275.654L112.892 295.251L116.795 296.296L122.046 276.7Z" fill="white"/>
<path d="M153.383 278.063H147.416V296.12H153.383V278.063Z" fill="white"/>
<path opacity="0.2" d="M153.383 278.063H147.416V296.12H153.383V278.063Z" fill="#263238"/>
<path d="M156.628 276.153H152.806V296.121H156.628V276.153Z" fill="white"/>
<path opacity="0.1" d="M156.628 276.153H152.806V296.121H156.628V276.153Z" fill="black"/>
<path d="M119.118 311.455H113.151L112.332 299.911H119.937L119.118 311.455Z" fill="#263238"/>
<path d="M232.849 311.455H226.882L226.063 299.911H233.668L232.849 311.455Z" fill="#263238"/>
<path d="M239.425 242.004H106.575C105.816 242.004 105.088 242.306 104.551 242.843C104.014 243.379 103.712 244.108 103.712 244.867V299.139C103.712 299.898 104.014 300.626 104.551 301.163C105.088 301.7 105.816 302.002 106.575 302.002H239.425C240.184 302.002 240.912 301.7 241.449 301.163C241.986 300.626 242.287 299.898 242.287 299.139V244.867C242.287 244.108 241.986 243.379 241.449 242.843C240.912 242.306 240.184 242.004 239.425 242.004ZM236.554 247.737V269.959H109.414V247.737H236.554ZM109.445 296.3V274.054H236.585V296.3H109.445Z" fill="white" stroke="#263238" stroke-width="0.75" stroke-linecap="round" stroke-linejoin="round"/>
<path d="M219.784 128.007H127.861C124.906 128.007 122.51 130.403 122.51 133.358V153.092C122.51 156.047 124.906 158.443 127.861 158.443H219.784C222.739 158.443 225.135 156.047 225.135 153.092V133.358C225.135 130.403 222.739 128.007 219.784 128.007Z" fill="#263238" stroke="#263238" stroke-linecap="round" stroke-linejoin="round"/>
<path d="M218.146 126.369H126.223C123.268 126.369 120.873 128.765 120.873 131.72V151.454C120.873 154.409 123.268 156.805 126.223 156.805H218.146C221.102 156.805 223.497 154.409 223.497 151.454V131.72C223.497 128.765 221.102 126.369 218.146 126.369Z" fill="white" stroke="#263238" stroke-linecap="round" stroke-linejoin="round"/>
<path d="M218.146 126.369H126.223C123.268 126.369 120.873 128.765 120.873 131.72V151.454C120.873 154.409 123.268 156.805 126.223 156.805H218.146C221.102 156.805 223.497 154.409 223.497 151.454V131.72C223.497 128.765 221.102 126.369 218.146 126.369Z" stroke="#263238" stroke-linecap="round" stroke-linejoin="round"/>
<path d="M143.594 150.573H130.077V133.475H139.086L143.594 137.984V150.573Z" fill="white"/>
<path opacity="0.5" d="M143.594 150.573H130.077V133.475H139.086L143.594 137.984V150.573Z" fill="white"/>
<path d="M143.594 150.573H130.077V133.475H139.086L143.594 137.983V150.573Z" stroke="#263238" stroke-linecap="round" stroke-linejoin="round"/>
<path d="M139.085 137.984H143.594L139.085 133.475V137.984Z" fill="white" stroke="#263238" stroke-linecap="round" stroke-linejoin="round"/>
<path d="M133.08 142.546C132.867 142.526 132.67 142.427 132.526 142.269C132.383 142.112 132.303 141.906 132.303 141.692C132.303 141.479 132.383 141.273 132.526 141.115C132.67 140.957 132.867 140.859 133.08 140.838H140.591C140.803 140.859 141.001 140.957 141.144 141.115C141.288 141.273 141.367 141.479 141.367 141.692C141.367 141.906 141.288 142.112 141.144 142.269C141.001 142.427 140.803 142.526 140.591 142.546H133.08Z" fill="#858585" stroke="#263238" stroke-width="0.75" stroke-linecap="round" stroke-linejoin="round"/>
<path d="M133.08 146.142C132.867 146.122 132.67 146.023 132.526 145.865C132.383 145.707 132.303 145.502 132.303 145.288C132.303 145.075 132.383 144.869 132.526 144.711C132.67 144.553 132.867 144.454 133.08 144.434H138.953C139.165 144.454 139.363 144.553 139.506 144.711C139.65 144.869 139.729 145.075 139.729 145.288C139.729 145.502 139.65 145.707 139.506 145.865C139.363 146.023 139.165 146.122 138.953 146.142H133.08Z" fill="#858585" stroke="#263238" stroke-width="0.75" stroke-linecap="round" stroke-linejoin="round"/>
<path d="M177.766 143.529H152.611C152.162 143.559 151.742 143.758 151.435 144.086C151.128 144.414 150.958 144.847 150.958 145.296C150.958 145.745 151.128 146.178 151.435 146.506C151.742 146.834 152.162 147.033 152.611 147.063H177.766V143.529Z" fill="white"/>
<path d="M152.611 147.063C152.162 147.033 151.742 146.834 151.435 146.506C151.128 146.178 150.958 145.745 150.958 145.296C150.958 144.847 151.128 144.414 151.435 144.086C151.742 143.758 152.162 143.559 152.611 143.529H212.515C212.757 143.513 212.999 143.547 213.227 143.628C213.456 143.71 213.665 143.837 213.842 144.003C214.019 144.169 214.16 144.369 214.256 144.591C214.353 144.814 214.403 145.054 214.403 145.296C214.403 145.538 214.353 145.778 214.256 146.001C214.16 146.223 214.019 146.423 213.842 146.589C213.665 146.754 213.456 146.882 213.227 146.964C212.999 147.045 212.757 147.079 212.515 147.063H152.611Z" stroke="#263238" stroke-linecap="round" stroke-linejoin="round"/>
<path d="M178.335 138.74H176.439V137.843L178.241 133.576H179.325V137.843H179.793V138.74H179.325V139.887H178.335V138.74ZM178.335 137.843V135.386L177.36 137.851L178.335 137.843Z" fill="#263238"/>
<path d="M180.254 138.397V137.905H181.19V138.467C181.19 138.919 181.385 139.083 181.705 139.083C182.025 139.083 182.22 138.919 182.22 138.467V137.055C182.22 136.603 182.017 136.431 181.705 136.431C181.393 136.431 181.19 136.603 181.19 137.055V137.11H180.254L180.433 133.584H183.046V134.489H181.315L181.237 135.994C181.324 135.846 181.45 135.725 181.601 135.644C181.753 135.563 181.923 135.525 182.095 135.534C182.82 135.534 183.195 136.049 183.195 136.977V138.397C183.195 139.411 182.688 139.957 181.713 139.957C180.738 139.957 180.254 139.411 180.254 138.397Z" fill="#263238"/>
<path d="M183.826 136.08V134.52C183.814 134.388 183.83 134.254 183.873 134.127C183.915 134.001 183.983 133.885 184.073 133.787C184.163 133.688 184.273 133.61 184.395 133.556C184.517 133.502 184.648 133.474 184.782 133.474C184.915 133.474 185.047 133.502 185.169 133.556C185.291 133.61 185.4 133.688 185.49 133.787C185.58 133.885 185.648 134.001 185.691 134.127C185.733 134.254 185.749 134.388 185.737 134.52V136.08C185.749 136.213 185.733 136.347 185.691 136.473C185.648 136.599 185.58 136.715 185.49 136.814C185.4 136.912 185.291 136.991 185.169 137.045C185.047 137.098 184.915 137.126 184.782 137.126C184.648 137.126 184.517 137.098 184.395 137.045C184.273 136.991 184.163 136.912 184.073 136.814C183.983 136.715 183.915 136.599 183.873 136.473C183.83 136.347 183.814 136.213 183.826 136.08ZM185.105 136.127V134.458C185.105 134.185 184.981 134.068 184.786 134.068C184.591 134.068 184.458 134.185 184.458 134.458V136.127C184.458 136.408 184.575 136.525 184.786 136.525C184.996 136.525 185.105 136.4 185.105 136.127ZM187.071 133.584H187.703L185.261 139.895H184.63L187.071 133.584ZM186.595 138.974V137.414C186.583 137.281 186.599 137.148 186.641 137.021C186.684 136.895 186.752 136.779 186.842 136.681C186.932 136.582 187.042 136.504 187.164 136.45C187.286 136.396 187.417 136.368 187.551 136.368C187.684 136.368 187.816 136.396 187.938 136.45C188.06 136.504 188.169 136.582 188.259 136.681C188.349 136.779 188.417 136.895 188.46 137.021C188.502 137.148 188.518 137.281 188.506 137.414V138.974C188.518 139.107 188.502 139.241 188.46 139.367C188.417 139.493 188.349 139.609 188.259 139.708C188.169 139.806 188.06 139.885 187.938 139.938C187.816 139.992 187.684 140.02 187.551 140.02C187.417 140.02 187.286 139.992 187.164 139.938C187.042 139.885 186.932 139.806 186.842 139.708C186.752 139.609 186.684 139.493 186.641 139.367C186.599 139.241 186.583 139.107 186.595 138.974ZM187.874 139.021V137.352C187.874 137.071 187.75 136.954 187.547 136.954C187.344 136.954 187.227 137.071 187.227 137.352V139.021C187.227 139.302 187.344 139.419 187.547 139.419C187.75 139.419 187.874 139.302 187.874 139.021Z" fill="#263238"/>
<path d="M219.784 163.326H127.861C124.906 163.326 122.51 165.721 122.51 168.676V188.41C122.51 191.366 124.906 193.761 127.861 193.761H219.784C222.739 193.761 225.135 191.366 225.135 188.41V168.676C225.135 165.721 222.739 163.326 219.784 163.326Z" fill="#263238" stroke="#263238" stroke-linecap="round" stroke-linejoin="round"/>
<path d="M218.146 161.688H126.223C123.268 161.688 120.873 164.083 120.873 167.038V186.772C120.873 189.728 123.268 192.123 126.223 192.123H218.146C221.102 192.123 223.497 189.728 223.497 186.772V167.038C223.497 164.083 221.102 161.688 218.146 161.688Z" fill="white" stroke="#263238" stroke-linecap="round" stroke-linejoin="round"/>
<path d="M197.609 178.629H152.611C152.162 178.659 151.742 178.858 151.435 179.186C151.128 179.514 150.958 179.947 150.958 180.396C150.958 180.845 151.128 181.278 151.435 181.606C151.742 181.934 152.162 182.133 152.611 182.163H197.609V178.629Z" fill="white"/>
<path d="M152.611 182.163C152.162 182.133 151.742 181.934 151.435 181.606C151.128 181.278 150.958 180.845 150.958 180.396C150.958 179.947 151.128 179.514 151.435 179.186C151.742 178.858 152.162 178.659 152.611 178.629H212.515C212.757 178.613 212.999 178.647 213.227 178.728C213.456 178.81 213.665 178.937 213.842 179.103C214.019 179.269 214.16 179.469 214.256 179.691C214.353 179.914 214.403 180.154 214.403 180.396C214.403 180.638 214.353 180.878 214.256 181.101C214.16 181.323 214.019 181.523 213.842 181.689C213.665 181.854 213.456 181.982 213.227 182.063C212.999 182.145 212.757 182.179 212.515 182.163H152.611Z" stroke="#263238" stroke-linecap="round" stroke-linejoin="round"/>
<path d="M176.557 173.528V172.967C176.526 172.712 176.571 172.454 176.686 172.225C176.801 171.996 176.981 171.807 177.204 171.68C176.992 171.556 176.821 171.372 176.713 171.151C176.604 170.931 176.564 170.683 176.596 170.439V170.182C176.596 169.781 176.755 169.396 177.039 169.112C177.323 168.828 177.707 168.669 178.109 168.669C178.51 168.669 178.895 168.828 179.179 169.112C179.463 169.396 179.622 169.781 179.622 170.182V170.439C179.65 170.683 179.607 170.931 179.498 171.151C179.388 171.371 179.217 171.554 179.006 171.68C179.23 171.805 179.412 171.995 179.528 172.224C179.645 172.453 179.691 172.711 179.661 172.967V173.528C179.661 173.942 179.497 174.339 179.204 174.631C178.912 174.924 178.515 175.088 178.101 175.088C177.687 175.088 177.29 174.924 176.998 174.631C176.705 174.339 176.541 173.942 176.541 173.528H176.557ZM178.67 173.473V172.865C178.67 172.389 178.475 172.155 178.109 172.155C177.742 172.155 177.547 172.389 177.547 172.865V173.473C177.547 173.949 177.742 174.183 178.109 174.183C178.475 174.183 178.67 173.949 178.67 173.473ZM178.67 170.627V170.127C178.67 169.714 178.491 169.495 178.148 169.495C177.805 169.495 177.625 169.714 177.625 170.127V170.627C177.625 171.04 177.805 171.258 178.148 171.258C178.491 171.258 178.631 171.04 178.631 170.627H178.67Z" fill="#263238"/>
<path d="M180.254 173.497V173.006H181.19V173.567C181.19 174.02 181.385 174.183 181.705 174.183C182.024 174.183 182.219 174.02 182.219 173.567V172.155C182.219 171.703 182.017 171.531 181.705 171.531C181.393 171.531 181.19 171.703 181.19 172.155V172.21H180.254L180.433 168.684H183.046V169.589H181.315L181.237 171.095C181.324 170.946 181.45 170.825 181.601 170.744C181.752 170.663 181.923 170.625 182.095 170.634C182.82 170.634 183.194 171.149 183.194 172.077V173.497C183.209 173.7 183.182 173.904 183.114 174.096C183.047 174.288 182.94 174.464 182.802 174.614C182.663 174.763 182.495 174.882 182.308 174.963C182.122 175.044 181.92 175.086 181.716 175.086C181.513 175.086 181.311 175.044 181.124 174.963C180.938 174.882 180.77 174.763 180.631 174.614C180.492 174.464 180.386 174.288 180.318 174.096C180.251 173.904 180.224 173.7 180.238 173.497H180.254Z" fill="#263238"/>
<path d="M183.826 171.18V169.62C183.814 169.488 183.83 169.354 183.873 169.227C183.915 169.101 183.983 168.985 184.073 168.887C184.163 168.788 184.273 168.71 184.395 168.656C184.517 168.602 184.648 168.574 184.782 168.574C184.915 168.574 185.047 168.602 185.169 168.656C185.291 168.71 185.4 168.788 185.49 168.887C185.58 168.985 185.648 169.101 185.691 169.227C185.733 169.354 185.749 169.488 185.737 169.62V171.18C185.749 171.313 185.733 171.447 185.691 171.573C185.648 171.699 185.58 171.815 185.49 171.914C185.4 172.012 185.291 172.091 185.169 172.145C185.047 172.198 184.915 172.226 184.782 172.226C184.648 172.226 184.517 172.198 184.395 172.145C184.273 172.091 184.163 172.012 184.073 171.914C183.983 171.815 183.915 171.699 183.873 171.573C183.83 171.447 183.814 171.313 183.826 171.18ZM185.105 171.227V169.558C185.105 169.285 184.981 169.16 184.786 169.16C184.591 169.16 184.458 169.285 184.458 169.558V171.227C184.458 171.508 184.575 171.625 184.786 171.625C184.996 171.625 185.105 171.5 185.105 171.227ZM187.071 168.684H187.703L185.261 174.994H184.63L187.071 168.684ZM186.595 174.074V172.514C186.583 172.381 186.599 172.248 186.641 172.121C186.684 171.995 186.752 171.879 186.842 171.781C186.932 171.682 187.042 171.604 187.164 171.55C187.286 171.496 187.417 171.468 187.551 171.468C187.684 171.468 187.816 171.496 187.938 171.55C188.06 171.604 188.169 171.682 188.259 171.781C188.349 171.879 188.417 171.995 188.46 172.121C188.502 172.248 188.518 172.381 188.506 172.514V174.074C188.518 174.207 188.502 174.341 188.46 174.467C188.417 174.593 188.349 174.709 188.259 174.808C188.169 174.906 188.06 174.985 187.938 175.038C187.816 175.092 187.684 175.12 187.551 175.12C187.417 175.12 187.286 175.092 187.164 175.038C187.042 174.985 186.932 174.906 186.842 174.808C186.752 174.709 186.684 174.593 186.641 174.467C186.599 174.341 186.583 174.207 186.595 174.074ZM187.874 174.121V172.452C187.874 172.171 187.75 172.054 187.547 172.054C187.344 172.054 187.227 172.171 187.227 172.452V174.121C187.227 174.402 187.344 174.519 187.547 174.519C187.75 174.519 187.874 174.402 187.874 174.121Z" fill="#263238"/>
<path d="M143.594 185.673H130.077V168.575H139.086L143.594 173.083V185.673Z" fill="white"/>
<path opacity="0.5" d="M143.594 185.673H130.077V168.575H139.086L143.594 173.083V185.673Z" fill="white" stroke="#263238" stroke-linecap="round" stroke-linejoin="round"/>
<path d="M143.594 185.673H130.077V168.575H139.086L143.594 173.083V185.673Z" stroke="#263238" stroke-linecap="round" stroke-linejoin="round"/>
<path d="M133.08 177.646C132.867 177.626 132.67 177.527 132.526 177.369C132.383 177.211 132.303 177.006 132.303 176.792C132.303 176.579 132.383 176.373 132.526 176.215C132.67 176.057 132.867 175.959 133.08 175.938H140.591C140.803 175.959 141.001 176.057 141.144 176.215C141.288 176.373 141.367 176.579 141.367 176.792C141.367 177.006 141.288 177.211 141.144 177.369C141.001 177.527 140.803 177.626 140.591 177.646H133.08Z" fill="#858585" stroke="#263238" stroke-width="0.75" stroke-linecap="round" stroke-linejoin="round"/>
<path d="M133.08 181.242C132.867 181.222 132.67 181.123 132.526 180.965C132.383 180.807 132.303 180.602 132.303 180.388C132.303 180.175 132.383 179.969 132.526 179.811C132.67 179.653 132.867 179.554 133.08 179.534H138.953C139.165 179.554 139.363 179.653 139.506 179.811C139.65 179.969 139.729 180.175 139.729 180.388C139.729 180.602 139.65 180.807 139.506 180.965C139.363 181.123 139.165 181.222 138.953 181.242H133.08Z" fill="#858585" stroke="#263238" stroke-width="0.75" stroke-linecap="round" stroke-linejoin="round"/>
<path d="M139.085 173.083H143.594L139.085 168.575V173.083Z" fill="white" stroke="#263238" stroke-linecap="round" stroke-linejoin="round"/>
<path d="M232.35 80.8485H115.288C112.333 80.8485 109.937 83.2441 109.937 86.1993V113.398C109.937 116.353 112.333 118.749 115.288 118.749H232.35C235.305 118.749 237.701 116.353 237.701 113.398V86.1993C237.701 83.2441 235.305 80.8485 232.35 80.8485Z" fill="#263238" stroke="#263238" stroke-linecap="round" stroke-linejoin="round"/>
<path d="M230.712 79.2104H113.65C110.694 79.2104 108.299 81.6061 108.299 84.5613V111.76C108.299 114.715 110.694 117.111 113.65 117.111H230.712C233.667 117.111 236.063 114.715 236.063 111.76V84.5613C236.063 81.6061 233.667 79.2104 230.712 79.2104Z" fill="white" stroke="#263238" stroke-linecap="round" stroke-linejoin="round"/>
<path d="M152.892 113.991H127.861V82.3304H144.546L152.892 90.6686V113.991Z" fill="white"/>
<path opacity="0.7" d="M152.892 113.991H127.861V82.3304H144.546L152.892 90.6686V113.991Z" fill="white"/>
<path d="M152.892 113.991H127.861V82.3304H144.546L152.892 90.6686V113.991Z" stroke="#263238" stroke-linecap="round" stroke-linejoin="round"/>
<path d="M144.545 90.6686H152.891L144.545 82.3304V90.6686Z" fill="white" stroke="#263238" stroke-linecap="round" stroke-linejoin="round"/>
<path d="M135.248 94.5686H130.334V99.4826H135.248V94.5686Z" stroke="white" stroke-width="0.75" stroke-linecap="round" stroke-linejoin="round"/>
<path d="M140.302 94.5686H135.388V99.4826H140.302V94.5686Z" stroke="white" stroke-width="0.75" stroke-linecap="round" stroke-linejoin="round"/>
<path d="M145.364 94.5686H140.45V99.4826H145.364V94.5686Z" stroke="white" stroke-width="0.75" stroke-linecap="round" stroke-linejoin="round"/>
<path d="M150.419 94.5686H145.505V99.4826H150.419V94.5686Z" stroke="white" stroke-width="0.75" stroke-linecap="round" stroke-linejoin="round"/>
<path d="M135.248 99.4827H130.334V104.397H135.248V99.4827Z" stroke="white" stroke-width="0.75" stroke-linecap="round" stroke-linejoin="round"/>
<path d="M140.302 99.4827H135.388V104.397H140.302V99.4827Z" stroke="white" stroke-width="0.75" stroke-linecap="round" stroke-linejoin="round"/>
<path d="M145.364 99.4827H140.45V104.397H145.364V99.4827Z" stroke="white" stroke-width="0.75" stroke-linecap="round" stroke-linejoin="round"/>
<path d="M150.419 99.4827H145.505V104.397H150.419V99.4827Z" stroke="white" stroke-width="0.75" stroke-linecap="round" stroke-linejoin="round"/>
<path d="M135.248 104.397H130.334V109.311H135.248V104.397Z" stroke="white" stroke-width="0.75" stroke-linecap="round" stroke-linejoin="round"/>
<path d="M140.302 104.397H135.388V109.311H140.302V104.397Z" stroke="white" stroke-width="0.75" stroke-linecap="round" stroke-linejoin="round"/>
<path d="M145.364 104.397H140.45V109.311H145.364V104.397Z" stroke="white" stroke-width="0.75" stroke-linecap="round" stroke-linejoin="round"/>
<path d="M150.419 104.397H145.505V109.311H150.419V104.397Z" stroke="white" stroke-width="0.75" stroke-linecap="round" stroke-linejoin="round"/>
<path d="M130.427 108.835L135.388 104.28L137.845 104.397L140.528 99.5528L142.907 101.94L145.575 99.1394L147.962 94.5686" stroke="white" stroke-width="2" stroke-linecap="round" stroke-linejoin="round"/>
<path d="M145.146 95.996L147.962 94.5686L148.531 97.6418" stroke="white" stroke-width="2" stroke-linecap="round" stroke-linejoin="round"/>
<path d="M162.735 97.1504H161.3V96.1988C162.439 96.1988 162.86 95.9492 163.156 95.1146H164.061V103.695H162.712L162.735 97.1504Z" fill="#263238"/>
<path d="M165.66 101.675V97.1505C165.66 96.6064 165.876 96.0847 166.261 95.7C166.646 95.3153 167.168 95.0991 167.712 95.0991C168.256 95.0991 168.777 95.3153 169.162 95.7C169.547 96.0847 169.763 96.6064 169.763 97.1505V101.675C169.763 102.219 169.547 102.74 169.162 103.125C168.777 103.51 168.256 103.726 167.712 103.726C167.168 103.726 166.646 103.51 166.261 103.125C165.876 102.74 165.66 102.219 165.66 101.675ZM168.414 101.76V97.0803C168.414 96.4719 168.141 96.2379 167.712 96.2379C167.283 96.2379 167.01 96.4719 167.01 97.0803V101.76C167.01 102.377 167.283 102.611 167.712 102.611C168.141 102.611 168.414 102.377 168.414 101.76Z" fill="#263238"/>
<path d="M170.574 101.675V97.1505C170.574 96.6064 170.79 96.0847 171.175 95.7C171.56 95.3153 172.082 95.0991 172.626 95.0991C173.17 95.0991 173.691 95.3153 174.076 95.7C174.461 96.0847 174.677 96.6064 174.677 97.1505V101.675C174.677 102.219 174.461 102.74 174.076 103.125C173.691 103.51 173.17 103.726 172.626 103.726C172.082 103.726 171.56 103.51 171.175 103.125C170.79 102.74 170.574 102.219 170.574 101.675ZM173.328 101.76V97.0803C173.328 96.4719 173.055 96.2379 172.626 96.2379C172.197 96.2379 171.924 96.4719 171.924 97.0803V101.76C171.924 102.377 172.197 102.611 172.626 102.611C173.055 102.611 173.328 102.377 173.328 101.76Z" fill="#263238"/>
<path d="M175.511 98.5155V96.3705C175.511 96.025 175.648 95.6937 175.893 95.4494C176.137 95.2051 176.468 95.0679 176.814 95.0679C177.159 95.0679 177.491 95.2051 177.735 95.4494C177.979 95.6937 178.116 96.025 178.116 96.3705V98.5155C178.116 98.8609 177.979 99.1923 177.735 99.4366C177.491 99.6808 177.159 99.8181 176.814 99.8181C176.468 99.8181 176.137 99.6808 175.893 99.4366C175.648 99.1923 175.511 98.8609 175.511 98.5155ZM177.258 98.5779V96.3081C177.258 95.9259 177.087 95.7621 176.814 95.7621C176.541 95.7621 176.369 95.9259 176.369 96.3081V98.5779C176.369 98.9601 176.533 99.1161 176.814 99.1161C177.095 99.1161 177.258 98.9601 177.258 98.5779ZM179.934 95.1147H180.8L177.469 103.695H176.611L179.934 95.1147ZM179.279 102.462V100.309C179.279 100.138 179.312 99.969 179.378 99.811C179.443 99.6529 179.539 99.5094 179.66 99.3884C179.781 99.2674 179.925 99.1715 180.083 99.106C180.241 99.0406 180.41 99.0069 180.581 99.0069C180.752 99.0069 180.922 99.0406 181.08 99.106C181.238 99.1715 181.381 99.2674 181.502 99.3884C181.623 99.5094 181.719 99.6529 181.785 99.811C181.85 99.969 181.884 100.138 181.884 100.309V102.462C181.884 102.633 181.85 102.803 181.785 102.961C181.719 103.119 181.623 103.262 181.502 103.383C181.381 103.504 181.238 103.6 181.08 103.666C180.922 103.731 180.752 103.765 180.581 103.765C180.41 103.765 180.241 103.731 180.083 103.666C179.925 103.6 179.781 103.504 179.66 103.383C179.539 103.262 179.443 103.119 179.378 102.961C179.312 102.803 179.279 102.633 179.279 102.462ZM181.026 102.525V100.247C181.026 99.8649 180.854 99.7089 180.581 99.7089C180.308 99.7089 180.144 99.8649 180.144 100.247V102.525C180.144 102.899 180.3 103.063 180.581 103.063C180.862 103.063 181.026 102.899 181.026 102.525Z" fill="#263238"/>
<path d="M184.068 101.027V97.634C184.068 97.2472 184.222 96.8762 184.495 96.6026C184.769 96.3291 185.14 96.1754 185.526 96.1754C185.913 96.1754 186.284 96.3291 186.558 96.6026C186.831 96.8762 186.985 97.2472 186.985 97.634V98.3048H186.049V97.5716C186.049 97.1582 185.846 96.9866 185.55 96.9866C185.253 96.9866 185.058 97.1582 185.058 97.5716V101.097C185.058 101.511 185.253 101.674 185.55 101.674C185.846 101.674 186.049 101.511 186.049 101.097V100.13H186.985V101.027C186.985 101.414 186.831 101.785 186.558 102.058C186.284 102.332 185.913 102.486 185.526 102.486C185.14 102.486 184.769 102.332 184.495 102.058C184.222 101.785 184.068 101.414 184.068 101.027Z" fill="#263238"/>
<path d="M187.523 100.988V97.673C187.523 97.2738 187.682 96.8908 187.964 96.6085C188.247 96.3262 188.63 96.1676 189.029 96.1676C189.428 96.1676 189.811 96.3262 190.093 96.6085C190.376 96.8908 190.534 97.2738 190.534 97.673V100.988C190.534 101.387 190.376 101.77 190.093 102.052C189.811 102.335 189.428 102.493 189.029 102.493C188.63 102.493 188.247 102.335 187.964 102.052C187.682 101.77 187.523 101.387 187.523 100.988ZM189.544 101.05V97.6106C189.544 97.1582 189.349 96.9866 189.029 96.9866C188.709 96.9866 188.514 97.1582 188.514 97.6106V101.05C188.514 101.503 188.717 101.674 189.029 101.674C189.341 101.674 189.544 101.503 189.544 101.05Z" fill="#263238"/>
<path d="M191.197 96.1754H192.617L193.249 100.692L193.88 96.1754H195.292V102.486H194.356V97.712L193.631 102.486H192.804L192.086 97.712V102.486H191.221L191.197 96.1754Z" fill="#263238"/>
<path d="M196.049 96.1754H197.507C198.498 96.1754 198.982 96.7292 198.982 97.7354V98.3594C198.982 99.3656 198.498 99.9194 197.507 99.9194H197.039V102.486H196.049V96.1754ZM197.507 99.0146C197.819 99.0146 197.991 98.8742 197.991 98.4218V97.6418C197.991 97.1894 197.819 97.049 197.507 97.049H197.039V98.9834L197.507 99.0146Z" fill="#263238"/>
<path d="M199.52 96.1754H200.511V101.581H202.141V102.486H199.52V96.1754Z" fill="#263238"/>
<path d="M202.64 96.1754H205.338V97.0802H203.63V98.7416H204.98V99.6464H203.622V101.581H205.331V102.486H202.64V96.1754Z" fill="#263238"/>
<path d="M206.665 97.0802H205.635V96.1754H208.693V97.0802H207.655V102.486H206.665V97.0802Z" fill="#263238"/>
<path d="M209.176 96.1754H211.875V97.0802H210.167V98.7416H211.524V99.6464H210.167V101.581H211.875V102.486H209.176V96.1754Z" fill="#263238"/>
<path d="M212.444 96.1754H213.958C214.948 96.1754 215.432 96.7292 215.432 97.7354V100.926C215.432 101.932 214.948 102.486 213.958 102.486H212.444V96.1754ZM213.934 101.581C214.254 101.581 214.441 101.417 214.441 100.972V97.6886C214.441 97.244 214.254 97.0802 213.934 97.0802H213.435V101.581H213.934Z" fill="#263238"/>
<path d="M219.784 198.652H127.861C124.906 198.652 122.51 201.048 122.51 204.003V223.737C122.51 226.692 124.906 229.087 127.861 229.087H219.784C222.739 229.087 225.135 226.692 225.135 223.737V204.003C225.135 201.048 222.739 198.652 219.784 198.652Z" fill="#263238" stroke="#263238" stroke-linecap="round" stroke-linejoin="round"/>
<path d="M218.146 197.014H126.223C123.268 197.014 120.873 199.41 120.873 202.365V222.099C120.873 225.054 123.268 227.45 126.223 227.45H218.146C221.102 227.45 223.497 225.054 223.497 222.099V202.365C223.497 199.41 221.102 197.014 218.146 197.014Z" fill="white" stroke="#263238" stroke-linecap="round" stroke-linejoin="round"/>
<path d="M194.434 213.737H152.61C152.143 213.737 151.695 213.923 151.364 214.253C151.033 214.584 150.848 215.032 150.848 215.5C150.848 215.967 151.033 216.416 151.364 216.746C151.695 217.077 152.143 217.263 152.61 217.263H194.434V213.737Z" fill="white"/>
<path d="M152.61 217.263C152.143 217.263 151.695 217.077 151.364 216.746C151.033 216.416 150.848 215.967 150.848 215.5C150.848 215.032 151.033 214.584 151.364 214.253C151.695 213.923 152.143 213.737 152.61 213.737H212.514C212.746 213.737 212.975 213.783 213.189 213.871C213.403 213.96 213.597 214.09 213.761 214.253C213.925 214.417 214.054 214.611 214.143 214.825C214.232 215.039 214.277 215.268 214.277 215.5C214.277 215.731 214.232 215.961 214.143 216.174C214.054 216.388 213.925 216.583 213.761 216.746C213.597 216.91 213.403 217.04 213.189 217.128C212.975 217.217 212.746 217.263 212.514 217.263H152.61Z" stroke="#263238" stroke-linecap="round" stroke-linejoin="round"/>
<path d="M143.594 220.78H130.077V203.683H139.086L143.594 208.183V220.78Z" fill="white"/>
<path opacity="0.5" d="M143.594 220.78H130.077V203.683H139.086L143.594 208.183V220.78Z" fill="white"/>
<path d="M143.594 220.78H130.077V203.683H139.086L143.594 208.183V220.78Z" stroke="#263238" stroke-linecap="round" stroke-linejoin="round"/>
<path d="M133.08 212.754C132.867 212.734 132.67 212.635 132.526 212.477C132.383 212.319 132.303 212.114 132.303 211.9C132.303 211.687 132.383 211.481 132.526 211.323C132.67 211.165 132.867 211.066 133.08 211.046H140.591C140.803 211.066 141.001 211.165 141.144 211.323C141.288 211.481 141.367 211.687 141.367 211.9C141.367 212.114 141.288 212.319 141.144 212.477C141.001 212.635 140.803 212.734 140.591 212.754H133.08Z" fill="#858585" stroke="#263238" stroke-width="0.75" stroke-linecap="round" stroke-linejoin="round"/>
<path d="M133.079 216.342C132.854 216.342 132.637 216.253 132.478 216.093C132.319 215.934 132.229 215.718 132.229 215.492C132.229 215.267 132.319 215.05 132.478 214.891C132.637 214.731 132.854 214.642 133.079 214.642H138.953C139.178 214.642 139.394 214.731 139.554 214.891C139.713 215.05 139.803 215.267 139.803 215.492C139.803 215.718 139.713 215.934 139.554 216.093C139.394 216.253 139.178 216.342 138.953 216.342H133.079Z" fill="#858585" stroke="#263238" stroke-width="0.75" stroke-linecap="round" stroke-linejoin="round"/>
<path d="M139.085 208.183H143.594L139.085 203.683V208.183Z" fill="white" stroke="#263238" stroke-linecap="round" stroke-linejoin="round"/>
<path d="M178.616 204.689H176.611V203.792H179.583V204.658L178.023 210.118H177.009L178.616 204.689Z" fill="#263238"/>
<path d="M180.207 208.605V205.29C180.207 204.89 180.366 204.508 180.648 204.225C180.93 203.943 181.313 203.784 181.712 203.784C182.112 203.784 182.495 203.943 182.777 204.225C183.059 204.508 183.218 204.89 183.218 205.29V208.605C183.218 209.004 183.059 209.387 182.777 209.669C182.495 209.951 182.112 210.11 181.712 210.11C181.313 210.11 180.93 209.951 180.648 209.669C180.366 209.387 180.207 209.004 180.207 208.605ZM182.227 208.667V205.227C182.227 204.775 182.024 204.603 181.712 204.603C181.4 204.603 181.198 204.775 181.198 205.227V208.667C181.198 209.119 181.4 209.283 181.712 209.283C182.024 209.283 182.227 209.119 182.227 208.667Z" fill="#263238"/>
<path d="M183.826 206.288V204.728C183.814 204.595 183.83 204.462 183.873 204.335C183.915 204.209 183.983 204.093 184.073 203.995C184.163 203.896 184.273 203.818 184.395 203.764C184.517 203.71 184.648 203.682 184.782 203.682C184.915 203.682 185.047 203.71 185.169 203.764C185.291 203.818 185.4 203.896 185.49 203.995C185.58 204.093 185.648 204.209 185.691 204.335C185.733 204.462 185.749 204.595 185.737 204.728V206.288C185.749 206.421 185.733 206.555 185.691 206.681C185.648 206.807 185.58 206.923 185.49 207.022C185.4 207.12 185.291 207.199 185.169 207.252C185.047 207.306 184.915 207.334 184.782 207.334C184.648 207.334 184.517 207.306 184.395 207.252C184.273 207.199 184.163 207.12 184.073 207.022C183.983 206.923 183.915 206.807 183.873 206.681C183.83 206.555 183.814 206.421 183.826 206.288ZM185.105 206.335V204.666C185.105 204.385 184.981 204.268 184.786 204.268C184.591 204.268 184.458 204.385 184.458 204.666V206.335C184.458 206.608 184.575 206.725 184.786 206.725C184.996 206.725 185.105 206.6 185.105 206.335ZM187.04 203.792H187.672L185.23 210.094H184.598L187.04 203.792ZM186.564 209.182V207.622C186.552 207.489 186.568 207.355 186.61 207.229C186.653 207.103 186.721 206.987 186.811 206.888C186.901 206.79 187.01 206.711 187.132 206.658C187.254 206.604 187.386 206.576 187.519 206.576C187.653 206.576 187.785 206.604 187.906 206.658C188.028 206.711 188.138 206.79 188.228 206.888C188.318 206.987 188.386 207.103 188.429 207.229C188.471 207.355 188.487 207.489 188.475 207.622V209.182C188.487 209.315 188.471 209.448 188.429 209.575C188.386 209.701 188.318 209.817 188.228 209.915C188.138 210.014 188.028 210.092 187.906 210.146C187.785 210.2 187.653 210.228 187.519 210.228C187.386 210.228 187.254 210.2 187.132 210.146C187.01 210.092 186.901 210.014 186.811 209.915C186.721 209.817 186.653 209.701 186.61 209.575C186.568 209.448 186.552 209.315 186.564 209.182ZM187.843 209.221V207.559C187.843 207.279 187.718 207.162 187.516 207.162C187.313 207.162 187.196 207.279 187.196 207.559V209.221C187.196 209.502 187.313 209.619 187.516 209.619C187.718 209.619 187.874 209.502 187.874 209.221H187.843Z" fill="#263238"/>
<path d="M70.3833 42.9561L90.9675 27.0441L111.552 42.9561H70.3833Z" fill="#263238" stroke="#263238" stroke-linecap="round" stroke-linejoin="round"/>
<path d="M96.3495 25.796H85.5854V35H96.3495V25.796Z" fill="#263238" stroke="#263238" stroke-linecap="round" stroke-linejoin="round"/>
<path d="M90.9673 2.92651V35.0001" stroke="#263238" stroke-width="0.75" stroke-linecap="round" stroke-linejoin="round"/>
<path d="M234.44 42.9561L255.032 27.0441L275.617 42.9561H234.44Z" fill="#263238" stroke="#263238" stroke-linecap="round" stroke-linejoin="round"/>
<path d="M260.415 25.796H249.651V35H260.415V25.796Z" fill="#263238" stroke="#263238" stroke-linecap="round" stroke-linejoin="round"/>
<path d="M255.033 1.36646V35.0001" stroke="#263238" stroke-width="0.75" stroke-linecap="round" stroke-linejoin="round"/>
<path d="M263.067 291.3L262.63 304.17L269.291 304.49L271.717 291.3H263.067Z" fill="white" stroke="#263238" stroke-linecap="round" stroke-linejoin="round"/>
<path d="M250.033 308.117C252.279 307.337 256.163 306.011 257.622 305.098C258.792 304.365 260.422 301.978 261.631 301.308C261.885 301.198 262.158 301.141 262.435 301.141C262.711 301.141 262.984 301.198 263.238 301.308C263.434 301.526 263.562 301.797 263.605 302.088C263.638 302.213 263.708 302.327 263.805 302.413C263.903 302.5 264.023 302.556 264.152 302.574C264.281 302.592 264.413 302.572 264.53 302.516C264.648 302.46 264.746 302.371 264.814 302.259C265 301.893 265.267 301.573 265.594 301.323C266.623 300.746 269.408 300.582 270.32 301.323C271.834 302.563 272.38 306.838 272.66 308.764C272.731 309.186 272.66 311.526 272.66 311.526H248.356V310.457C248.352 309.94 248.513 309.435 248.814 309.015C249.115 308.594 249.542 308.28 250.033 308.117Z" fill="white" stroke="#263238" stroke-linecap="round" stroke-linejoin="round"/>
<path d="M272.676 311.51H248.355V310.441C248.355 310.176 248.4 309.912 248.488 309.661H272.707C272.707 310.48 272.676 311.51 272.676 311.51Z" fill="#858585" stroke="#263238" stroke-linecap="round" stroke-linejoin="round"/>
<path d="M267.271 191.523L262.162 296.199L271.522 297.759C271.522 297.759 277.418 267.463 278.136 257.542C278.308 255.202 278.136 248.143 278.136 248.143L284.758 215.547C284.758 215.547 289.118 211.522 289.625 192.357L267.271 191.523Z" fill="#263238" stroke="#263238" stroke-linecap="round" stroke-linejoin="round"/>
<path opacity="0.7" d="M281.124 232.036C281.482 230.523 281.904 229.033 282.411 227.551C282.489 227.34 282.582 227.145 282.676 226.95C282.908 224.735 283.265 222.534 283.744 220.359C283.91 219.547 284.347 218.815 284.985 218.284C285.167 217.873 285.438 217.508 285.78 217.215C286.121 216.922 286.524 216.709 286.958 216.592C286.671 214.578 286.233 212.588 285.648 210.64C285.055 208.597 284.088 206.639 283.799 204.525C283.721 203.979 283.409 203.41 283.51 203.347C282.84 203.086 282.184 202.789 281.545 202.458L281.428 202.365C280.83 212.244 280.728 222.147 281.124 232.036Z" fill="black"/>
<path d="M266.826 251.395C268.483 251.012 270.004 250.184 271.225 249.001" stroke="#7F7F7F" stroke-width="0.75" stroke-linecap="round" stroke-linejoin="round"/>
<path d="M260.929 298.188L272.247 299.116L273.089 295.45L260.929 294.498V298.188Z" fill="white" stroke="#263238" stroke-linecap="round" stroke-linejoin="round"/>
<path d="M293.611 289.717L296.022 304.763L302.184 304.279L301.981 288.874L293.611 289.717Z" fill="white" stroke="#263238" stroke-linecap="round" stroke-linejoin="round"/>
<path d="M283.292 308.117C285.546 307.337 289.43 306.011 290.881 305.098C292.051 304.365 293.689 301.978 294.89 301.308C295.145 301.198 295.42 301.141 295.698 301.141C295.975 301.141 296.25 301.198 296.505 301.308C296.646 301.453 296.746 301.633 296.794 301.83C296.835 301.979 296.921 302.113 297.039 302.213C297.157 302.314 297.302 302.377 297.456 302.394C297.61 302.412 297.766 302.383 297.903 302.312C298.041 302.241 298.154 302.13 298.229 301.994C298.388 301.725 298.6 301.491 298.853 301.308C299.882 300.73 302.667 300.567 303.58 301.308C305.093 302.548 305.639 306.822 305.92 308.749C305.982 309.17 305.92 311.51 305.92 311.51H281.623V310.441C281.622 309.928 281.783 309.427 282.082 309.01C282.382 308.593 282.805 308.281 283.292 308.117Z" fill="white" stroke="#263238" stroke-linecap="round" stroke-linejoin="round"/>
<path d="M305.943 311.51H281.623V310.441C281.62 310.176 281.662 309.912 281.748 309.661H305.967C305.967 310.48 305.943 311.51 305.943 311.51Z" fill="#858585" stroke="#263238" stroke-linecap="round" stroke-linejoin="round"/>
<path d="M280.297 194.682C280.297 194.682 282.637 208.23 284.79 219.595C286.256 227.301 286.35 250.069 286.35 250.069L293.822 297.08L303.034 295.84C303.034 295.84 303.143 266.902 302.106 257.62C301.872 255.553 301.489 249.414 301.489 249.414C301.489 249.414 301.84 224.86 303.736 216.654C305.093 210.804 307.792 204.658 304.516 192.669L280.297 194.682Z" fill="#263238" stroke="#263238" stroke-linecap="round" stroke-linejoin="round"/>
<path d="M288.37 251.395C289.307 252.692 290.7 253.587 292.27 253.899" stroke="#7F7F7F" stroke-width="0.75" stroke-linecap="round" stroke-linejoin="round"/>
<path d="M292.277 294.966L292.808 298.414L304.227 297.189L304.149 293.476L292.277 294.966Z" fill="white" stroke="#263238" stroke-linecap="round" stroke-linejoin="round"/>
<path d="M236.827 132.009L234.308 127.773C234.308 127.773 233.7 120.855 232.296 119.505C230.892 118.156 227.772 114.186 227.327 114.966C226.625 116.214 229.222 118.437 229.222 118.437L229.698 121.011C229.698 121.011 225.494 117.984 224.308 117.984C224.308 117.984 220.954 114.014 219.769 114.006C218.583 113.998 220.252 116.752 220.252 116.752C220.252 116.752 219.121 115.886 218.903 116.424C218.685 116.962 220.362 118.803 220.362 118.803C220.362 118.803 219.714 119.505 220.689 121.011C220.554 121.497 220.556 122.011 220.693 122.497C220.831 122.982 221.099 123.421 221.469 123.764C222.764 124.794 229.722 128.733 229.722 128.733L232.062 134.239L236.827 132.009Z" fill="#858585" stroke="#263238" stroke-linecap="round" stroke-linejoin="round"/>
<path d="M221.282 118.912C221.282 118.912 222.202 119.287 221.82 120.636C222.187 121.158 222.393 121.777 222.413 122.415C222.506 123.6 228.512 123.015 230.135 125.535" stroke="#263238" stroke-width="0.75" stroke-linecap="round" stroke-linejoin="round"/>
<path d="M221.282 117.454L223.731 120.043" stroke="#263238" stroke-width="0.75" stroke-linecap="round" stroke-linejoin="round"/>
<path d="M262.832 130.94L246.757 143.467L235.743 128.46L230.135 131.268C230.135 131.268 238.949 155.619 245.618 155.619C252.708 155.619 266.186 144.231 266.186 144.231C266.186 144.231 267.037 142.055 262.832 130.94Z" fill="white" stroke="#263238" stroke-linecap="round" stroke-linejoin="round"/>
<path d="M247.365 144.66C247.741 145.459 248.021 146.299 248.2 147.164" stroke="#263238" stroke-width="0.75" stroke-linecap="round" stroke-linejoin="round"/>
<path d="M262.833 130.94L266.257 176.266V195.095C266.257 195.095 285.983 197.435 305.444 194.596L304.773 175.213L306.746 132.009C306.746 132.009 297.714 125.48 283.846 125.48C269.977 125.48 262.833 130.94 262.833 130.94Z" fill="white" stroke="#263238" stroke-linecap="round" stroke-linejoin="round"/>
<path opacity="0.2" d="M305.444 194.596L304.82 177.225C304.485 185.595 295.249 182.451 293.159 182.061C290.92 181.64 288.346 189.019 288.346 189.019C288.346 189.019 279.766 190.493 273.051 189.97C266.335 189.448 266.233 183.317 266.233 183.317V195.095C266.233 195.095 285.983 197.466 305.444 194.596Z" fill="black"/>
<path d="M275.5 175.829C283.772 174.939 291.71 172.08 298.65 167.491L275.5 175.829Z" fill="white"/>
<path d="M275.5 175.829C283.772 174.939 291.71 172.08 298.65 167.491" stroke="#263238" stroke-width="0.75" stroke-linecap="round" stroke-linejoin="round"/>
<path d="M272.06 176.063C272.06 176.063 272.723 176.063 273.893 175.977L272.06 176.063Z" fill="white"/>
<path d="M272.06 176.063C272.06 176.063 272.723 176.063 273.893 175.977" stroke="#263238" stroke-width="0.75" stroke-linecap="round" stroke-linejoin="round"/>
<path d="M278.737 133.124L275.32 131.884L272.06 135.035L274.447 125.285L277.325 123.023L278.791 123.951L285.343 123.702L290.437 124.115L292.863 123.366L295.452 125.956L289.688 136.977L287.27 132.804L281.935 133.467L278.737 133.124Z" fill="white"/>
<path opacity="0.5" d="M278.737 133.124L275.32 131.884L272.06 135.035L274.447 125.285L277.325 123.023L278.791 123.951L285.343 123.702L290.437 124.115L292.863 123.366L295.452 125.956L289.688 136.977L287.27 132.804L281.935 133.467L278.737 133.124Z" fill="white"/>
<path d="M278.737 133.124L275.32 131.884L272.06 135.035L274.447 125.285L277.325 123.023L278.791 123.951L285.343 123.702L290.437 124.115L292.863 123.366L295.452 125.956L289.688 136.977L287.27 132.804L281.935 133.467L278.737 133.124Z" stroke="#263238" stroke-linecap="round" stroke-linejoin="round"/>
<path d="M290.086 125.925L289.306 114.006L281.771 115.34L280.211 120.94L278.651 125.792L277.91 125.87L279.962 137.008L290.835 126.088L290.086 125.925Z" fill="#858585"/>
<path d="M271.561 114.833C271.561 117.859 272.029 124.63 276.186 125.418C280.492 126.237 285.429 121.338 287.2 119.38C287.643 118.894 287.99 118.327 288.221 117.711L289.165 115.207C289.782 115.255 290.399 115.125 290.944 114.833H271.561Z" fill="#263238" stroke="#263238" stroke-width="0.5" stroke-linecap="round" stroke-linejoin="round"/>
<path d="M290.086 125.925L289.306 114.006L281.771 115.34L280.211 120.94L278.651 125.792L277.91 125.87L279.962 137.008L290.835 126.088L290.086 125.925Z" stroke="#263238" stroke-linecap="round" stroke-linejoin="round"/>
<path d="M276.584 99.5294C276.584 99.5294 273.019 96.815 274.767 94.6778C275.679 93.5702 276.865 95.0288 276.865 95.0288C276.865 95.0288 276.233 91.628 278.768 91.1288C281.108 90.692 281.014 93.3752 281.014 93.3752C281.014 93.3752 282.223 91.0742 284.337 91.589C286.022 91.9946 285.375 94.3814 285.375 94.3814C285.375 94.3814 287.621 91.589 289.945 92.8214C291.95 93.8744 290.296 96.4016 290.296 96.4016C290.296 96.4016 292.683 95.5592 294.017 96.9008C295.351 98.2424 294.017 100.021 294.017 100.021C294.017 100.021 296.646 100.021 296.763 101.986C296.88 103.952 294.727 104.326 294.727 104.326C294.727 104.326 297.769 105.309 297.792 107.696C297.816 110.083 295.78 109.318 295.78 109.318C295.78 109.318 297.043 111.565 295.99 112.758C295.872 112.918 295.718 113.048 295.541 113.137C295.363 113.226 295.167 113.273 294.969 113.273C294.77 113.273 294.574 113.226 294.397 113.137C294.219 113.048 294.065 112.918 293.947 112.758C293.947 112.758 295.265 115.59 293.596 116.416C292.402 117.001 291.7 115.566 291.7 115.566C291.7 115.566 290.694 118.015 289.477 116.518C288.261 115.02 282.223 103.484 282.223 103.484L276.584 99.5294Z" fill="#263238" stroke="#263238" stroke-width="0.75" stroke-linecap="round" stroke-linejoin="round"/>
<path d="M275.554 99.6386L273.308 104.319C273.078 104.806 272.958 105.339 272.957 105.879V107.345L271.717 110.465C271.653 110.628 271.601 110.794 271.561 110.964C271.163 112.626 269.268 121.549 273.901 123.366C277.988 124.973 283.744 121.096 285.858 119.505C286.385 119.108 286.83 118.613 287.169 118.047L288.573 115.769C289.169 115.947 289.806 115.932 290.393 115.726C290.98 115.52 291.487 115.134 291.841 114.622C293.097 112.821 294.547 111.846 292.824 110.223C291.1 108.601 289.509 111.198 289.509 111.198L289.743 106.62L287.746 103.11L287.644 100.902C287.644 100.902 281.108 100.177 276.724 97.7822L275.554 99.6386Z" fill="white" stroke="#263238" stroke-width="0.75" stroke-linecap="round" stroke-linejoin="round"/>
<path d="M275.554 99.6386L273.308 104.319C273.078 104.806 272.958 105.339 272.957 105.879V107.345L271.717 110.465C271.653 110.628 271.601 110.794 271.561 110.964C271.163 112.626 269.268 121.549 273.901 123.366C277.988 124.973 283.744 121.096 285.858 119.505C286.385 119.108 286.83 118.613 287.169 118.047L288.573 115.769C289.169 115.947 289.806 115.932 290.393 115.726C290.98 115.52 291.487 115.134 291.841 114.622C293.097 112.821 294.547 111.846 292.824 110.223C291.1 108.601 289.509 111.198 289.509 111.198L289.743 106.62L287.746 103.11L287.644 100.902C287.644 100.902 281.108 100.177 276.724 97.7822L275.554 99.6386Z" fill="#858585" stroke="#263238" stroke-linecap="round" stroke-linejoin="round"/>
<path d="M279.532 115.621C278.268 118.062 276.552 117.657 275.476 117.048" stroke="#263238" stroke-width="0.75" stroke-linecap="round" stroke-linejoin="round"/>
<path d="M279.555 110.075C279.384 110.629 279.033 111.011 278.776 110.933C278.518 110.855 278.432 110.332 278.604 109.779C278.776 109.225 279.127 108.835 279.384 108.921C279.641 109.006 279.727 109.521 279.555 110.075Z" fill="#263238"/>
<path d="M274.345 108.46C274.173 109.022 273.822 109.404 273.565 109.318C273.308 109.233 273.222 108.718 273.393 108.164C273.565 107.61 273.924 107.228 274.173 107.314C274.423 107.4 274.517 107.907 274.345 108.46Z" fill="#263238"/>
<path d="M273.971 104.857C274.177 104.799 274.394 104.784 274.606 104.814C274.819 104.843 275.023 104.916 275.206 105.028C275.389 105.14 275.547 105.289 275.67 105.465C275.793 105.641 275.878 105.84 275.921 106.05" stroke="#263238" stroke-width="0.75" stroke-linecap="round" stroke-linejoin="round"/>
<path d="M278.456 106.986C278.456 106.986 280.273 105.075 281.498 107.103" stroke="#263238" stroke-width="0.75" stroke-linecap="round" stroke-linejoin="round"/>
<path d="M275.96 108.952C275.796 109.697 275.446 110.388 274.941 110.96C274.436 111.532 273.793 111.966 273.074 112.22L274.493 114.474" stroke="#263238" stroke-width="0.75" stroke-linecap="round" stroke-linejoin="round"/>
<path d="M285.016 198.379L284.618 200.789C284.561 201.187 284.659 201.592 284.893 201.919C285.127 202.246 285.479 202.47 285.874 202.544L310.888 206.647C311.286 206.704 311.691 206.605 312.018 206.371C312.345 206.137 312.569 205.786 312.643 205.391L313.033 202.981L285.016 198.379Z" fill="white" stroke="#263238" stroke-width="0.75" stroke-linecap="round" stroke-linejoin="round"/>
<path d="M314.154 187.793L288.854 183.641C288.101 183.518 287.391 184.027 287.268 184.78L284.76 200.058C284.637 200.811 285.147 201.521 285.899 201.644L311.199 205.797C311.952 205.92 312.662 205.41 312.785 204.658L315.293 189.379C315.416 188.627 314.906 187.917 314.154 187.793Z" fill="white"/>
<path opacity="0.5" d="M314.154 187.793L288.854 183.641C288.101 183.518 287.391 184.027 287.268 184.78L284.76 200.058C284.637 200.811 285.147 201.521 285.899 201.644L311.199 205.797C311.952 205.92 312.662 205.41 312.785 204.658L315.293 189.379C315.416 188.627 314.906 187.917 314.154 187.793Z" fill="white"/>
<path d="M314.154 187.793L288.854 183.641C288.101 183.518 287.391 184.027 287.268 184.78L284.76 200.058C284.637 200.811 285.147 201.521 285.899 201.644L311.199 205.797C311.952 205.92 312.662 205.41 312.785 204.658L315.293 189.379C315.416 188.627 314.906 187.917 314.154 187.793Z" stroke="#263238" stroke-linecap="round" stroke-linejoin="round"/>
<path d="M304.391 190.641L303.01 195.321L298.33 198.667C297.668 200.716 296.887 202.724 295.99 204.681C295.931 204.79 295.9 204.913 295.9 205.037C295.901 205.161 295.933 205.283 295.994 205.392C296.055 205.5 296.142 205.591 296.248 205.657C296.354 205.722 296.475 205.759 296.599 205.765C297.246 205.765 298.003 205.461 298.416 204.205C298.416 204.205 298.596 206.67 300.117 205.165C300.117 205.165 301.045 207.552 302.495 205.672C302.495 205.672 305.857 206.171 306.395 203.745C306.934 201.319 307.729 197.045 307.729 197.045L309.866 192.03L304.391 190.641Z" fill="#858585" stroke="#263238" stroke-linecap="round" stroke-linejoin="round"/>
<path d="M298.385 203.246L298.915 199.635" stroke="#263238" stroke-width="0.75" stroke-linecap="round" stroke-linejoin="round"/>
<path d="M299.22 203.48C299.22 203.48 299.586 204.673 300.413 204.478C301.24 204.283 302.418 205.204 304.992 204.12" stroke="#263238" stroke-width="0.75" stroke-linecap="round" stroke-linejoin="round"/>
<path d="M306.746 132.009C306.746 132.009 318.446 164.519 318.228 169.269C318.01 174.019 309.687 194.682 309.687 194.682L303.26 192.638L307.55 168.403L303.704 151.563C303.704 151.563 302.831 139.216 306.746 132.009Z" fill="white" stroke="#263238" stroke-linecap="round" stroke-linejoin="round"/>
<path d="M308.993 167.865C309.424 167.535 309.924 167.305 310.456 167.193C310.988 167.081 311.538 167.09 312.066 167.218" stroke="#263238" stroke-width="0.75" stroke-linecap="round" stroke-linejoin="round"/>
<path d="M301.388 193.153C301.155 192.844 300.981 192.495 300.873 192.123C300.423 192.114 299.987 192.277 299.652 192.577C299.317 192.877 299.108 193.293 299.068 193.741C299.027 194.189 299.158 194.636 299.434 194.991C299.709 195.347 300.109 195.584 300.553 195.656C301.02 195.733 301.498 195.622 301.882 195.347C302.267 195.072 302.527 194.656 302.605 194.19C302.103 193.977 301.678 193.615 301.388 193.153Z" fill="white"/>
<path d="M73.1132 124.536L74.5328 131.533L58.7612 132.196L61.499 112.805L72.1226 114.037L73.1132 124.536Z" fill="white"/>
<path d="M80.18 113.92L66.9902 117.82C67.1548 119.332 67.4684 120.824 67.9262 122.274C68.7062 124.521 73.4564 128.514 76.5062 128.467C79.556 128.421 79.8992 118.702 79.8992 118.702L81.74 117.68C81.8454 117.62 81.9369 117.538 82.0084 117.44C82.0799 117.342 82.1299 117.23 82.1549 117.112C82.18 116.993 82.1796 116.87 82.1538 116.752C82.128 116.633 82.0774 116.522 82.0052 116.424L80.18 113.92Z" fill="#263238" stroke="#263238" stroke-width="0.75" stroke-linecap="round" stroke-linejoin="round"/>
<path d="M73.1132 124.536L74.5328 131.533L58.7612 132.196L61.499 112.805L72.1226 114.037L73.1132 124.536Z" stroke="#263238" stroke-linecap="round" stroke-linejoin="round"/>
<path d="M73.8387 99.8882C73.8387 99.8882 77.6685 100.668 77.2785 96.5108C76.8885 92.3534 69.7515 94.8962 66.0309 95.3642C62.3103 95.8322 50.2983 100.317 54.5493 107.4C54.5493 107.4 52.0455 111.393 61.0623 118.093C61.0623 118.093 65.3445 116.081 67.6923 119.022L69.5253 115.449L74.2053 107.228L73.8387 99.8882Z" fill="#263238" stroke="#263238" stroke-linecap="round" stroke-linejoin="round"/>
<path d="M73.5576 99.2642C73.5576 99.2642 77.2236 101.308 79.3296 98.7494C79.3296 98.7494 79.5636 104.209 73.5576 99.2642Z" fill="#263238" stroke="#263238" stroke-linecap="round" stroke-linejoin="round"/>
<path d="M73.9397 98.6948C73.9397 98.6948 79.3997 104.443 79.2125 108.382V111.978L82.0985 115.223C82.1792 115.306 82.2403 115.406 82.2776 115.516C82.3148 115.625 82.3271 115.742 82.3137 115.857C82.3002 115.972 82.2613 116.083 82.1998 116.181C82.1383 116.279 82.0558 116.362 81.9581 116.424L80.2811 117.586C80.2811 117.586 80.7725 126.79 77.8865 127.118C75.0005 127.446 70.1957 123.998 69.2363 121.97C68.5137 120.109 67.9908 118.177 67.6763 116.206C66.8363 115.978 66.0836 115.505 65.5151 114.846C64.9465 114.187 64.5882 113.373 64.4861 112.509C64.1507 109.482 67.2005 109.568 67.9883 111.549L68.6279 113.164L70.6091 113.094C70.6091 113.094 69.4781 110.239 70.1489 109.396C70.8197 108.554 73.4561 106.503 72.2471 104.545C71.0381 102.587 71.4437 99.2564 73.9397 98.6948Z" fill="white" stroke="#263238" stroke-linecap="round" stroke-linejoin="round"/>
<path d="M77.0601 119.388C77.2872 119.791 77.6353 120.113 78.0553 120.308C78.4752 120.502 78.9456 120.56 79.4001 120.472" stroke="#263238" stroke-width="0.75" stroke-linecap="round" stroke-linejoin="round"/>
<path d="M75.6245 108.406C75.6245 108.406 76.8647 106.682 78.0425 108.258" stroke="#263238" stroke-linecap="round" stroke-linejoin="round"/>
<path d="M77.5826 112.002C77.5826 112.54 77.372 112.984 77.0834 112.992C76.7948 113 76.5452 112.571 76.5296 112.033C76.514 111.495 76.7402 111.05 77.0288 111.042C77.3174 111.034 77.567 111.44 77.5826 112.002Z" fill="#263238"/>
<path d="M52.5676 284.787L50.29 304.389L57.0682 305.434L60.8044 286.059L52.5676 284.787Z" fill="white" stroke="#263238" stroke-linecap="round" stroke-linejoin="round"/>
<path d="M49.3774 198.176C49.3774 198.176 49.6504 209.533 53.6596 217.52L54.5722 247.659L49.9468 296.222L60.235 297.205L69.595 246.411L72.715 200.391L49.3774 198.176Z" fill="white" stroke="#263238" stroke-linecap="round" stroke-linejoin="round"/>
<path opacity="0.2" d="M71.2643 222.52L70.4063 217.114L66.5063 200.103L65.7887 199.736L49.4087 198.176C49.4087 198.176 49.4087 200.04 49.7753 202.794L57.8639 207.38C58.0547 210.26 58.7051 213.091 59.7905 215.765C59.8877 215.999 59.9232 216.253 59.8936 216.504C59.8639 216.755 59.7702 216.995 59.6214 217.199C59.4725 217.404 59.2736 217.566 59.0436 217.672C58.8137 217.777 58.5606 217.822 58.3085 217.801C57.4739 217.738 56.7485 217.801 56.7485 218.347C56.7485 219.61 62.8481 223.69 62.8481 223.69C62.8481 223.69 69.0023 243.58 68.7839 250.927L69.6185 246.403L71.2643 222.52Z" fill="black"/>
<path d="M73.2534 286.074L73.9944 305.793H80.8506L81.5838 286.074H73.2534Z" fill="white" stroke="#263238" stroke-linecap="round" stroke-linejoin="round"/>
<path d="M91.7707 308.569C89.5074 307.88 87.3054 307.003 85.1875 305.949C84.1735 305.317 82.7539 303.25 81.7087 302.665C81.4894 302.57 81.2532 302.522 81.0145 302.522C80.7758 302.522 80.5395 302.57 80.3203 302.665C79.8211 303.071 79.7977 305.184 79.7977 305.184C79.7977 305.184 78.9163 303.032 78.2767 302.665C77.3875 302.166 74.9695 302.018 74.1817 302.665C72.8713 303.734 72.3955 307.446 72.1381 309.115C72.0757 309.482 72.1381 311.51 72.1381 311.51H93.1981V310.582C93.1997 310.139 93.0629 309.708 92.807 309.347C92.551 308.986 92.1887 308.714 91.7707 308.569Z" fill="#263238" stroke="#263238" stroke-linecap="round" stroke-linejoin="round"/>
<path d="M87.5978 199.112L85.913 244.672L83.0972 296.69H72.38C72.38 296.69 70.1336 256.762 70.6952 245.21L65.0714 218.495C65.0714 218.495 59.1668 210.617 60.5708 201.062L87.5978 199.112Z" fill="white" stroke="#263238" stroke-linecap="round" stroke-linejoin="round"/>
<path d="M71.4282 292.821L71.7792 299.077H83.5182L84.4308 292.821H71.4282Z" fill="white" stroke="#263238" stroke-linecap="round" stroke-linejoin="round"/>
<path d="M49.089 292.283L48.8472 298.539L60.5316 299.654L62.037 293.515L49.089 292.283Z" fill="white" stroke="#263238" stroke-linecap="round" stroke-linejoin="round"/>
<path d="M105.366 169.121L89.1499 158.809L106.24 141.72L122.464 152.031L105.366 169.121Z" fill="white" stroke="#263238" stroke-linecap="round" stroke-linejoin="round"/>
<path d="M106.294 165.595L93.2524 157.304L106.996 143.56L120.038 151.852L106.294 165.595Z" fill="white" stroke="#263238" stroke-width="0.75" stroke-linecap="round" stroke-linejoin="round"/>
<path d="M107.246 151.36L109.523 149.083L106.598 147.226L104.321 149.496L107.246 151.36Z" stroke="#263238" stroke-width="0.75" stroke-linecap="round" stroke-linejoin="round"/>
<path d="M103.713 154.902L105.99 152.624L103.057 150.76L100.788 153.037L103.713 154.902Z" stroke="#263238" stroke-width="0.75" stroke-linecap="round" stroke-linejoin="round"/>
<path d="M100.054 158.56L102.324 156.282L99.3992 154.418L97.1216 156.696L100.054 158.56Z" stroke="#263238" stroke-width="0.75" stroke-linecap="round" stroke-linejoin="round"/>
<path d="M112.823 144.379L110.67 146.54C110.568 146.642 110.491 146.765 110.443 146.901C110.395 147.036 110.378 147.181 110.394 147.324C110.41 147.467 110.457 147.605 110.534 147.727C110.61 147.849 110.712 147.953 110.834 148.03L113.954 150.034C114.298 150.254 114.706 150.349 115.112 150.305C115.517 150.261 115.896 150.081 116.185 149.793L118.174 147.796L112.823 144.379Z" fill="#858585" stroke="#263238" stroke-linecap="round" stroke-linejoin="round"/>
<path d="M55.1187 131.065L57.9345 124.879C57.9345 124.879 74.2442 123.054 78.5966 136.689L55.1187 131.065Z" fill="#858585" stroke="#263238" stroke-linecap="round" stroke-linejoin="round"/>
<path d="M45.8599 136.338C45.8599 136.338 41.8351 167.171 42.9037 178.099C43.7461 186.741 49.4401 194.058 49.4401 194.058L57.8797 190.75L53.5897 178.099C53.5897 178.099 54.9235 155.323 56.1871 150.019L45.8599 136.338Z" fill="#858585" stroke="#263238" stroke-linecap="round" stroke-linejoin="round"/>
<path d="M46.9985 192.544L49.3775 195.391L59.1275 191.593L57.8639 187.794L46.9985 192.544Z" fill="#858585" stroke="#263238" stroke-linecap="round" stroke-linejoin="round"/>
<path d="M45.8596 136.338C45.8596 136.338 44.5882 154.051 48.1996 166.5C51.811 178.949 48.1996 199.393 48.1996 199.393C48.1996 199.393 64.8214 210.149 90.3196 201.92C90.3196 201.92 87.1606 141.392 82.9408 138.022C78.721 134.653 54.9076 121.791 45.8596 136.338Z" fill="#858585" stroke="#263238" stroke-linecap="round" stroke-linejoin="round"/>
<path opacity="0.2" d="M90.3201 201.92C90.3201 201.92 89.2359 181.172 87.4965 163.294C83.8071 154.34 77.7777 142.414 77.4579 159.16C76.9899 183.379 91.8957 181.952 80.0865 186.172C77.4459 187.172 74.6173 187.577 71.8021 187.359C68.987 187.14 66.2547 186.304 63.8001 184.908C63.6038 184.808 63.379 184.777 63.163 184.822C62.9471 184.867 62.7529 184.984 62.6127 185.154C62.4725 185.325 62.3947 185.538 62.3922 185.758C62.3897 185.979 62.4626 186.193 62.5989 186.367C65.5629 190.134 70.0635 192.482 73.5189 193.831C73.8309 193.951 74.0947 194.17 74.2691 194.455C74.4436 194.74 74.5189 195.074 74.4833 195.406C74.4476 195.738 74.3031 196.049 74.0722 196.291C73.8414 196.532 73.5371 196.69 73.2069 196.741C62.0841 198.387 53.3637 192.474 49.3623 189.034C48.8943 194.994 48.1221 199.393 48.1221 199.393C48.1221 199.393 64.8219 210.149 90.3201 201.92Z" fill="black"/>
<path d="M82.9566 138.03C84.4772 138.728 85.7966 139.799 86.7921 141.144C87.7876 142.488 88.427 144.063 88.6506 145.721C89.493 151.524 94.8906 169.347 94.8906 169.347L96.6846 168.185C98.1824 168.858 99.4162 170.006 100.195 171.452C100.973 172.897 101.253 174.559 100.99 176.18C100.99 176.18 96.6066 184.76 91.8174 183.145C86.8956 181.476 84.1422 177.451 81.6774 170.868C80.3748 167.358 76.6152 156.781 76.6152 156.781" fill="#858585"/>
<path d="M82.9566 138.03C84.4772 138.728 85.7966 139.799 86.7921 141.144C87.7876 142.488 88.427 144.063 88.6506 145.721C89.493 151.524 94.8906 169.347 94.8906 169.347L96.6846 168.185C98.1824 168.858 99.4162 170.006 100.195 171.452C100.973 172.897 101.253 174.559 100.99 176.18C100.99 176.18 96.6066 184.76 91.8174 183.145C86.8956 181.476 84.1422 177.451 81.6774 170.868C80.3748 167.358 76.6152 156.781 76.6152 156.781" stroke="#263238" stroke-linecap="round" stroke-linejoin="round"/>
<path d="M97.0434 174.511C97.0716 174.969 97.0506 175.43 96.981 175.884" stroke="#263238" stroke-width="0.75" stroke-linecap="round" stroke-linejoin="round"/>
<path d="M93.8223 178.099C93.8223 178.099 95.2965 175.759 95.0859 170.712C95.7946 171.249 96.3357 171.977 96.6459 172.81" stroke="#263238" stroke-width="0.75" stroke-linecap="round" stroke-linejoin="round"/>
<path d="M97.8623 167.694L103.486 163.684C103.767 162.438 104.379 161.29 105.258 160.362C106.136 159.434 107.249 158.76 108.478 158.412C108.478 158.412 111.076 154.122 112.55 154.621C114.024 155.12 110.795 156.867 110.514 159.114L111.707 160.713C111.707 160.713 115.607 160.026 116.559 158.763C116.559 158.763 116.348 161.438 114.804 161.883C114.804 161.883 114.804 163.918 113.751 163.848L106.013 166.032L101.513 174.433L97.8623 167.694Z" fill="white" stroke="#263238" stroke-linecap="round" stroke-linejoin="round"/>
<path d="M74.8369 187.194C75.7261 187.112 76.6076 186.96 77.4733 186.741" stroke="#263238" stroke-width="0.75" stroke-linecap="round" stroke-linejoin="round"/>
<path d="M52.7314 174.409C52.7314 174.409 61.0228 187.092 73.0114 187.264" stroke="#263238" stroke-width="0.75" stroke-linecap="round" stroke-linejoin="round"/>
<path d="M95.4365 167.834C95.4365 167.834 101.302 172.264 100.741 177.607L102.854 173.559C102.854 173.559 102.784 170.151 97.9325 166.539L95.4365 167.834Z" fill="#858585" stroke="#263238" stroke-linecap="round" stroke-linejoin="round"/>
<path d="M72.1381 311.51H93.1981V310.582C93.198 310.354 93.1611 310.127 93.0889 309.911H72.1069C72.1069 310.621 72.1381 311.51 72.1381 311.51Z" fill="white" stroke="#263238" stroke-width="0.75" stroke-linecap="round" stroke-linejoin="round"/>
<path d="M67.6999 308.569C65.4366 307.88 63.2346 307.003 61.1167 305.949C60.1027 305.317 58.6831 303.25 57.6457 302.665C57.4251 302.57 57.1876 302.521 56.9476 302.521C56.7076 302.521 56.4701 302.57 56.2495 302.665C55.7503 303.071 55.7269 305.184 55.7269 305.184C55.7269 305.184 54.8533 303.032 54.2059 302.665C53.3167 302.166 50.8987 302.018 50.1109 302.665C48.8005 303.734 48.3247 307.446 48.0673 309.115C48.0049 309.482 48.0673 311.51 48.0673 311.51H69.1273V310.582C69.1289 310.139 68.9921 309.708 68.7362 309.347C68.4802 308.986 68.1179 308.714 67.6999 308.569Z" fill="#263238" stroke="#263238" stroke-linecap="round" stroke-linejoin="round"/>
<path d="M48.0517 311.51H69.1117V310.582C69.1116 310.354 69.0747 310.127 69.0025 309.911H48.0205C48.0205 310.621 48.0517 311.51 48.0517 311.51Z" fill="white" stroke="#263238" stroke-width="0.75" stroke-linecap="round" stroke-linejoin="round"/>
<path d="M79.119 245.514C79.119 245.514 76.8804 249.375 73.2534 247.901" stroke="#263238" stroke-width="0.75" stroke-linecap="round" stroke-linejoin="round"/>
<path d="M63.5112 246.871C63.5112 246.871 59.4942 250.303 56.1714 247.901" stroke="#263238" stroke-width="0.75" stroke-linecap="round" stroke-linejoin="round"/>
<path d="M105.428 146.953L105.99 149.746H110.966L106.918 148.802L107.113 146.899L105.428 146.953Z" fill="white"/>
</svg>
